<svg width="30" height="30" viewBox="0 0 30 30" fill="none" xmlns="http://www.w3.org/2000/svg">
<path d="M26.667 23.3334H3.33366V17.7667C2.71303 17.4695 2.14902 17.0662 1.66699 16.5751V23.3334C1.66699 23.7754 1.84259 24.1994 2.15515 24.5119C2.46771 24.8245 2.89163 25.0001 3.33366 25.0001H26.667C27.109 25.0001 27.5329 24.8245 27.8455 24.5119C28.1581 24.1994 28.3337 23.7754 28.3337 23.3334V16.5751C27.8552 17.0681 27.2902 17.4692 26.667 17.7584V23.3334Z" fill="#56CCF2"/>
<path d="M20.8337 18.6667C21.0547 18.6667 21.2666 18.5789 21.4229 18.4226C21.5792 18.2663 21.667 18.0543 21.667 17.8333V13.2833H20.0003V15H11.667V16.6667H20.0003V17.8333C20.0003 18.0543 20.0881 18.2663 20.2444 18.4226C20.4007 18.5789 20.6126 18.6667 20.8337 18.6667Z" fill="#56CCF2"/>
<path d="M27.5003 5H20.0003V3.65C19.9915 3.11658 19.7718 2.60838 19.3891 2.23666C19.0065 1.86493 18.4921 1.65998 17.9587 1.66666H12.042C11.5085 1.65998 10.9942 1.86493 10.6115 2.23666C10.2289 2.60838 10.0091 3.11658 10.0003 3.65V5H2.50033C2.27931 5 2.06735 5.08779 1.91107 5.24407C1.75479 5.40035 1.66699 5.61231 1.66699 5.83333V12.5C1.66699 13.6051 2.10598 14.6649 2.88738 15.4463C3.66878 16.2277 4.72859 16.6667 5.83366 16.6667H8.33366V17.8333C8.33366 18.0543 8.42146 18.2663 8.57774 18.4226C8.73402 18.5789 8.94598 18.6667 9.16699 18.6667C9.38801 18.6667 9.59997 18.5789 9.75625 18.4226C9.91253 18.2663 10.0003 18.0543 10.0003 17.8333V13.2833H8.33366V15H5.83366C5.17062 15 4.53473 14.7366 4.06589 14.2678C3.59705 13.7989 3.33366 13.163 3.33366 12.5V6.66666H26.667V12.5C26.667 13.163 26.4036 13.7989 25.9348 14.2678C25.4659 14.7366 24.83 15 24.167 15H23.3337V16.6667H24.167C25.2721 16.6667 26.3319 16.2277 27.1133 15.4463C27.8947 14.6649 28.3337 13.6051 28.3337 12.5V5.83333C28.3337 5.61231 28.2459 5.40035 28.0896 5.24407C27.9333 5.08779 27.7213 5 27.5003 5ZM18.3337 5H11.667V3.69166C11.6713 3.59512 11.7127 3.50397 11.7825 3.43721C11.8524 3.37045 11.9454 3.33323 12.042 3.33333H17.967C18.0141 3.33222 18.0609 3.3404 18.1048 3.35739C18.1487 3.37438 18.1888 3.39986 18.2228 3.43236C18.2569 3.46486 18.2842 3.50376 18.3032 3.54682C18.3222 3.58988 18.3326 3.63627 18.3337 3.68333V5Z" fill="#56CCF2"/>
</svg>
