<svg width="238" height="250" viewBox="0 0 238 250" fill="none" xmlns="http://www.w3.org/2000/svg">
<g style="mix-blend-mode:multiply" opacity="0.5">
<g style="mix-blend-mode:multiply" opacity="0.5">
<path d="M237.505 233.449C237.213 234.471 236.723 235.425 236.062 236.257C235.401 237.089 234.583 237.782 233.653 238.297C219.418 246.234 203.322 250.227 187.027 249.865C170.733 249.502 154.83 244.798 140.961 236.237C139.466 235.335 137.985 234.365 136.517 233.355C135.997 234.017 135.384 234.602 134.699 235.092C130.753 240.573 120.976 249.986 100.466 250C79.2831 250 69.4927 239.752 65.5739 233.84L65.3988 233.705C63.6048 232.232 62.4682 230.107 62.2385 227.797C62.0088 225.487 62.7046 223.181 64.1733 221.383C70.9067 213.155 78.8926 199.257 80.8587 185.413C66.534 178.285 54.7235 166.959 47.0031 152.944C44.6878 156.731 41.0814 159.553 36.8491 160.89C34.8043 161.599 32.6569 161.967 30.4927 161.981C26.7414 161.983 23.0886 160.78 20.0725 158.55C17.0564 156.319 14.8365 153.179 13.74 149.591C12.5549 146.293 12.3124 142.731 13.0397 139.303C12.8474 139.189 12.663 139.063 12.4876 138.925C10.8389 137.586 9.78418 135.65 9.55179 133.539L8.67645 124.839C8.35646 122.102 8.71249 119.327 9.7134 116.759C8.50751 115.163 7.9365 113.176 8.11084 111.184L9.26899 98.4711C9.36521 97.3995 9.67445 96.3579 10.1786 95.4075C10.6827 94.4571 11.3716 93.6169 12.2048 92.9362C12.4303 92.7407 12.6687 92.5608 12.9185 92.3975C12.3538 91.4302 11.9963 90.3561 11.8688 89.2433C11.7413 88.1305 11.8465 87.0034 12.1778 85.9334L14.0767 79.833C14.7224 77.8232 16.129 76.1459 17.9955 75.16C17.8918 74.9321 17.8019 74.6983 17.7262 74.4597C17.4483 73.4341 17.3755 72.3639 17.5119 71.3101C17.6482 70.2564 17.991 69.2399 18.5207 68.3188L26.6008 54.3402C27.0178 53.6442 27.5351 53.0135 28.136 52.4683C28.3478 51.0308 28.9433 49.677 29.8598 48.5495L33.6574 43.8765C34.3492 43.0284 35.2061 42.3296 36.176 41.8227C37.146 41.3157 38.2088 41.0111 39.3 40.9273H39.7579C39.8551 39.8201 40.1819 38.7453 40.7175 37.7715C41.2531 36.7977 41.9858 35.9461 42.8688 35.2712L47.8919 31.4197C48.8553 30.677 49.9739 30.1614 51.1643 29.9114C51.7177 28.8357 52.499 27.8936 53.4537 27.1507L58.396 23.2722C59.8062 22.1901 61.5339 21.6031 63.3114 21.6023C63.9477 21.6137 64.5805 21.6996 65.1968 21.8582C66.9414 19.4839 69.2182 17.5516 71.8446 16.2162C74.4709 14.8808 77.3737 14.1795 80.32 14.1686C81.3907 14.1712 82.4589 14.2704 83.5117 14.4649C83.7071 14.0713 83.9322 13.6931 84.185 13.3337C85.4113 11.594 87.2744 10.4083 89.3698 10.0343L94.7565 9.10512C95.2011 9.02626 95.6516 8.98571 96.1032 8.98391C96.6873 8.98522 97.2696 9.04842 97.8404 9.17245C98.7324 8.62564 99.7191 8.25106 100.749 8.06817L106.136 7.13896C106.581 7.0601 107.031 7.01955 107.483 7.01775C109.547 7.03276 111.528 7.83747 113.018 9.26672C113.768 8.45767 114.676 7.81087 115.686 7.36617C116.696 6.92148 117.786 6.68833 118.889 6.68108C119.203 6.66099 119.518 6.66099 119.832 6.68108L127.669 7.59683C131.102 7.96872 134.376 9.23659 137.164 11.2733L137.325 11.1655C138.256 10.6542 139.279 10.3316 140.335 10.2161C141.391 10.1005 142.46 10.1943 143.48 10.4922L148.799 12.0409C149.577 12.2713 150.317 12.6163 150.994 13.0644H151.385C152.598 13.0637 153.796 13.3401 154.886 13.8724L161.996 17.3064C166.451 19.3478 169.931 23.0499 171.693 27.622C171.73 27.7279 171.762 27.8358 171.787 27.9452C172.73 27.4017 173.775 27.0579 174.857 26.9352C175.167 26.9151 175.477 26.9151 175.786 26.9352C177.61 26.9351 179.381 27.5521 180.81 28.6859L185.321 32.0661C185.724 32.3823 186.094 32.7387 186.425 33.13C187.407 33.5822 188.29 34.2228 189.024 35.0153L200.081 46.7315C200.623 47.3373 201.077 48.0175 201.427 48.7515C202.724 49.3481 203.839 50.2774 204.659 51.4449L208.026 56.4411C208.639 57.3479 209.061 58.3698 209.267 59.4448C209.473 60.5198 209.459 61.6254 209.224 62.6946C208.99 63.7638 208.541 64.7743 207.905 65.6647C207.268 66.5551 206.457 67.3068 205.521 67.8744L193.967 74.8772H193.872C193.066 76.1352 192.012 77.2165 190.775 78.0553C189.555 78.8717 188.18 79.4265 186.735 79.6848C193.408 93.1056 196.116 108.151 194.542 123.056C192.968 137.961 187.176 152.108 177.847 163.839C179.709 167.867 182.536 171.372 186.079 174.043C189.622 176.714 193.769 178.469 198.153 179.152C202.538 179.834 207.022 179.422 211.209 177.954C215.396 176.485 219.155 174.005 222.153 170.734C222.976 169.85 223.972 169.144 225.08 168.659C226.187 168.175 227.382 167.923 228.59 167.92C230.799 167.92 232.926 168.758 234.542 170.263C235.386 171.04 236.067 171.977 236.546 173.02C237.024 174.062 237.291 175.19 237.33 176.336L237.505 233.449Z" fill="#3D2F70"/>
</g>
<g style="mix-blend-mode:multiply" opacity="0.5">
<path d="M26.481 144.53C26.1832 144.879 26.0003 145.286 25.9323 145.75C25.8599 146.202 25.9114 146.693 26.0867 147.225C26.4109 148.209 26.9864 148.882 27.813 149.243C28.6353 149.591 29.585 149.588 30.662 149.233C31.872 148.834 32.6975 148.23 33.1385 147.422C33.5619 146.604 33.583 145.617 33.2017 144.46C32.7504 143.091 31.81 142.317 30.3807 142.14L31.6755 146.069L28.8633 146.995L26.4576 139.696L30.2471 138.447C31.0925 138.507 31.9396 138.729 32.7883 139.113C33.6326 139.483 34.4165 140.05 35.14 140.814C35.8502 141.583 36.3959 142.545 36.7771 143.702C37.2416 145.111 37.3543 146.46 37.1153 147.747C36.8586 149.026 36.2903 150.142 35.4105 151.095C34.513 152.04 33.3662 152.742 31.97 153.202C30.5872 153.658 29.2608 153.77 27.991 153.54C26.7035 153.301 25.5831 152.742 24.6298 151.862C23.6632 150.987 22.9477 149.844 22.4832 148.435C21.9004 146.666 21.8439 145.063 22.3136 143.626C22.7834 142.189 23.7102 141.088 25.0941 140.322L26.481 144.53Z" fill="#3D2F70"/>
</g>
<g style="mix-blend-mode:multiply" opacity="0.5">
<path d="M32.0332 123.035L26.8609 126.456L26.9007 126.895L32.3384 126.402L32.71 130.501L17.9655 131.838L17.3797 125.375C17.2722 124.19 17.3903 123.167 17.7341 122.307C18.0638 121.447 18.5723 120.776 19.2594 120.292C19.9325 119.809 20.7153 119.527 21.6076 119.446C22.6115 119.355 23.5222 119.554 24.3396 120.042C25.1418 120.518 25.7513 121.271 26.168 122.301L31.618 118.454L32.0332 123.035ZM24.0982 127.149L23.9143 125.12C23.8638 124.563 23.6934 124.156 23.4032 123.901C23.113 123.647 22.7169 123.542 22.215 123.587C21.7409 123.63 21.3847 123.81 21.1463 124.127C20.8928 124.431 20.7906 124.855 20.8399 125.399L21.0238 127.428L24.0982 127.149Z" fill="#3D2F70"/>
</g>
<g style="mix-blend-mode:multiply" opacity="0.5">
<path d="M20.3585 107.445L22.7616 107.685L23.2301 102.983L26.3436 103.293L25.8752 107.995L28.529 108.259L29.06 102.931L32.3407 103.257L31.4017 112.682L16.6697 111.214L17.6087 101.79L20.8894 102.116L20.3585 107.445Z" fill="#3D2F70"/>
</g>
<g style="mix-blend-mode:multiply" opacity="0.5">
<path d="M33.375 88.261L31.8 93.2485L33.8548 94.7311L32.557 98.8408L20.1114 89.2722L21.5352 84.7635L37.2127 84.0978L35.9086 88.2274L33.375 88.261ZM30.0738 88.2936L25.0464 88.3734L29.1225 91.306L30.0738 88.2936Z" fill="#3D2F70"/>
</g>
<g style="mix-blend-mode:multiply" opacity="0.5">
<path d="M32.4281 61.3503L35.2455 62.9883L33.2715 66.3835L43.1864 72.148L41.1284 75.6878L31.2135 69.9233L29.2605 73.2825L26.4431 71.6445L32.4281 61.3503Z" fill="#3D2F70"/>
</g>
<g style="mix-blend-mode:multiply" opacity="0.5">
<path d="M39.3927 50.2562L46.836 56.9772L44.6138 59.6903L36.5584 53.7166L39.3927 50.2562ZM50.1505 61.945C49.6892 62.5082 49.165 62.8389 48.5778 62.9371C47.9887 63.0156 47.4559 62.8597 46.9794 62.4693C46.5028 62.079 46.245 61.5873 46.2059 60.9943C46.1757 60.3905 46.3912 59.807 46.8525 59.2438C47.305 58.6914 47.8257 58.376 48.4148 58.2975C49.0128 58.2082 49.55 58.3587 50.0266 58.749C50.4923 59.1305 50.7403 59.6231 50.7705 60.2269C50.8096 60.82 50.6029 61.3927 50.1505 61.945Z" fill="#3D2F70"/>
</g>
<g style="mix-blend-mode:multiply" opacity="0.5">
<path d="M59.6045 32.6493L61.6518 43.806L64.5213 47.5221L61.253 50.0457L58.3836 46.3296L48.1077 41.5266L51.8238 38.6572L57.3653 41.5812L55.9381 35.4803L59.6045 32.6493Z" fill="#3D2F70"/>
</g>
<g style="mix-blend-mode:multiply" opacity="0.5">
<path d="M79.9903 38.033C78.721 38.5898 77.425 38.8068 76.1022 38.684C74.7737 38.5483 73.5648 38.0927 72.4753 37.317C71.3931 36.5229 70.5595 35.4593 69.9745 34.1259C69.3894 32.7926 69.174 31.4654 69.3281 30.1441C69.4894 28.8044 69.9728 27.6062 70.7781 26.5496C71.5834 25.493 72.6207 24.6863 73.8899 24.1294C75.1719 23.5669 76.4679 23.3499 77.778 23.4784C79.1008 23.6012 80.3033 24.0597 81.3856 24.8538C82.4622 25.635 83.293 26.6923 83.878 28.0256C84.463 29.3589 84.6813 30.6926 84.5328 32.0267C84.3787 33.348 83.9018 34.5433 83.1021 35.6127C82.2967 36.6693 81.2595 37.4761 79.9903 38.033ZM78.4546 34.533C79.4161 34.1112 80.0347 33.4652 80.3104 32.5951C80.5988 31.7194 80.5124 30.7559 80.0512 29.7047C79.5787 28.6278 78.9254 27.9054 78.0913 27.5375C77.2644 27.1512 76.3702 27.169 75.4087 27.5909C74.4343 28.0184 73.8093 28.6671 73.5337 29.5372C73.2524 30.3945 73.348 31.3615 73.8205 32.4384C74.2874 33.5025 74.9343 34.2277 75.7612 34.614C76.5825 34.9875 77.4803 34.9605 78.4546 34.533Z" fill="#3D2F70"/>
</g>
<g style="mix-blend-mode:multiply" opacity="0.5">
<path d="M94.9587 17.0579L96.4162 25.5224C96.5516 26.3088 96.8355 26.885 97.2678 27.2509C97.714 27.6145 98.3096 27.7321 99.0546 27.6038C99.7997 27.4755 100.322 27.1655 100.62 26.6736C100.931 26.1656 101.019 25.5253 100.886 24.7526L99.4289 16.2882L103.485 15.5897L104.943 24.0542C105.173 25.3925 105.087 26.5863 104.686 27.6357C104.282 28.6713 103.631 29.5149 102.735 30.1665C101.85 30.8019 100.814 31.2217 99.6276 31.426C98.441 31.6303 97.3383 31.5787 96.3193 31.2712C95.3118 30.9474 94.4582 30.3628 93.7585 29.5173C93.0727 28.6694 92.6134 27.5694 92.3806 26.2172L90.923 17.7528L94.9587 17.0579Z" fill="#3D2F70"/>
</g>
<g style="mix-blend-mode:multiply" opacity="0.5">
<path d="M124.807 15.0507C126.351 15.2272 127.664 15.6944 128.747 16.4522C129.846 17.1978 130.644 18.1627 131.143 19.347C131.642 20.5313 131.809 21.8398 131.646 23.2725C131.484 24.6912 131.019 25.9204 130.252 26.96C129.499 28.0013 128.502 28.775 127.26 29.2813C126.034 29.7753 124.656 29.9349 123.126 29.76L117.305 29.0947L118.986 14.3855L124.807 15.0507ZM123.225 26.1147C124.422 26.2514 125.398 26.0319 126.154 25.456C126.91 24.8802 127.357 23.9941 127.494 22.7979C127.632 21.5878 127.398 20.6169 126.791 19.8853C126.186 19.1397 125.285 18.6986 124.089 18.5619L122.67 18.3997L121.807 25.9526L123.225 26.1147Z" fill="#3D2F70"/>
</g>
<g style="mix-blend-mode:multiply" opacity="0.5">
<path d="M145.374 18.9592L141.273 33.185L137.318 32.045L141.419 17.8192L145.374 18.9592Z" fill="#3D2F70"/>
</g>
<g style="mix-blend-mode:multiply" opacity="0.5">
<path d="M156.767 23.1813C158.165 23.8495 159.252 24.717 160.027 25.7836C160.82 26.8437 161.26 28.0132 161.345 29.2921C161.431 30.571 161.163 31.8594 160.543 33.1571C159.929 34.4423 159.092 35.4505 158.03 36.1816C156.982 36.9187 155.79 37.3242 154.455 37.3981C153.138 37.4654 151.787 37.168 150.401 36.5058L145.127 33.9864L151.494 20.6619L156.767 23.1813ZM151.679 33.1007C152.763 33.6184 153.755 33.7286 154.655 33.4314C155.555 33.1342 156.265 32.4438 156.782 31.3602C157.306 30.264 157.401 29.2723 157.066 28.3851C156.738 27.4853 156.032 26.7766 154.948 26.2589L153.663 25.6448L150.394 32.4866L151.679 33.1007Z" fill="#3D2F70"/>
</g>
<g style="mix-blend-mode:multiply" opacity="0.5">
<path d="M179.349 36.6002L170.17 48.2961L166.919 45.7442L176.098 34.0482L179.349 36.6002Z" fill="#3D2F70"/>
</g>
<g style="mix-blend-mode:multiply" opacity="0.5">
<path d="M191.689 48.5434L189.319 50.8051L186.593 47.9489L178.253 55.9082L175.411 52.9305L183.752 44.9712L181.055 42.1454L183.425 39.8837L191.689 48.5434Z" fill="#3D2F70"/>
</g>
<g style="mix-blend-mode:multiply" opacity="0.5">
<path d="M200.202 58.4209L191.676 63.7025L189.688 60.8136L197.665 54.7363L200.202 58.4209ZM185.983 65.5053C185.57 64.9056 185.398 64.3101 185.467 63.7188C185.556 63.1312 185.853 62.6627 186.361 62.3134C186.868 61.9642 187.412 61.8532 187.993 61.9805C188.581 62.1193 189.082 62.4886 189.495 63.0882C189.899 63.6764 190.058 64.2643 189.969 64.852C189.889 65.4512 189.595 65.9255 189.087 66.2747C188.592 66.6161 188.049 66.7173 187.461 66.5785C186.88 66.4512 186.388 66.0934 185.983 65.5053Z" fill="#3D2F70"/>
</g>
<g style="mix-blend-mode:multiply" opacity="0.5">
<path d="M182.578 140.988C197.092 104.626 179.381 63.3834 143.02 48.8693C106.658 34.3552 65.4153 52.066 50.9012 88.4274C36.3871 124.789 54.0979 166.032 90.4593 180.546C126.821 195.06 168.064 177.349 182.578 140.988Z" fill="#3D2F70"/>
</g>
<g style="mix-blend-mode:multiply" opacity="0.5">
<path d="M76.0639 87.7246L66.4082 82.5264" stroke="#3D2F70" stroke-linecap="round" stroke-linejoin="round"/>
</g>
<g style="mix-blend-mode:multiply" opacity="0.5">
<path d="M73.276 100.37L62.7988 101.595" stroke="#3D2F70" stroke-linecap="round" stroke-linejoin="round"/>
</g>
<g style="mix-blend-mode:multiply" opacity="0.5">
<path d="M84.9921 76.9915L78.7031 67.7667" stroke="#3D2F70" stroke-linecap="round" stroke-linejoin="round"/>
</g>
<g style="mix-blend-mode:multiply" opacity="0.5">
<path d="M71.4989 226.837C81.0469 215.175 89.8272 197.574 90.5544 181.36C91.1102 173.163 90.2538 164.932 88.0227 157.025C87.1964 154.385 86.1233 151.828 84.8176 149.389C80.993 141.511 75.2157 136.825 66.4084 133.323C64.4103 132.646 62.7563 131.214 61.7998 129.334C60.8434 127.453 60.6605 125.273 61.29 123.259C61.9196 121.246 63.3118 119.558 65.1691 118.558C67.0264 117.557 69.2015 117.322 71.2295 117.904C77.8964 119.269 84.0708 122.409 89.1 126.994C90.4187 112.931 90.9134 98.8022 90.5814 84.6811C90.5542 84.3584 90.5542 84.0341 90.5814 83.7114C90.6258 81.8459 91.3691 80.065 92.664 78.7213C93.9588 77.3776 95.711 76.569 97.5737 76.4555C99.4363 76.342 101.274 76.932 102.722 78.1087C104.17 79.2853 105.124 80.9628 105.395 82.8092V82.9438C106.189 89.6483 106.599 96.3928 106.62 103.144C107.307 88.6134 106.62 74.6887 106.62 74.6887C106.62 74.3655 106.62 74.0423 106.62 73.7056C106.668 71.8409 107.413 70.0619 108.709 68.7204C110.005 67.3788 111.757 66.5725 113.619 66.4608C115.481 66.3491 117.317 66.9401 118.764 68.1171C120.211 69.294 121.164 70.9711 121.434 72.8168V72.9514C122.569 83.3075 123.064 93.7237 122.915 104.141C123.616 90.3237 123.387 79.1193 123.387 79.1193C123.293 78.1419 123.408 77.1559 123.723 76.2259C124.037 75.2959 124.545 74.443 125.213 73.7232C125.881 73.0034 126.693 72.4329 127.597 72.0493C128.5 71.6656 129.475 71.4774 130.457 71.497C132.089 71.5332 133.656 72.1406 134.887 73.2135C136.117 74.2863 136.932 75.7567 137.19 77.3686V77.5032C137.19 77.5032 137.527 81.1931 137.594 87.4552C137.594 84.6003 141.567 83.092 144.583 83.4152C146.197 83.5618 147.709 84.2679 148.858 85.4114C150.006 86.5549 150.719 88.0639 150.872 89.6773V89.8119C151.012 102.757 149.944 115.688 147.681 128.435C147.681 128.435 152.879 187.433 130.349 227.834C130.349 227.834 124.477 241.772 101.22 241.785C77.3704 241.772 71.4989 226.837 71.4989 226.837Z" fill="#3D2F70"/>
</g>
<g style="mix-blend-mode:multiply" opacity="0.5">
<path d="M71.4989 226.837C81.0469 215.175 89.8272 197.574 90.5544 181.36C91.1102 173.163 90.2538 164.932 88.0227 157.025C87.1964 154.385 86.1233 151.828 84.8176 149.389C80.993 141.511 75.2157 136.825 66.4084 133.323C64.4103 132.646 62.7563 131.214 61.7998 129.334C60.8434 127.453 60.6605 125.273 61.29 123.26C61.9196 121.246 63.3118 119.558 65.1691 118.558C67.0264 117.557 69.2015 117.322 71.2295 117.904C78.6094 119.251 88.6152 124.53 92.8573 131.573" stroke="#3D2F70" stroke-linecap="round" stroke-linejoin="round"/>
</g>
<g style="mix-blend-mode:multiply" opacity="0.5">
<path d="M89.0605 126.994C90.3793 112.931 90.8739 98.8022 90.5419 84.6811C90.5147 84.3585 90.5147 84.0341 90.5419 83.7115C90.5864 81.8459 91.3296 80.0651 92.6245 78.7213C93.9194 77.3776 95.6715 76.569 97.5342 76.4556C99.3968 76.3421 101.234 76.9321 102.683 78.1087C104.131 79.2853 105.085 80.9628 105.355 82.8092V82.9439C105.355 82.9439 107.416 97.4477 106.217 120.072" stroke="#3D2F70" stroke-linecap="round" stroke-linejoin="round"/>
</g>
<g style="mix-blend-mode:multiply" opacity="0.5">
<path d="M106.5 103.184C107.2 88.6538 106.5 74.7291 106.5 74.7291C106.5 74.4059 106.5 74.0827 106.5 73.746C106.547 71.8813 107.293 70.1023 108.589 68.7608C109.885 67.4192 111.637 66.6129 113.499 66.5012C115.361 66.3895 117.197 66.9805 118.644 68.1575C120.091 69.3344 121.044 71.0116 121.314 72.8572V72.9918C122.935 88.0551 123.255 103.23 122.27 118.348" stroke="#3D2F70" stroke-linecap="round" stroke-linejoin="round"/>
</g>
<g style="mix-blend-mode:multiply" opacity="0.5">
<path d="M122.781 104.181C123.482 90.3641 123.253 79.1597 123.253 79.1597C123.159 78.1823 123.274 77.1963 123.589 76.2663C123.903 75.3364 124.411 74.4835 125.079 73.7637C125.747 73.0438 126.559 72.4734 127.463 72.0897C128.366 71.706 129.341 71.5178 130.323 71.5375C131.955 71.5737 133.522 72.1811 134.753 73.2539C135.983 74.3268 136.798 75.7971 137.056 77.409V77.5437C137.899 90.5741 137.448 103.656 135.709 116.598" stroke="#3D2F70" stroke-linecap="round" stroke-linejoin="round"/>
</g>
<g style="mix-blend-mode:multiply" opacity="0.5">
<path d="M137.486 87.4418C138.112 86.0445 139.184 84.8941 140.534 84.1709C141.883 83.4476 143.434 83.1922 144.945 83.4447C146.455 83.6971 147.839 84.4432 148.88 85.5661C149.921 86.689 150.56 88.1254 150.697 89.6504V89.785C150.837 102.731 149.768 115.661 147.506 128.408" stroke="#3D2F70" stroke-linecap="round" stroke-linejoin="round"/>
</g>
<g style="mix-blend-mode:multiply" opacity="0.5">
<path d="M130.188 227.807C134.667 218.905 138.253 209.58 140.894 199.971C142.388 194.853 150.132 152.312 147.519 128.408" stroke="#3D2F70" stroke-width="1.04" stroke-linecap="round" stroke-linejoin="round"/>
</g>
<g style="mix-blend-mode:multiply" opacity="0.5">
<path d="M228.441 177.508C212.698 194.072 192.081 186.41 192.081 186.41C162.305 175.165 167.611 147.356 167.611 147.356C169.866 134.608 170.934 121.678 170.803 108.733V108.598C170.663 107.077 170.023 105.645 168.985 104.526C167.946 103.406 166.566 102.661 165.059 102.407C163.553 102.154 162.005 102.406 160.657 103.123C159.309 103.841 158.236 104.985 157.605 106.376L157.525 106.457C157.525 100.181 157.121 96.4915 157.121 96.4915V96.3568C156.896 94.5317 155.955 92.8708 154.505 91.7393C153.056 90.6079 151.216 90.0987 149.391 90.3237C147.566 90.5487 145.905 91.4895 144.773 92.9392C143.642 94.3888 143.133 96.2285 143.358 98.0536C143.358 98.0536 143.56 108.019 142.994 120.745L142.9 120.84C142.955 111.168 142.456 101.501 141.405 91.8858V91.7512C141.135 89.9055 140.182 88.2284 138.735 87.0515C137.288 85.8745 135.452 85.2834 133.59 85.3952C131.728 85.5069 129.976 86.3132 128.68 87.6548C127.384 88.9963 126.639 90.7753 126.591 92.64C126.564 92.9671 126.564 93.2959 126.591 93.6231C126.591 93.6231 127.238 106.874 126.591 121.015C126.545 114.605 126.14 108.203 125.379 101.838V101.703C125.109 99.8575 124.157 98.1804 122.71 97.0034C121.262 95.8265 119.426 95.2354 117.565 95.3471C115.703 95.4589 113.95 96.2652 112.654 97.6068C111.358 98.9483 110.613 100.727 110.566 102.592C110.545 102.919 110.545 103.248 110.566 103.575C110.905 117.696 110.411 131.825 109.084 145.888C104.059 141.261 97.8663 138.095 91.1735 136.73C89.9803 136.467 88.7442 136.467 87.551 136.73C85.7636 136.979 84.1147 137.83 82.8774 139.144C81.64 140.457 80.8884 142.154 80.747 143.953C80.6056 145.752 81.0829 147.545 82.0998 149.036C83.1168 150.527 84.6124 151.625 86.3389 152.15C95.1463 155.665 100.937 160.351 104.748 168.229C105.844 170.578 106.697 173.033 107.293 175.555C112.891 197.545 126.779 216.515 146.051 228.493C146.051 228.493 163.639 240.614 186.451 240.816C209.264 241.018 224.159 233.719 229.222 230.756" fill="#3D2F70"/>
</g>
<g style="mix-blend-mode:multiply" opacity="0.5">
<path d="M109.072 145.928C110.399 131.866 110.893 117.737 110.554 103.615C110.554 103.292 110.554 102.969 110.554 102.632C110.601 100.768 111.346 98.9887 112.642 97.6472C113.938 96.3057 115.69 95.4993 117.552 95.3876C119.414 95.2759 121.25 95.8669 122.697 97.0439C124.144 98.2208 125.097 99.898 125.367 101.744V101.878C125.367 101.878 127.428 116.369 126.242 138.993" stroke="#3D2F70" stroke-linecap="round" stroke-linejoin="round"/>
</g>
<g style="mix-blend-mode:multiply" opacity="0.5">
<path d="M126.511 122.105C127.211 107.575 126.511 93.6634 126.511 93.6634C126.483 93.3363 126.483 93.0075 126.511 92.6804C126.555 90.8148 127.298 89.0339 128.593 87.6902C129.888 86.3465 131.64 85.5379 133.503 85.4244C135.366 85.311 137.203 85.9009 138.651 87.0776C140.1 88.2542 141.054 89.9317 141.324 91.7781V91.9128C142.937 106.977 143.257 122.151 142.28 137.269" stroke="#3D2F70" stroke-linecap="round" stroke-linejoin="round"/>
</g>
<g style="mix-blend-mode:multiply" opacity="0.5">
<path d="M142.807 123.102C143.493 109.298 143.238 98.0536 143.238 98.0536C143.238 97.7573 143.238 97.4611 143.238 97.1513C143.288 95.4234 143.982 93.7768 145.185 92.5353C146.388 91.2938 148.012 90.5473 149.737 90.4426C151.463 90.338 153.165 90.8827 154.509 91.9697C155.853 93.0566 156.742 94.6072 157.001 96.3164V96.4376C157.847 109.468 157.396 122.55 155.654 135.491" stroke="#3D2F70" stroke-linecap="round" stroke-linejoin="round"/>
</g>
<g style="mix-blend-mode:multiply" opacity="0.5">
<path d="M157.512 106.363C158.142 104.971 159.215 103.828 160.563 103.11C161.912 102.392 163.459 102.14 164.966 102.394C166.472 102.648 167.852 103.392 168.891 104.512C169.93 105.632 170.569 107.064 170.709 108.585V108.706C170.836 116.691 170.44 124.676 169.524 132.61C169.524 132.61 167.114 149.362 167.248 152.379C167.254 159.571 169.428 166.595 173.487 172.533C177.546 178.471 183.3 183.047 190 185.665C196.699 188.282 204.032 188.819 211.041 187.205C218.05 185.592 224.41 181.902 229.29 176.619" stroke="#3D2F70" stroke-linecap="round" stroke-linejoin="round"/>
</g>
<g style="mix-blend-mode:multiply" opacity="0.5">
<path d="M230.004 230.473C217.114 237.654 202.541 241.264 187.79 240.93C173.039 240.596 158.644 236.331 146.092 228.574C126.819 216.605 112.929 197.637 107.335 175.65C106.738 173.123 105.885 170.664 104.789 168.31C100.978 160.446 95.1876 155.759 86.3803 152.244C84.6538 151.721 83.1579 150.623 82.1401 149.134C81.1224 147.644 80.6438 145.852 80.7836 144.053C80.9234 142.254 81.6732 140.557 82.9089 139.243C84.1447 137.928 85.7922 137.075 87.5788 136.825C88.7766 136.562 90.0171 136.562 91.2149 136.825C98.5813 138.171 108.601 143.45 112.762 150.48" stroke="#3D2F70" stroke-miterlimit="10"/>
</g>
<g style="mix-blend-mode:multiply" opacity="0.5">
<path d="M116.613 198.26C121.953 200.886 127.771 202.397 133.714 202.701C139.657 203.004 145.599 202.095 151.178 200.027C156.758 197.959 161.858 194.777 166.167 190.674C170.477 186.57 173.906 181.633 176.244 176.161" stroke="#3D2F70" stroke-linecap="round" stroke-linejoin="round"/>
</g>
<g style="mix-blend-mode:multiply" opacity="0.5">
<path d="M149.121 223.578C161.227 231.02 175.137 235.011 189.347 235.119" stroke="#3D2F70" stroke-linecap="round" stroke-linejoin="round"/>
</g>
<g style="mix-blend-mode:multiply" opacity="0.5">
<path d="M193.064 234.971C193.708 234.983 194.352 234.947 194.99 234.863" stroke="#3D2F70" stroke-linecap="round" stroke-linejoin="round"/>
</g>
</g>
<path d="M229.425 226.716C229.133 227.737 228.643 228.692 227.982 229.523C227.321 230.355 226.503 231.049 225.573 231.564C211.338 239.5 195.242 243.493 178.947 243.131C162.653 242.769 146.75 238.065 132.881 229.504C131.386 228.601 129.905 227.632 128.437 226.622C127.916 227.284 127.304 227.869 126.619 228.359C122.673 233.84 112.896 243.253 92.3864 243.267C71.203 243.267 61.4126 233.018 57.4938 227.106L57.3187 226.972C55.5247 225.499 54.3882 223.374 54.1584 221.064C53.9287 218.754 54.6245 216.447 56.0932 214.65C62.8266 206.421 70.8125 192.524 72.7786 178.68C58.4539 171.552 46.6434 160.225 38.923 146.211C36.6077 149.998 33.0014 152.82 28.769 154.157C26.7242 154.866 24.5769 155.234 22.4127 155.247C18.6613 155.25 15.0085 154.047 11.9924 151.816C8.97631 149.586 6.75644 146.445 5.6599 142.858C4.47484 139.56 4.23235 135.997 4.95963 132.569C4.76737 132.456 4.58291 132.33 4.40749 132.192C2.7588 130.852 1.70411 128.917 1.47172 126.805L0.596375 118.106C0.276378 115.368 0.632415 112.594 1.63332 110.026C0.427432 108.43 -0.143582 106.443 0.030765 104.45L1.18891 91.7377C1.28513 90.6662 1.59437 89.6246 2.0985 88.6742C2.60263 87.7237 3.2915 86.8835 4.12469 86.2028C4.35017 86.0074 4.58863 85.8274 4.83843 85.6642C4.27368 84.6969 3.91621 83.6228 3.7887 82.51C3.6612 81.3972 3.76644 80.27 4.09775 79.2001L5.99658 73.0996C6.64229 71.0898 8.04888 69.4126 9.91543 68.4266C9.81173 68.1988 9.72179 67.9649 9.64609 67.7263C9.36826 66.7008 9.29544 65.6305 9.43178 64.5768C9.56811 63.523 9.91094 62.5065 10.4406 61.5855L18.5207 47.6069C18.9377 46.9109 19.455 46.2801 20.056 45.735C20.2677 44.2975 20.8632 42.9437 21.7797 41.8161L25.5774 37.1431C26.2691 36.295 27.126 35.5963 28.0959 35.0893C29.0659 34.5824 30.1287 34.2777 31.22 34.1939H31.6778C31.775 33.0868 32.1018 32.012 32.6374 31.0381C33.173 30.0643 33.9057 29.2128 34.7887 28.5378L39.8118 24.6863C40.7752 23.9436 41.8938 23.4281 43.0843 23.178C43.6377 22.1024 44.4189 21.1602 45.3736 20.4173L50.316 16.5389C51.7261 15.4567 53.4538 14.8698 55.2313 14.869C55.8676 14.8804 56.5004 14.9662 57.1167 15.1249C58.8614 12.7506 61.1382 10.8182 63.7645 9.48284C66.3909 8.14745 69.2936 7.44618 72.24 7.43529C73.3106 7.43788 74.3788 7.53704 75.4316 7.73157C75.627 7.33793 75.8521 6.95976 76.1049 6.60035C77.3312 4.86061 79.1943 3.67496 81.2897 3.30097L86.6764 2.4391C87.121 2.36024 87.5716 2.31969 88.0231 2.3179C88.6072 2.3192 89.1895 2.3824 89.7603 2.50643C90.6523 1.95962 91.639 1.58504 92.6692 1.40215L98.0559 0.47294C98.5005 0.394087 98.951 0.353537 99.4026 0.351738C101.467 0.366744 103.448 1.17146 104.937 2.6007C105.688 1.79165 106.596 1.14485 107.606 0.700156C108.615 0.255464 109.706 0.0223116 110.809 0.0150673C111.123 -0.00502243 111.438 -0.00502243 111.752 0.0150673L119.589 0.93081C123.022 1.3027 126.296 2.57057 129.084 4.60726L129.245 4.49953C130.176 3.98823 131.199 3.66557 132.255 3.55003C133.311 3.43449 134.38 3.52833 135.399 3.82618L140.719 5.37487C141.497 5.60533 142.237 5.95026 142.914 6.39835H143.304C144.518 6.39772 145.715 6.67408 146.806 7.20636L153.916 10.6404C158.371 12.6818 161.851 16.3838 163.612 20.956C163.65 21.0618 163.682 21.1698 163.707 21.2792C164.65 20.7357 165.695 20.3919 166.777 20.2692C167.087 20.2491 167.397 20.2491 167.706 20.2692C169.53 20.2691 171.301 20.8861 172.73 22.0199L177.241 25.3327C177.644 25.6489 178.014 26.0054 178.345 26.3966C179.327 26.8489 180.21 27.4895 180.944 28.282L192.001 39.9981C192.543 40.604 192.997 41.2842 193.347 42.0181C194.644 42.6148 195.759 43.5441 196.579 44.7115L199.946 49.7077C200.559 50.6146 200.981 51.6365 201.187 52.7115C201.393 53.7865 201.379 54.8921 201.144 55.9613C200.91 57.0305 200.461 58.0409 199.824 58.9313C199.188 59.8217 198.377 60.5735 197.441 61.1411L185.887 68.1438H185.792C184.986 69.4019 183.932 70.4831 182.695 71.322C181.475 72.1384 180.1 72.6932 178.655 72.9515C185.328 86.3722 188.036 101.417 186.462 116.323C184.887 131.228 179.096 145.375 169.767 157.106C171.628 161.133 174.456 164.638 177.999 167.31C181.541 169.981 185.689 171.736 190.073 172.418C194.457 173.1 198.942 172.689 203.129 171.221C207.316 169.752 211.075 167.272 214.073 164.001C214.896 163.116 215.892 162.41 216.999 161.926C218.107 161.442 219.301 161.19 220.51 161.186C222.719 161.187 224.846 162.024 226.462 163.529C227.306 164.307 227.987 165.244 228.466 166.286C228.944 167.329 229.211 168.456 229.25 169.603L229.425 226.716Z" fill="white"/>
<path d="M21.5518 132.88C21.1508 133.35 20.9044 133.897 20.8129 134.523C20.7154 135.131 20.7847 135.793 21.0208 136.509C21.4574 137.834 22.2324 138.74 23.3457 139.227C24.453 139.696 25.7319 139.691 27.1823 139.213C28.8118 138.676 29.9235 137.863 30.5174 136.774C31.0876 135.673 31.1159 134.344 30.6025 132.786C29.9947 130.941 28.7283 129.9 26.8034 129.661L28.5472 134.952L24.76 136.2L21.5203 126.369L26.6236 124.688C27.7621 124.769 28.9028 125.068 30.0457 125.585C31.1828 126.083 32.2385 126.847 33.2127 127.876C34.1691 128.911 34.904 130.207 35.4174 131.765C36.0429 133.663 36.1947 135.479 35.8728 137.213C35.5271 138.934 34.7619 140.437 33.577 141.721C32.3684 142.993 30.8239 143.939 28.9438 144.558C27.0815 145.172 25.2954 145.324 23.5853 145.014C21.8515 144.692 20.3426 143.939 19.0589 142.754C17.7572 141.575 16.7936 140.036 16.1681 138.138C15.3832 135.757 15.3071 133.598 15.9397 131.663C16.5723 129.727 17.8204 128.244 19.6841 127.213L21.5518 132.88Z" fill="#222221"/>
<path d="M31.6224 112.587L24.657 117.194L24.7107 117.785L32.0335 117.121L32.534 122.642L12.6777 124.442L11.8888 115.739C11.7441 114.143 11.9032 112.765 12.366 111.607C12.8101 110.449 13.4948 109.545 14.4202 108.893C15.3267 108.243 16.3808 107.863 17.5825 107.754C18.9344 107.632 20.1608 107.899 21.2616 108.557C22.3419 109.197 23.1627 110.211 23.7239 111.599L31.0633 106.419L31.6224 112.587ZM20.9366 118.127L20.6889 115.395C20.6208 114.644 20.3914 114.097 20.0006 113.754C19.6098 113.411 19.0764 113.27 18.4004 113.331C17.762 113.389 17.2823 113.631 16.9613 114.058C16.6198 114.468 16.4823 115.039 16.5487 115.771L16.7963 118.503L20.9366 118.127Z" fill="#222221"/>
<path d="M16.4267 99.281L19.6629 99.6035L20.2938 93.2717L24.4868 93.6895L23.8559 100.021L27.4298 100.377L28.1448 93.2014L32.563 93.6416L31.2984 106.333L11.459 104.356L12.7235 91.6648L17.1417 92.1051L16.4267 99.281Z" fill="#222221"/>
<path d="M33.2024 80.2055L31.0814 86.9221L33.8487 88.9187L32.1009 94.4532L15.3406 81.5672L17.258 75.4954L38.3707 74.5989L36.6145 80.1603L33.2024 80.2055ZM28.7568 80.2493L21.9865 80.3568L27.4757 84.3062L28.7568 80.2493Z" fill="#222221"/>
<path d="M28.9662 52.383L32.7603 54.5889L30.1019 59.1612L43.4542 66.9242L40.6827 71.6911L27.3304 63.9282L24.7003 68.4519L20.9062 66.246L28.9662 52.383Z" fill="#222221"/>
<path d="M34.7767 43.366L44.8005 52.417L41.8078 56.0707L30.9598 48.0261L34.7767 43.366ZM49.264 59.1071C48.6428 59.8655 47.9368 60.3109 47.1461 60.4431C46.3528 60.5488 45.6353 60.3388 44.9935 59.8132C44.3517 59.2875 44.0045 58.6254 43.9519 57.8268C43.9112 57.0136 44.2015 56.2278 44.8227 55.4694C45.432 54.7255 46.1333 54.3007 46.9266 54.195C47.7319 54.0747 48.4554 54.2774 49.0972 54.8031C49.7243 55.3168 50.0583 55.9802 50.0989 56.7934C50.1516 57.592 49.8733 58.3632 49.264 59.1071Z" fill="#222221"/>
<path d="M57.2776 25.077L60.0346 40.1015L63.8989 45.106L59.4976 48.5045L55.6334 43.5L41.7949 37.032L46.7994 33.1678L54.262 37.1055L52.3401 28.8895L57.2776 25.077Z" fill="#222221"/>
<path d="M77.7619 37.4955C76.0527 38.2455 74.3074 38.5377 72.526 38.3723C70.7369 38.1896 69.1089 37.5759 67.6417 36.5314C66.1843 35.462 65.0616 34.0296 64.2738 32.234C63.486 30.4385 63.1959 28.6511 63.4034 26.8717C63.6207 25.0676 64.2715 23.454 65.3561 22.0311C66.4406 20.6082 67.8375 19.5218 69.5467 18.7718C71.2732 18.0143 73.0185 17.7221 74.7827 17.8951C76.5641 18.0606 78.1836 18.678 79.641 19.7473C81.0909 20.7994 82.2097 22.2233 82.9975 24.0188C83.7854 25.8144 84.0793 27.6104 83.8793 29.407C83.6718 31.1863 83.0295 32.7961 81.9526 34.2363C80.868 35.6592 79.4712 36.7456 77.7619 37.4955ZM75.6939 32.7822C76.9888 32.2141 77.8218 31.3442 78.193 30.1725C78.5815 28.9932 78.4652 27.6957 77.844 26.28C77.2077 24.8297 76.3279 23.8569 75.2046 23.3615C74.0911 22.8413 72.8868 22.8652 71.592 23.4333C70.2798 24.0091 69.4382 24.8828 69.067 26.0545C68.6882 27.2089 68.817 28.5113 69.4533 29.9615C70.082 31.3945 70.9532 32.3711 72.0667 32.8913C73.1727 33.3943 74.3818 33.358 75.6939 32.7822Z" fill="#222221"/>
<path d="M89.1417 12.8179L91.1045 24.2168C91.2869 25.2759 91.6692 26.0518 92.2514 26.5446C92.8523 27.0342 93.6544 27.1927 94.6577 27.0199C95.661 26.8471 96.3639 26.4296 96.7664 25.7672C97.1843 25.0831 97.3036 24.2207 97.1245 23.1803L95.1617 11.7813L100.624 10.8407L102.587 22.2396C102.897 24.0419 102.782 25.6497 102.241 27.0629C101.697 28.4575 100.821 29.5935 99.6138 30.471C98.422 31.3267 97.0271 31.8921 95.4292 32.1672C93.8313 32.4424 92.3463 32.3728 90.9741 31.9587C89.6172 31.5227 88.4677 30.7354 87.5255 29.5967C86.6019 28.4549 85.9834 26.9735 85.6698 25.1526L83.707 13.7537L89.1417 12.8179Z" fill="#222221"/>
<path d="M118.827 11.417C120.907 11.6546 122.675 12.2837 124.134 13.3044C125.613 14.3084 126.689 15.6078 127.36 17.2027C128.032 18.7976 128.257 20.5597 128.037 22.489C127.819 24.3997 127.193 26.055 126.16 27.455C125.146 28.8572 123.803 29.8992 122.131 30.5811C120.48 31.2463 118.624 31.4612 116.564 31.2257L108.724 30.3298L110.988 10.5211L118.827 11.417ZM116.698 26.3167C118.309 26.5008 119.623 26.2051 120.642 25.4296C121.66 24.6541 122.261 23.4609 122.446 21.85C122.632 20.2203 122.316 18.9129 121.499 17.9276C120.684 16.9236 119.471 16.3295 117.86 16.1454L115.949 15.927L114.787 26.0983L116.698 26.3167Z" fill="#222221"/>
<path d="M138.271 15.4639L132.749 34.6215L127.423 33.0862L132.945 13.9286L138.271 15.4639Z" fill="#222221"/>
<path d="M149.652 20.072C151.535 20.9719 152.999 22.14 154.043 23.5765C155.111 25.0041 155.703 26.579 155.818 28.3013C155.933 30.0236 155.573 31.7586 154.738 33.5063C153.911 35.2371 152.783 36.5947 151.354 37.5792C149.942 38.5719 148.337 39.118 146.538 39.2175C144.765 39.3082 142.945 38.9077 141.079 38.0159L133.978 34.6231L142.551 16.6792L149.652 20.072ZM142.801 33.4302C144.26 34.1274 145.596 34.2759 146.808 33.8756C148.021 33.4754 148.976 32.5456 149.673 31.0864C150.378 29.6101 150.506 28.2746 150.055 27.0799C149.613 25.8682 148.662 24.9137 147.203 24.2165L145.472 23.3896L141.07 32.6033L142.801 33.4302Z" fill="#222221"/>
<path d="M170.98 33.2221L158.619 48.9729L154.24 45.5362L166.602 29.7855L170.98 33.2221Z" fill="#222221"/>
<path d="M184.506 46.8631L181.314 49.9089L177.643 46.0625L166.411 56.7813L162.585 52.7712L173.817 42.0525L170.185 38.247L173.377 35.2012L184.506 46.8631Z" fill="#222221"/>
<path d="M191.311 55.0568L179.83 62.1694L177.153 58.2791L187.896 50.0949L191.311 55.0568ZM172.163 64.5973C171.607 63.7897 171.376 62.9878 171.469 62.1915C171.588 61.4001 171.989 60.7692 172.672 60.2988C173.355 59.8285 174.088 59.679 174.87 59.8505C175.662 60.0374 176.336 60.5347 176.892 61.3423C177.437 62.1343 177.651 62.9261 177.532 63.7175C177.423 64.5245 177.027 65.1631 176.344 65.6335C175.676 66.0931 174.946 66.2295 174.154 66.0425C173.372 65.8711 172.708 65.3893 172.163 64.5973Z" fill="#222221"/>
<path d="M174.499 134.253C189.014 97.8913 171.303 56.6485 134.941 42.1344C98.5799 27.6203 57.3372 45.331 42.8231 81.6925C28.309 118.054 46.0197 159.297 82.3812 173.811C118.743 188.325 159.985 170.614 174.499 134.253Z" fill="#9989EA"/>
<path d="M67.9858 80.9912L58.3301 75.793" stroke="#222221" stroke-linecap="round" stroke-linejoin="round"/>
<path d="M65.1979 93.6367L54.7207 94.8621" stroke="#222221" stroke-linecap="round" stroke-linejoin="round"/>
<path d="M76.914 70.2582L70.625 61.0334" stroke="#222221" stroke-linecap="round" stroke-linejoin="round"/>
<path d="M63.4188 220.104C72.9668 208.441 81.7472 190.84 82.4744 174.626C83.0301 166.43 82.1737 158.198 79.9426 150.292C79.1163 147.651 78.0432 145.095 76.7375 142.656C72.9129 134.778 67.1356 130.091 58.3283 126.59C56.3302 125.913 54.6762 124.481 53.7198 122.6C52.7633 120.72 52.5804 118.54 53.21 116.526C53.8396 114.513 55.2318 112.825 57.0891 111.824C58.9464 110.823 61.1214 110.589 63.1495 111.17C69.8163 112.535 75.9907 115.676 81.02 120.261C82.3387 106.197 82.8333 92.0688 82.5013 77.9477C82.4741 77.6251 82.4741 77.3007 82.5013 76.9781C82.5458 75.1125 83.289 73.3317 84.5839 71.9879C85.8788 70.6442 87.6309 69.8356 89.4936 69.7222C91.3562 69.6087 93.1936 70.1987 94.642 71.3753C96.0904 72.5519 97.0443 74.2295 97.3148 76.0758V76.2105C98.1093 82.9149 98.5185 89.6594 98.5403 96.4108C99.2271 81.88 98.5403 67.9553 98.5403 67.9553C98.5403 67.6321 98.5403 67.3089 98.5403 66.9722C98.5876 65.1076 99.333 63.3286 100.629 61.987C101.925 60.6455 103.677 59.8391 105.539 59.7274C107.401 59.6157 109.237 60.2068 110.684 61.3837C112.131 62.5607 113.084 64.2378 113.354 66.0834V66.2181C114.489 76.5741 114.984 86.9903 114.835 97.4073C115.535 83.5903 115.307 72.3859 115.307 72.3859C115.213 71.4086 115.328 70.4225 115.643 69.4926C115.957 68.5626 116.465 67.7097 117.133 66.9899C117.801 66.2701 118.613 65.6996 119.517 65.3159C120.42 64.9323 121.395 64.7441 122.377 64.7637C124.009 64.7999 125.576 65.4073 126.807 66.4801C128.037 67.553 128.852 69.0233 129.11 70.6352V70.7699C129.11 70.7699 129.447 74.4598 129.514 80.7219C129.514 77.8669 133.487 76.3586 136.503 76.6818C138.117 76.8284 139.629 77.5346 140.778 78.6781C141.926 79.8216 142.639 81.3306 142.792 82.9439V83.0786C142.932 96.0241 141.863 108.954 139.601 121.701C139.601 121.701 144.799 180.7 122.269 221.1C122.269 221.1 116.397 235.038 93.1401 235.052C69.2903 235.038 63.4188 220.104 63.4188 220.104Z" fill="#8CE3A5"/>
<path d="M63.4188 220.104C72.9668 208.441 81.7472 190.84 82.4744 174.626C83.0301 166.43 82.1737 158.198 79.9426 150.292C79.1163 147.651 78.0432 145.095 76.7375 142.656C72.9129 134.778 67.1356 130.091 58.3283 126.59C56.3302 125.913 54.6762 124.481 53.7198 122.6C52.7633 120.72 52.5804 118.54 53.21 116.526C53.8396 114.513 55.2318 112.825 57.0891 111.824C58.9464 110.824 61.1214 110.589 63.1495 111.17C70.5293 112.517 80.5351 117.796 84.7772 124.839" stroke="#222221" stroke-linecap="round" stroke-linejoin="round"/>
<path d="M80.9805 120.261C82.2992 106.197 82.7938 92.0689 82.4618 77.9478C82.4347 77.6251 82.4347 77.3008 82.4618 76.9782C82.5063 75.1126 83.2495 73.3317 84.5444 71.988C85.8393 70.6443 87.5915 69.8357 89.4541 69.7222C91.3168 69.6088 93.1541 70.1987 94.6025 71.3754C96.0509 72.552 97.0048 74.2295 97.2754 76.0759V76.2106C97.2754 76.2106 99.3358 90.7143 98.1372 113.339" stroke="#222221" stroke-linecap="round" stroke-linejoin="round"/>
<path d="M98.418 96.4512C99.1182 81.9205 98.418 67.9958 98.418 67.9958C98.418 67.6726 98.418 67.3494 98.418 67.0127C98.4653 65.148 99.2107 63.369 100.507 62.0275C101.803 60.686 103.555 59.8796 105.417 59.7679C107.279 59.6562 109.115 60.2472 110.562 61.4242C112.009 62.6011 112.962 64.2783 113.231 66.1239V66.2586C114.853 81.3218 115.173 96.4967 114.188 111.615" stroke="#222221" stroke-linecap="round" stroke-linejoin="round"/>
<path d="M114.701 97.4478C115.401 83.6308 115.173 72.4264 115.173 72.4264C115.079 71.4491 115.194 70.463 115.509 69.5331C115.823 68.6031 116.331 67.7502 116.999 67.0304C117.667 66.3106 118.479 65.7401 119.383 65.3564C120.286 64.9728 121.261 64.7846 122.243 64.8042C123.875 64.8404 125.442 65.4478 126.673 66.5206C127.903 67.5935 128.718 69.0638 128.976 70.6757V70.8104C129.819 83.8409 129.368 96.9228 127.629 109.864" stroke="#222221" stroke-linecap="round" stroke-linejoin="round"/>
<path d="M129.406 80.7085C130.032 79.3111 131.104 78.1608 132.454 77.4375C133.803 76.7143 135.354 76.4589 136.865 76.7113C138.375 76.9638 139.759 77.7099 140.8 78.8328C141.841 79.9557 142.48 81.3921 142.617 82.917V83.0517C142.757 95.9972 141.688 108.928 139.426 121.675" stroke="#222221" stroke-linecap="round" stroke-linejoin="round"/>
<path d="M122.107 221.073C126.587 212.171 130.173 202.847 132.814 193.237C134.308 188.12 142.052 145.578 139.439 121.675" stroke="#222221" stroke-width="1.04" stroke-linecap="round" stroke-linejoin="round"/>
<path d="M220.361 170.775C204.618 187.339 184 179.676 184 179.676C154.225 168.431 159.531 140.622 159.531 140.622C161.786 127.874 162.854 114.945 162.723 101.999V101.865C162.583 100.344 161.943 98.9119 160.905 97.7921C159.866 96.6724 158.486 95.9277 156.979 95.6741C155.473 95.4205 153.925 95.6722 152.577 96.39C151.229 97.1079 150.156 98.2515 149.525 99.6428L149.445 99.7236C149.445 93.448 149.041 89.7581 149.041 89.7581V89.6234C148.816 87.7983 147.875 86.1374 146.425 85.0059C144.975 83.8745 143.136 83.3653 141.311 83.5903C139.486 83.8153 137.825 84.7561 136.693 86.2058C135.562 87.6554 135.052 89.4951 135.277 91.3202C135.277 91.3202 135.479 101.286 134.914 114.012L134.82 114.106C134.875 104.434 134.375 94.7672 133.325 85.1524V85.0178C133.055 83.1721 132.102 81.495 130.655 80.3181C129.208 79.1411 127.372 78.55 125.51 78.6618C123.648 78.7735 121.896 79.5798 120.6 80.9214C119.304 82.2629 118.559 84.0419 118.511 85.9066C118.484 86.2337 118.484 86.5625 118.511 86.8897C118.511 86.8897 119.158 100.141 118.511 114.281C118.465 107.871 118.06 101.469 117.299 95.1044V94.9698C117.029 93.1241 116.077 91.447 114.629 90.2701C113.182 89.0931 111.346 88.502 109.484 88.6137C107.623 88.7255 105.87 89.5318 104.574 90.8734C103.278 92.2149 102.533 93.9939 102.486 95.8586C102.465 96.186 102.465 96.5143 102.486 96.8417C102.825 110.963 102.331 125.092 101.004 139.154C95.9793 134.528 89.7862 131.362 83.0935 129.997C81.9002 129.734 80.6641 129.734 79.4709 129.997C77.6835 130.245 76.0347 131.097 74.7973 132.41C73.56 133.724 72.8083 135.421 72.6669 137.22C72.5255 139.019 73.0028 140.812 74.0198 142.303C75.0367 143.793 76.5323 144.892 78.2589 145.417C87.0662 148.931 92.8569 153.618 96.668 161.496C97.7637 163.845 98.6165 166.3 99.2133 168.822C104.81 190.811 118.699 209.782 137.971 221.76C137.971 221.76 155.559 233.88 178.371 234.082C201.184 234.284 216.079 226.985 221.142 224.022" fill="white"/>
<path d="M100.99 139.195C102.317 125.132 102.811 111.003 102.472 96.8821C102.472 96.5589 102.472 96.2357 102.472 95.899C102.519 94.0343 103.264 92.2553 104.56 90.9138C105.856 89.5723 107.608 88.7659 109.47 88.6542C111.332 88.5425 113.168 89.1335 114.615 90.3105C116.062 91.4874 117.015 93.1646 117.285 95.0102V95.1449C117.285 95.1449 119.346 109.635 118.16 132.259" stroke="#222221" stroke-linecap="round" stroke-linejoin="round"/>
<path d="M118.429 115.372C119.129 100.841 118.429 86.9301 118.429 86.9301C118.401 86.603 118.401 86.2742 118.429 85.947C118.473 84.0815 119.216 82.3006 120.511 80.9569C121.806 79.6131 123.558 78.8045 125.421 78.6911C127.284 78.5776 129.121 79.1676 130.569 80.3442C132.018 81.5209 132.972 83.1984 133.242 85.0448V85.1794C134.855 100.243 135.175 115.417 134.198 130.536" stroke="#222221" stroke-linecap="round" stroke-linejoin="round"/>
<path d="M134.725 116.369C135.411 102.565 135.156 91.3203 135.156 91.3203C135.156 91.024 135.156 90.7277 135.156 90.418C135.206 88.6901 135.9 87.0435 137.103 85.802C138.306 84.5605 139.93 83.814 141.655 83.7093C143.381 83.6046 145.083 84.1493 146.427 85.2363C147.771 86.3233 148.66 87.8739 148.919 89.583V89.7042C149.765 102.735 149.314 115.817 147.572 128.758" stroke="#222221" stroke-linecap="round" stroke-linejoin="round"/>
<path d="M149.43 99.6294C150.06 98.2382 151.133 97.0945 152.481 96.3767C153.83 95.6588 155.377 95.4071 156.884 95.6607C158.39 95.9143 159.77 96.659 160.809 97.7788C161.848 98.8985 162.487 100.33 162.627 101.851V101.973C162.754 109.958 162.358 117.943 161.442 125.876C161.442 125.876 159.032 142.629 159.166 145.646C159.172 152.838 161.346 159.862 165.405 165.8C169.464 171.737 175.218 176.314 181.917 178.931C188.617 181.549 195.95 182.086 202.959 180.472C209.968 178.858 216.328 175.169 221.208 169.886" stroke="#222221" stroke-linecap="round" stroke-linejoin="round"/>
<path d="M221.922 223.74C209.032 230.921 194.459 234.53 179.708 234.197C164.957 233.863 150.562 229.597 138.01 221.841C118.737 209.871 104.847 190.904 99.2527 168.916C98.6559 166.39 97.8031 163.931 96.7074 161.577C92.8963 153.712 87.1056 149.026 78.2983 145.511C76.5718 144.987 75.0759 143.89 74.0581 142.4C73.0403 140.911 72.5617 139.118 72.7016 137.32C72.8414 135.521 73.5912 133.824 74.8269 132.509C76.0626 131.195 77.7102 130.342 79.4968 130.091C80.6946 129.829 81.9351 129.829 83.1329 130.091C90.4992 131.438 100.519 136.717 104.68 143.747" stroke="#222221" stroke-miterlimit="10"/>
<path d="M108.531 191.527C113.871 194.153 119.689 195.664 125.632 195.967C131.575 196.271 137.517 195.361 143.096 193.293C148.676 191.226 153.776 188.043 158.085 183.94C162.395 179.837 165.824 174.899 168.162 169.428" stroke="#222221" stroke-linecap="round" stroke-linejoin="round"/>
<path d="M141.041 216.845C153.147 224.287 167.057 228.277 181.266 228.386" stroke="#222221" stroke-linecap="round" stroke-linejoin="round"/>
<path d="M184.982 228.238C185.626 228.249 186.27 228.213 186.908 228.13" stroke="#222221" stroke-linecap="round" stroke-linejoin="round"/>
</svg>
