<svg width="30" height="30" viewBox="0 0 30 30" fill="none" xmlns="http://www.w3.org/2000/svg">
<path d="M20.8594 10.5469C20.8594 7.31602 18.2309 4.6875 15 4.6875C11.7691 4.6875 9.14062 7.31602 9.14062 10.5469C9.14062 13.7777 11.7691 16.4062 15 16.4062C18.2309 16.4062 20.8594 13.7777 20.8594 10.5469ZM11.4844 10.5469C11.4844 8.60836 13.0615 7.03125 15 7.03125C16.9385 7.03125 18.5156 8.60836 18.5156 10.5469C18.5156 12.4854 16.9385 14.0625 15 14.0625C13.0615 14.0625 11.4844 12.4854 11.4844 10.5469Z" fill="#4AC58A"/>
<path d="M14.2283 26.6631L15 27.3384L15.7717 26.6631C16.1708 26.3139 25.5469 18.0239 25.5469 10.5469C25.5469 4.73133 20.8155 0 15 0C9.18445 0 4.45312 4.73133 4.45312 10.5469C4.45312 18.0239 13.8292 26.3139 14.2283 26.6631ZM15 2.34375C19.5232 2.34375 23.2031 6.02367 23.2031 10.5469C23.2031 15.8295 17.1758 22.0931 14.9995 24.1822C12.8223 22.0946 6.79688 15.8379 6.79688 10.5469C6.79688 6.02367 10.4768 2.34375 15 2.34375Z" fill="#4AC58A"/>
<path d="M26.5932 23.074C25.9576 22.5961 25.0768 22.1722 23.9753 21.8142L23.2509 24.0432C24.9313 24.5893 25.4682 25.136 25.5423 25.3124C25.4629 25.494 24.8147 26.1617 22.6437 26.7644C20.5717 27.3396 17.8571 27.6564 15 27.6564C12.1429 27.6564 9.42826 27.3396 7.35627 26.7644C5.18519 26.1616 4.53709 25.494 4.45764 25.3124C4.5317 25.136 5.06865 24.5894 6.74912 24.0432L6.02473 21.8142C4.92316 22.1722 4.04232 22.5961 3.40682 23.074C2.33443 23.8805 2.10938 24.7365 2.10938 25.3126C2.10938 25.9151 2.35482 26.8075 3.52418 27.6369C4.21857 28.1294 5.17828 28.5615 6.37682 28.921C8.69648 29.6168 11.7589 30.0001 15 30.0001C18.2411 30.0001 21.3035 29.6168 23.6231 28.921C24.8217 28.5615 25.7814 28.1294 26.4758 27.6369C27.6452 26.8075 27.8906 25.9151 27.8906 25.3126C27.8906 24.7365 27.6655 23.8805 26.5932 23.074Z" fill="#4AC58A"/>
</svg>
