<svg width="16" height="16" viewBox="0 0 16 16" fill="none" xmlns="http://www.w3.org/2000/svg">
<path fill-rule="evenodd" clip-rule="evenodd" d="M7.99978 1.37695C4.3421 1.37695 1.37695 4.3421 1.37695 7.99978C1.37695 11.6574 4.3421 14.6226 7.99978 14.6226C11.6574 14.6226 14.6226 11.6574 14.6226 7.99978C14.6226 4.3421 11.6574 1.37695 7.99978 1.37695ZM2.32695 7.99978C2.32695 4.86677 4.86677 2.32695 7.99978 2.32695C11.1328 2.32695 13.6726 4.86677 13.6726 7.99978C13.6726 11.1328 11.1328 13.6726 7.99978 13.6726C4.86677 13.6726 2.32695 11.1328 2.32695 7.99978ZM8.7498 5.00005C8.7498 5.41426 8.41401 5.75005 7.9998 5.75005C7.58558 5.75005 7.2498 5.41426 7.2498 5.00005C7.2498 4.58583 7.58558 4.25005 7.9998 4.25005C8.41401 4.25005 8.7498 4.58583 8.7498 5.00005ZM6.49991 6.50005H6.99991H7.99991C8.27606 6.50005 8.49991 6.7239 8.49991 7.00005V10.5H8.99991H9.49991V11.5H8.99991H7.99991H6.99991H6.49991V10.5H6.99991H7.49991V7.50005H6.99991H6.49991V6.50005Z" fill="#36384B"/>
</svg>
