<svg width="22" height="22" viewBox="0 0 22 22" fill="none" xmlns="http://www.w3.org/2000/svg">
<path d="M16.5 2.26875C14.9187 1.27187 13.0281 0.6875 11 0.6875C8.97187 0.6875 7.08125 1.27187 5.5 2.26875V19.6969C7.08125 20.6938 8.97187 21.2781 11 21.2781C13.0281 21.2781 14.9187 20.6938 16.5 19.6969V2.26875Z" fill="#F9F9F9"/>
<path d="M16.5 2.2688V19.6969C19.3875 17.9094 21.3125 14.6094 21.3125 10.9657C21.3125 7.32192 19.3875 4.09067 16.5 2.2688Z" fill="#ED4C5C"/>
<path d="M5.5 2.2688C2.6125 4.09067 0.6875 7.39067 0.6875 11C0.6875 14.6094 2.6125 17.9094 5.5 19.7313V2.2688Z" fill="#ED4C5C"/>
<path d="M14.7469 10.8625C14.6094 10.7938 14.575 10.6562 14.6094 10.5875L14.9531 9.35L13.75 9.59062C13.7156 9.59062 13.5781 9.59063 13.5438 9.35L13.4406 8.9375L12.6156 9.9C12.6156 9.9 12.0656 10.4844 12.2375 9.59062L12.5812 7.7L11.9281 8.04375C11.8938 8.04375 11.7563 8.07812 11.5844 7.73438L11 6.53125L10.3813 7.66562C10.2094 8.00937 10.0719 7.975 10.0375 7.975L9.38437 7.63125L9.72812 9.52188C9.9 10.4156 9.35 9.83125 9.35 9.83125L8.525 8.86875L8.42188 9.28125C8.35312 9.52187 8.25 9.52188 8.21562 9.52188L7.0125 9.28125L7.35625 10.5188C7.35625 10.6219 7.35625 10.725 7.21875 10.7937L6.875 11C6.875 11 8.25 12.1 8.69687 12.4781C8.8 12.5469 9.00625 12.7531 8.9375 12.9937L8.76562 13.475L10.6562 13.2C10.7594 13.2 10.9656 13.2 10.9312 13.5094L10.8281 15.4688H11.1719L11.0688 13.5094C11.0688 13.2 11.275 13.2 11.3438 13.2L13.2344 13.475L13.0625 12.9937C12.9938 12.7531 13.2 12.5469 13.3031 12.4781C13.75 12.1 15.125 11 15.125 11L14.7469 10.8625Z" fill="#ED4C5C"/>
</svg>
