<svg width="40" height="40" viewBox="0 0 40 40" fill="none" xmlns="http://www.w3.org/2000/svg">
<path d="M18.0286 13.2925L20.9422 14.7171C21.4074 14.9446 21.2437 15.6474 20.7269 15.6474H17.6192C16.972 15.6474 16.4473 16.1721 16.4473 16.8193C16.4473 17.4664 16.972 17.9911 17.6192 17.9911H18.8731V18.8154C18.8731 19.4625 19.3978 19.9872 20.045 19.9872C20.6922 19.9872 21.2169 19.4625 21.2169 18.8154V17.9479C22.5466 17.715 23.5606 16.5527 23.5606 15.1574C23.5606 14.0829 22.9369 13.0836 21.9717 12.6117L19.0581 11.1871C18.6056 10.9658 18.7294 10.1787 19.2734 10.1787H22.3888C23.036 10.1787 23.5607 9.65402 23.5607 9.00684C23.5607 8.35965 23.036 7.83496 22.3888 7.83496H21.1271V7.08887C21.1271 6.44168 20.6024 5.91699 19.9552 5.91699C19.3081 5.91699 18.7834 6.44168 18.7834 7.08887V7.87824C16.041 8.35856 15.5961 12.1032 18.0286 13.2925Z" fill="#A3ACFF"/>
<path d="M27.6777 2.52914C25.5281 0.940625 22.872 0 20 0C17.128 0 14.4719 0.940547 12.3223 2.52906C5.83133 1.44156 0 6.46805 0 12.9462C0 19.4237 5.8307 24.4512 12.3222 23.3634C13.2612 24.0573 14.297 24.6272 15.4052 25.0493V30.5469H12.9648C11.9267 30.5469 11.4016 31.8029 12.1306 32.5418L19.1452 39.6512C19.6027 40.1148 20.3518 40.117 20.8117 39.6531L27.8596 32.5437C28.5915 31.8055 28.0665 30.5468 27.0273 30.5468H24.7802V24.9774C25.8188 24.5634 26.7912 24.0184 27.6777 23.3633C34.1687 24.451 40 19.4245 40 12.9462C40 6.46859 34.1693 1.44156 27.6777 2.52914ZM30.6025 12.9462C30.6025 18.7925 25.8463 23.5487 20 23.5487C14.1537 23.5487 9.3975 18.7925 9.3975 12.9462C9.3975 7.1 14.1537 2.34375 20 2.34375C25.8463 2.34375 30.6025 7.10008 30.6025 12.9462ZM2.34375 12.9462C2.34375 8.60711 5.72359 5.04297 9.98883 4.74695C8.15563 6.98117 7.05375 9.83742 7.05375 12.9462C7.05375 16.0552 8.15555 18.9113 9.98883 21.1456C5.72359 20.8496 2.34375 17.2855 2.34375 12.9462ZM23.6084 32.8906H24.2155L19.9815 37.1616L15.7674 32.8906H16.5772C17.2244 32.8906 17.7491 32.3659 17.7491 31.7187V25.6962C19.247 25.9599 20.8379 25.9673 22.4366 25.6615V31.7187C22.4366 32.3659 22.9612 32.8906 23.6084 32.8906ZM30.0112 21.1456C31.8445 18.9114 32.9463 16.0552 32.9463 12.9462C32.9463 9.83734 31.8445 6.98117 30.0112 4.74695C34.2764 5.04297 37.6562 8.60711 37.6562 12.9462C37.6562 17.2855 34.2764 20.8496 30.0112 21.1456Z" fill="#A3ACFF"/>
</svg>
