<svg width="40" height="40" viewBox="0 0 40 40" fill="none" xmlns="http://www.w3.org/2000/svg">
<path d="M32.0766 21.8848V9.44453C32.0766 9.13742 31.9534 8.83258 31.7256 8.60883L23.4602 0.343281C23.2493 0.132344 22.9444 -0.000156112 22.6312 1.38041e-07H1.17188C0.524687 1.38041e-07 0 0.524688 0 1.17188V38.8281C0 39.4753 0.524687 40 1.17188 40H30.9048C35.9199 40 40 35.9199 40 30.9047C40 26.2866 36.5403 22.4614 32.0766 21.8848ZM23.8031 4.00078L28.0749 8.27258H23.8031V4.00078ZM2.34375 37.6562V2.34375H21.4594V9.44453C21.4594 10.0917 21.9841 10.6164 22.6312 10.6164H29.7328V21.8848C25.2691 22.4615 21.8094 26.2866 21.8094 30.9048C21.8094 33.5809 22.9713 35.9905 24.817 37.6563H2.34375V37.6562ZM30.9072 37.6562C30.9064 37.6562 30.9055 37.6562 30.9048 37.6562C30.9022 37.6562 30.8997 37.6562 30.8971 37.6562C27.1778 37.6521 24.1532 34.6251 24.1532 30.9048C24.1532 27.184 27.1787 24.1566 30.8988 24.1533C30.9008 24.1533 30.9027 24.1536 30.9048 24.1536C30.9068 24.1536 30.9087 24.1533 30.9108 24.1533C34.6309 24.1565 37.6562 27.1839 37.6562 30.9047C37.6562 34.6267 34.6289 37.6549 30.9072 37.6562Z" fill="#A3ACFF"/>
<path d="M34.1404 29.7328H32.0766V27.6689C32.0766 27.0218 31.5519 26.4971 30.9047 26.4971C30.2575 26.4971 29.7329 27.0218 29.7329 27.6689V29.7328H27.6689C27.0218 29.7328 26.4971 30.2575 26.4971 30.9046C26.4971 31.5518 27.0218 32.0765 27.6689 32.0765H29.7329V34.1404C29.7329 34.7876 30.2575 35.3123 30.9047 35.3123C31.5519 35.3123 32.0766 34.7876 32.0766 34.1404V32.0765H34.1404C34.7876 32.0765 35.3123 31.5518 35.3123 30.9046C35.3123 30.2575 34.7876 29.7328 34.1404 29.7328Z" fill="#A3ACFF"/>
<path d="M18.4265 28.2812H5.85937C5.21219 28.2812 4.6875 28.8059 4.6875 29.4531C4.6875 30.1003 5.21219 30.625 5.85937 30.625H18.4265C19.0737 30.625 19.5984 30.1003 19.5984 29.4531C19.5984 28.8059 19.0737 28.2812 18.4265 28.2812Z" fill="#A3ACFF"/>
<path d="M18.4265 23.5938H5.85937C5.21219 23.5938 4.6875 24.1184 4.6875 24.7656C4.6875 25.4128 5.21219 25.9375 5.85937 25.9375H18.4265C19.0737 25.9375 19.5984 25.4128 19.5984 24.7656C19.5984 24.1184 19.0737 23.5938 18.4265 23.5938Z" fill="#A3ACFF"/>
<path d="M25.436 18.9062H19.4766C18.8294 18.9062 18.3047 19.4309 18.3047 20.0781C18.3047 20.7253 18.8294 21.25 19.4766 21.25H25.4359C26.0831 21.25 26.6078 20.7253 26.6078 20.0781C26.6078 19.4309 26.0832 18.9062 25.436 18.9062Z" fill="#A3ACFF"/>
<path d="M5.85938 21.25H14.7891C15.4363 21.25 15.9609 20.7253 15.9609 20.0781C15.9609 19.4309 15.4363 18.9062 14.7891 18.9062H5.85938C5.21219 18.9062 4.6875 19.4309 4.6875 20.0781C4.6875 20.7253 5.21219 21.25 5.85938 21.25Z" fill="#A3ACFF"/>
<path d="M14.3252 15.3906C14.3252 16.0378 14.8499 16.5625 15.4971 16.5625H25.4361C26.0833 16.5625 26.608 16.0378 26.608 15.3906C26.608 14.7434 26.0833 14.2188 25.4361 14.2188H15.4971C14.8499 14.2188 14.3252 14.7434 14.3252 15.3906Z" fill="#A3ACFF"/>
<path d="M5.85938 16.5625H10.8828C11.53 16.5625 12.0547 16.0378 12.0547 15.3906C12.0547 14.7434 11.53 14.2188 10.8828 14.2188H5.85938C5.21219 14.2188 4.6875 14.7434 4.6875 15.3906C4.6875 16.0378 5.21219 16.5625 5.85938 16.5625Z" fill="#A3ACFF"/>
<path d="M5.85937 11.875H18.4265C19.0737 11.875 19.5984 11.3503 19.5984 10.7031C19.5984 10.0559 19.0737 9.53125 18.4265 9.53125H5.85937C5.21219 9.53125 4.6875 10.0559 4.6875 10.7031C4.6875 11.3503 5.21219 11.875 5.85937 11.875Z" fill="#A3ACFF"/>
</svg>
