<svg width="40" height="40" viewBox="0 0 40 40" fill="none" xmlns="http://www.w3.org/2000/svg">
<g clip-path="url(#clip0)">
<path d="M33.3888 22.1868C32.8005 19.8577 30.9997 18.052 28.7223 17.4263C29.3287 16.5898 29.6875 15.5629 29.6875 14.4531V11.3035C31.1173 10.5005 32.0312 8.98094 32.0312 7.29508C32.0312 5.85727 30.8615 4.6875 29.4237 4.6875H23.0469C21.1084 4.6875 19.5312 6.26461 19.5312 8.20312V14.4531C19.5312 15.5638 19.8906 16.5915 20.4978 17.4283C18.9759 17.8492 17.6719 18.7987 16.7969 20.067C15.9219 18.7987 14.6178 17.8492 13.0959 17.4283C13.7031 16.5915 14.0625 15.5638 14.0625 14.4531V12.5H14.4531C15.1003 12.5 15.625 11.9753 15.625 11.3281V9.76562C15.625 6.10398 12.646 3.125 8.98438 3.125C8.36789 3.125 7.77148 3.21125 7.20461 3.36914C6.50625 2.26445 5.28172 1.5625 3.90625 1.5625C1.75234 1.5625 0 3.31484 0 5.46875C0 7.0757 0.976953 8.46844 2.38102 9.06492C2.35672 9.29523 2.34375 9.52891 2.34375 9.76562V11.3281C2.34375 11.9753 2.86844 12.5 3.51562 12.5H3.90625V14.4531C3.90625 15.5638 4.26562 16.5915 4.87281 17.4283C2.06687 18.2044 0 20.7787 0 23.8281V27.7344C0 28.3816 0.524687 28.9062 1.17188 28.9062H23.7018C23.6311 29.3387 23.5938 29.7823 23.5938 30.2344C23.5938 34.7576 27.2737 38.4375 31.7969 38.4375C36.3201 38.4375 40 34.7576 40 30.2344C40 26.2558 37.1527 22.9301 33.3888 22.1868ZM3.05656 6.77813C2.62703 6.49867 2.34375 6.01531 2.34375 5.46875C2.34375 4.60719 3.04469 3.90625 3.90625 3.90625C4.36039 3.90625 4.77305 4.09773 5.06039 4.41273C4.22016 5.03031 3.53086 5.84078 3.05656 6.77813ZM4.72328 10.1562H4.6875V9.76562C4.6875 7.39633 6.61508 5.46875 8.98438 5.46875C11.3537 5.46875 13.2812 7.39633 13.2812 9.76562V10.1562H13.0548L7.74383 8.63883C7.41328 8.54445 7.05789 8.59977 6.77187 8.79055L4.72328 10.1562ZM11.7188 12.212V14.4531C11.7188 15.9609 10.4921 17.1875 8.98438 17.1875C7.47664 17.1875 6.25 15.9609 6.25 14.4531V11.9553L7.62102 11.0413L11.7188 12.212ZM15.625 26.5625H2.34375V23.8281C2.34375 21.4588 4.27133 19.5312 6.64062 19.5312H11.3281C13.6974 19.5312 15.625 21.4588 15.625 23.8281V26.5625ZM21.875 8.20312C21.875 7.55695 22.4007 7.03125 23.0469 7.03125H29.4237C29.5691 7.03125 29.6875 7.14961 29.6875 7.29508C29.6875 8.21016 29.1387 9.02563 28.3052 9.375H21.875V8.20312ZM21.875 11.7188H27.3438V14.4531C27.3438 15.9609 26.1171 17.1875 24.6094 17.1875C23.1016 17.1875 21.875 15.9609 21.875 14.4531V11.7188ZM24.463 26.5625H17.9688V23.8281C17.9688 21.4588 19.8963 19.5312 22.2656 19.5312H26.9531C28.6957 19.5312 30.2103 20.5665 30.8812 22.0827C28.0691 22.3965 25.6821 24.1373 24.463 26.5625ZM31.7969 36.0938C28.566 36.0938 25.9375 33.4652 25.9375 30.2344C25.9375 27.0035 28.566 24.375 31.7969 24.375C35.0277 24.375 37.6562 27.0035 37.6562 30.2344C37.6562 33.4652 35.0277 36.0938 31.7969 36.0938Z" fill="#A3ACFF"/>
<path d="M34.1406 29.0625H32.9688V27.8906C32.9688 27.2434 32.4441 26.7188 31.7969 26.7188C31.1497 26.7188 30.625 27.2434 30.625 27.8906V29.0625H29.4531C28.8059 29.0625 28.2812 29.5872 28.2812 30.2344C28.2812 30.8816 28.8059 31.4062 29.4531 31.4062H30.625V32.5781C30.625 33.2253 31.1497 33.75 31.7969 33.75C32.4441 33.75 32.9688 33.2253 32.9688 32.5781V31.4062H34.1406C34.7878 31.4062 35.3125 30.8816 35.3125 30.2344C35.3125 29.5872 34.7878 29.0625 34.1406 29.0625Z" fill="#A3ACFF"/>
</g>
<defs>
<clipPath id="clip0">
<rect width="40" height="40" fill="white"/>
</clipPath>
</defs>
</svg>
