<svg width="40" height="40" viewBox="0 0 40 40" fill="none" xmlns="http://www.w3.org/2000/svg">
<g clip-path="url(#clip0)">
<path d="M37.6447 9.34822C37.6228 8.92682 37.3759 8.54971 36.9985 8.36104L20.5239 0.123691C20.194 -0.0412305 19.8057 -0.0412305 19.4758 0.123691L3.00115 8.36104C2.62373 8.54971 2.37685 8.92682 2.35498 9.34822C2.34248 9.58807 2.07154 15.2988 4.01693 21.9291C5.16803 25.852 6.86115 29.2784 9.04928 32.113C11.8067 35.685 15.3508 38.3128 19.583 39.9234C19.7173 39.9744 19.8585 39.9999 19.9998 39.9999C20.1412 39.9999 20.2823 39.9744 20.4166 39.9234C24.6489 38.3128 28.1929 35.685 30.9504 32.113C33.1385 29.2784 34.8316 25.852 35.9827 21.9291C37.9281 15.2988 37.6572 9.58807 37.6447 9.34822ZM33.7147 21.3341C31.3289 29.4078 26.7159 34.8678 19.9998 37.5697C13.2837 34.8678 8.67068 29.4078 6.28498 21.3341C4.81092 16.3455 4.67529 11.8042 4.68217 10.141L19.9998 2.48205L35.3174 10.1408C35.3244 11.8049 35.1886 16.3459 33.7147 21.3341Z" fill="#A3ACFF"/>
<path d="M32.26 11.2325L20.524 5.36463C20.1941 5.19971 19.8058 5.19979 19.4759 5.36463L7.74012 11.2325C7.31949 11.4428 7.06528 11.8842 7.09457 12.3535C7.22192 14.3974 7.58457 17.5323 8.58934 20.8591C10.5981 27.5105 14.2625 32.1913 19.4806 34.7713C19.6443 34.8522 19.8221 34.8927 20 34.8927C20.1778 34.8927 20.3557 34.8522 20.5193 34.7713C25.7375 32.1913 29.4018 27.5105 31.4106 20.8591C32.4152 17.5326 32.778 14.3977 32.9054 12.3536C32.9348 11.8842 32.6806 11.4428 32.26 11.2325ZM29.1671 20.1814C27.4222 25.9592 24.3395 30.0676 20 32.4023C15.6606 30.0676 12.5779 25.9592 10.833 20.1814C10.0113 17.4607 9.64824 14.8696 9.49012 12.9779L20 7.72291L30.51 12.9779C30.3518 14.8697 29.9886 17.461 29.1671 20.1814Z" fill="#A3ACFF"/>
</g>
<defs>
<clipPath id="clip0">
<rect width="40" height="40" fill="white"/>
</clipPath>
</defs>
</svg>
