<svg width="40" height="40" viewBox="0 0 40 40" fill="none" xmlns="http://www.w3.org/2000/svg">
<path d="M34.6063 0H5.37567C3.4668 0 1.91406 1.55273 1.91406 3.46161V36.5384C1.91406 38.4473 3.4668 40 5.37567 40H34.6063C36.5152 40 38.0679 38.4473 38.0679 36.5384V3.46161C38.0679 1.55273 36.5152 0 34.6063 0V0ZM4.2218 3.46161C4.2218 2.82532 4.73938 2.30774 5.37567 2.30774H34.6063C35.2426 2.30774 35.7602 2.82532 35.7602 3.46161V8.07678H4.2218V3.46161ZM35.7602 36.5384C35.7602 37.1747 35.2426 37.6923 34.6063 37.6923H5.37567C4.73938 37.6923 4.2218 37.1747 4.2218 36.5384V10.3845H35.7602V36.5384Z" fill="#A3ACFF"/>
<path d="M27.6822 4.03833H25.3751C24.7379 4.03833 24.2212 4.55499 24.2212 5.1922C24.2212 5.82941 24.7379 6.34607 25.3751 6.34607H27.6822C28.3194 6.34607 28.8361 5.82941 28.8361 5.1922C28.8361 4.55499 28.3194 4.03833 27.6822 4.03833Z" fill="#A3ACFF"/>
<path d="M33.8375 4.03833H31.5303C30.8931 4.03833 30.3765 4.55499 30.3765 5.1922C30.3765 5.82941 30.8931 6.34607 31.5303 6.34607H33.8375C34.4747 6.34607 34.991 5.82941 34.991 5.1922C34.991 4.55499 34.4747 4.03833 33.8375 4.03833Z" fill="#A3ACFF"/>
<path d="M8.8374 24.0384C8.8374 30.1886 13.8408 35.1923 19.991 35.1923C26.1415 35.1923 31.1448 30.1886 31.1448 24.0384C31.1448 23.739 31.1326 23.4424 31.1094 23.1491C31.1094 23.1476 31.1091 23.1461 31.1091 23.1448C30.6523 17.4109 25.8406 12.8845 19.991 12.8845C14.1417 12.8845 9.32996 17.4109 8.87311 23.1448C8.8728 23.1461 8.8728 23.1476 8.8728 23.1491C8.84961 23.4424 8.8374 23.739 8.8374 24.0384ZM19.991 32.8845C15.3114 32.8845 11.4695 29.2319 11.165 24.6283C11.414 24.7308 11.6346 24.8663 11.8864 25.0211C12.567 25.4401 13.4144 25.9616 14.991 25.9616C16.5675 25.9616 17.4147 25.4404 18.0955 25.0214C18.6598 24.6741 19.0672 24.4232 19.9907 24.4232C20.9141 24.4232 21.3218 24.6741 21.8861 25.0214C22.567 25.4401 23.4144 25.9616 24.991 25.9616C26.5675 25.9616 27.415 25.4404 28.0958 25.0214C28.3476 24.8663 28.5682 24.7308 28.817 24.6283C28.5127 29.2319 24.6708 32.8845 19.991 32.8845ZM19.991 15.1923C24.2604 15.1923 27.8331 18.2324 28.658 22.2617C27.8782 22.4466 27.3439 22.7744 26.8864 23.0557C26.3221 23.403 25.9144 23.6539 24.991 23.6539C24.0675 23.6539 23.6598 23.403 23.0955 23.0557C22.4147 22.6367 21.5675 22.1152 19.9907 22.1152C18.4141 22.1152 17.567 22.6367 16.8861 23.0557C16.3218 23.403 15.9141 23.6539 14.991 23.6539C14.0675 23.6539 13.6598 23.403 13.0955 23.0557C12.6381 22.774 12.104 22.4463 11.3243 22.2617C12.1492 18.2324 15.7219 15.1923 19.991 15.1923Z" fill="#A3ACFF"/>
</svg>
