<svg width="130" height="130" viewBox="0 0 130 130" fill="none" xmlns="http://www.w3.org/2000/svg">
<g clip-path="url(#clip0_84:1760)">
<path d="M10.7059 107.661C-4.83368 101.225 -1.82261 68.3057 9.3386 73.7108C13.4773 75.7149 14.6833 81.9737 19.6716 83.1922C23.1026 84.348 34.5213 80.7148 21.2712 59.1973C-7.57663 12.3493 88.91 -25.3327 74.1964 41.5082C72.575 47.7934 78.7459 50.0729 84.3247 50.7072C178.842 61.4517 108.426 157.712 37.2924 112.783C25.4114 105.278 18.3327 110.82 10.7059 107.661Z" fill="#F7F8FC"/>
<g opacity="0.1">
<path opacity="0.1" d="M122.547 67.4431L90.3118 14.6281C89.2233 12.8447 86.6332 12.8447 85.5447 14.6281L56.0298 62.9853C51.796 58.0595 45.5204 54.9393 38.5156 54.9393C25.7655 54.9393 15.4295 65.2753 15.4295 78.0255C15.4295 90.7754 25.7652 101.111 38.5151 101.112H15.3076C13.7654 101.112 12.5151 102.362 12.5151 103.904V109.798C12.5151 111.34 13.7654 112.59 15.3076 112.59C13.7654 112.59 12.5151 113.84 12.5151 115.382V121.276C12.5151 122.818 13.7654 124.068 15.3076 124.068H99.6116C101.154 124.068 102.404 122.818 102.404 121.276V69.1403L119.762 71.6613C122.102 72.0013 123.779 69.4612 122.547 67.4431ZM73.4524 69.1403V89.6335H58.4742C60.462 86.2231 61.6018 82.2576 61.6018 78.0255C61.6018 75.5826 61.2212 73.2287 60.5179 71.0187L73.4524 69.1403Z" fill="#434DA0"/>
</g>
<path d="M122.547 61.3494L90.3112 8.53436C89.2228 6.75092 86.6327 6.75092 85.5442 8.53436L53.3087 61.3494C52.077 63.3674 53.7538 65.9075 56.0936 65.5675L73.4519 63.0465V115.182C73.4519 116.724 74.7021 117.975 76.2443 117.975H99.6108C101.153 117.975 102.403 116.724 102.403 115.182V63.0465L119.762 65.5675C122.102 65.9075 123.778 63.3674 122.547 61.3494Z" fill="white"/>
<path d="M81.734 117.975V53.1547L66.3188 55.3908L87.9273 20.0293L109.536 55.3908L94.1208 53.1547V117.975H81.734Z" fill="#A3ACFF"/>
<path d="M49.0415 95.0181H87.8582C89.4004 95.0181 90.6506 96.2683 90.6506 97.8105V103.704C90.6506 105.246 89.4004 106.496 87.8582 106.496H49.0415C47.4993 106.496 46.249 105.246 46.249 103.704V97.8105C46.249 96.2683 47.4993 95.0181 49.0415 95.0181Z" fill="white"/>
<path d="M84.8115 106.497H80.6284V95.0182H84.8115V106.497Z" fill="#A3ACFF"/>
<path d="M75.2979 106.497H71.1147V95.0182H75.2979V106.497Z" fill="#A3ACFF"/>
<path d="M65.7847 106.497H61.6016V95.0182H65.7847V106.497Z" fill="#A3ACFF"/>
<path d="M56.272 106.497H52.0889V95.0182H56.272V106.497Z" fill="#A3ACFF"/>
<path d="M49.0415 106.496H87.8582C89.4004 106.496 90.6506 107.746 90.6506 109.289V115.182C90.6506 116.724 89.4004 117.974 87.8582 117.974H49.0415C47.4993 117.974 46.249 116.724 46.249 115.182V109.289C46.249 107.746 47.4993 106.496 49.0415 106.496Z" fill="#A3ACFF"/>
<path d="M84.8115 117.975H80.6284V106.496H84.8115V117.975Z" fill="white"/>
<path d="M75.2979 117.975H71.1147V106.496H75.2979V117.975Z" fill="white"/>
<path d="M65.7847 117.975H61.6016V106.496H65.7847V117.975Z" fill="white"/>
<path d="M56.272 117.975H52.0889V106.496H56.272V117.975Z" fill="white"/>
<path d="M54.1243 117.974H15.3076C13.7654 117.974 12.5151 116.724 12.5151 115.182V109.289C12.5151 107.746 13.7654 106.496 15.3076 106.496H54.1243C55.6665 106.496 56.9167 107.746 56.9167 109.289V115.182C56.9167 116.724 55.6665 117.974 54.1243 117.974Z" fill="white"/>
<path d="M18.3545 106.496H22.5376V117.974H18.3545V106.496Z" fill="#A3ACFF"/>
<path d="M27.8677 106.496H32.0508V117.974H27.8677V106.496Z" fill="#A3ACFF"/>
<path d="M37.3804 106.496H41.5635V117.974H37.3804V106.496Z" fill="#A3ACFF"/>
<path d="M46.8936 106.496H51.0767V117.974H46.8936V106.496Z" fill="#A3ACFF"/>
<path d="M54.1243 106.496H15.3076C13.7654 106.496 12.5151 105.246 12.5151 103.704V97.8105C12.5151 96.2683 13.7654 95.0181 15.3076 95.0181H54.1243C55.6665 95.0181 56.9167 96.2683 56.9167 97.8105V103.704C56.9167 105.246 55.6665 106.496 54.1243 106.496Z" fill="#A3ACFF"/>
<path d="M18.3545 95.0181H22.5376V106.496H18.3545V95.0181Z" fill="white"/>
<path d="M27.8677 95.0181H32.0508V106.496H27.8677V95.0181Z" fill="white"/>
<path d="M37.3804 95.0181H41.5635V106.496H37.3804V95.0181Z" fill="white"/>
<path d="M46.8936 95.0181H51.0767V106.496H46.8936V95.0181Z" fill="white"/>
<path d="M82.0183 95.0179H43.2016C41.6594 95.0179 40.4092 93.7677 40.4092 92.2254V86.332C40.4092 84.7898 41.6594 83.5396 43.2016 83.5396H82.0183C83.5605 83.5396 84.8108 84.7898 84.8108 86.332V92.2254C84.8108 93.7677 83.5605 95.0179 82.0183 95.0179Z" fill="#A3ACFF"/>
<path d="M46.2485 83.5396H50.4316V95.0179H46.2485V83.5396Z" fill="white"/>
<path d="M55.7617 83.5396H59.9448V95.0179H55.7617V83.5396Z" fill="white"/>
<path d="M65.2749 83.5396H69.458V95.0179H65.2749V83.5396Z" fill="white"/>
<path d="M74.7881 83.5396H78.9712V95.0179H74.7881V83.5396Z" fill="white"/>
<path d="M38.5156 95.0176C51.2659 95.0176 61.6021 84.6814 61.6021 71.9312C61.6021 59.1809 51.2659 48.8447 38.5156 48.8447C25.7653 48.8447 15.4292 59.1809 15.4292 71.9312C15.4292 84.6814 25.7653 95.0176 38.5156 95.0176Z" fill="#A3ACFF"/>
<path d="M123.631 60.6877L91.3952 7.8727C90.6515 6.65445 89.3553 5.92676 87.9278 5.92676C86.5004 5.92676 85.2042 6.6542 84.4607 7.8727L58.3383 50.6719C57.9732 51.2703 58.1621 52.0516 58.7606 52.417C59.359 52.7821 60.1403 52.5932 60.5057 51.9947L86.6281 9.19555C86.9109 8.73191 87.3847 8.46582 87.9278 8.46582C88.4712 8.46582 88.9447 8.73166 89.2278 9.19555L121.463 62.0106C121.779 62.5275 121.768 63.1377 121.434 63.643C121.101 64.1485 120.543 64.3976 119.944 64.311L102.586 61.7899C102.221 61.7374 101.852 61.8453 101.573 62.0862C101.294 62.3275 101.134 62.6779 101.134 63.0463V74.1722C101.134 74.8732 101.702 75.4417 102.404 75.4417C103.105 75.4417 103.673 74.8732 103.673 74.1722V64.5133L119.579 66.8236C121.154 67.0524 122.676 66.3696 123.553 65.0417C124.43 63.7143 124.459 62.0459 123.631 60.6877Z" fill="#434DA0"/>
<path d="M102.404 79.6875C101.703 79.6875 101.134 80.256 101.134 80.957V115.182C101.134 116.021 100.451 116.704 99.6111 116.704H91.6212C91.8124 116.234 91.92 115.72 91.92 115.182V109.288C91.92 108.206 91.4922 107.224 90.8003 106.496C91.4922 105.767 91.92 104.785 91.92 103.703V97.8098C91.92 95.5701 90.0977 93.7478 87.858 93.7478H85.7813C85.9725 93.2771 86.0802 92.7637 86.0802 92.2249V86.3315C86.0802 84.0917 84.2579 82.2695 82.0182 82.2695H74.7214V63.0457C74.7214 62.677 74.5612 62.3266 74.2824 62.0857C74.0036 61.8447 73.6347 61.7368 73.2693 61.7894L61.3723 63.5172C57.9395 54.2209 48.989 47.5752 38.5152 47.5752C25.0853 47.5752 14.1592 58.501 14.1592 71.9309C14.1592 81.477 19.6806 89.7566 27.6967 93.7478H15.3071C13.0674 93.7478 11.2451 95.5701 11.2451 97.8098V103.703C11.2451 104.785 11.673 105.767 12.3648 106.496C11.673 107.224 11.2451 108.206 11.2451 109.288V115.182C11.2451 117.421 13.0674 119.244 15.3071 119.244H99.6111C101.851 119.244 103.673 117.421 103.673 115.182V80.957C103.673 80.256 103.105 79.6875 102.404 79.6875ZM57.8869 116.705C58.0781 116.234 58.1858 115.721 58.1858 115.182V109.288C58.1858 108.75 58.0781 108.236 57.8869 107.765H87.858C88.6977 107.765 89.381 108.448 89.381 109.288V115.182C89.381 116.021 88.6977 116.705 87.858 116.705H57.8869ZM89.3812 97.81V103.703C89.3812 104.543 88.698 105.226 87.8583 105.226H57.8869C58.0781 104.756 58.1858 104.242 58.1858 103.703V97.81C58.1858 97.2715 58.0781 96.7581 57.8869 96.2871H87.8583C88.698 96.2871 89.3812 96.9704 89.3812 97.81ZM83.5414 86.3317V92.2251C83.5414 93.0648 82.8581 93.7481 82.0184 93.7481H49.3338C53.3821 91.7323 56.7934 88.6232 59.1791 84.8088H82.0184C82.8581 84.8088 83.5414 85.492 83.5414 86.3317ZM72.1826 64.5133V82.2697H60.5646C62.0429 79.1297 62.8711 75.6255 62.8711 71.9312C62.8711 69.8763 62.6142 67.8803 62.1328 65.9727L72.1826 64.5133ZM16.6988 71.9312C16.6988 59.9013 26.4858 50.1145 38.5157 50.1145C50.5455 50.1145 60.3323 59.9013 60.3323 71.9312C60.3323 83.961 50.5455 93.7481 38.5157 93.7481C26.4858 93.7481 16.6988 83.961 16.6988 71.9312ZM13.7842 97.81C13.7842 96.9704 14.4674 96.2871 15.3071 96.2871H54.1238C54.9635 96.2871 55.6467 96.9701 55.6467 97.81V103.703C55.6467 104.543 54.9635 105.226 54.1238 105.226H15.3071C14.4674 105.226 13.7842 104.543 13.7842 103.703V97.81ZM13.7842 115.182V109.288C13.7842 108.449 14.4674 107.765 15.3071 107.765H54.1228H54.124H54.1266C54.9652 107.767 55.647 108.449 55.647 109.288V115.182C55.647 116.021 54.9637 116.705 54.124 116.705H15.3071C14.4674 116.705 13.7842 116.021 13.7842 115.182Z" fill="#434DA0"/>
<path d="M38.4879 90.1794C48.5259 90.1794 56.6632 82.042 56.6632 72.004C56.6632 61.966 48.5259 53.8286 38.4879 53.8286C28.4499 53.8286 20.3125 61.966 20.3125 72.004C20.3125 82.042 28.4499 90.1794 38.4879 90.1794Z" fill="white"/>
<path d="M40.2961 70.6342H39.9112V68.0495H42.3116C43.0127 68.0495 43.5812 67.481 43.5812 66.7799C43.5812 66.0789 43.0127 65.5104 42.3116 65.5104H39.9112V64.8721C39.9112 64.171 39.3427 63.6025 38.6417 63.6025C37.9406 63.6025 37.3721 64.171 37.3721 64.8721V65.5104H36.9872C34.8745 65.5104 33.1558 67.2291 33.1558 69.3418C33.1558 71.4546 34.8745 73.1733 36.9872 73.1733H37.3721V75.758H34.972C34.2709 75.758 33.7024 76.3265 33.7024 77.0276C33.7024 77.7286 34.2709 78.2971 34.972 78.2971H37.3721V78.9354C37.3721 79.6365 37.9406 80.205 38.6417 80.205C39.3427 80.205 39.9112 79.6365 39.9112 78.9354V78.2971H40.2961C42.4086 78.2971 44.1273 76.5784 44.1273 74.4657C44.1273 72.3529 42.4089 70.6342 40.2961 70.6342ZM36.9875 70.6342C36.2747 70.6342 35.6951 70.0546 35.6951 69.3418C35.6951 68.6291 36.2747 68.0495 36.9875 68.0495H37.3724V70.6342H36.9875ZM40.2961 75.758H39.9112V73.1733H40.2961C41.0086 73.1733 41.5882 73.7529 41.5882 74.4657C41.5882 75.1784 41.0086 75.758 40.2961 75.758Z" fill="#A3ACFF"/>
<path d="M38.6419 59.6476C39.6879 59.6476 40.5358 58.7997 40.5358 57.7537C40.5358 56.7078 39.6879 55.8599 38.6419 55.8599C37.596 55.8599 36.748 56.7078 36.748 57.7537C36.748 58.7997 37.596 59.6476 38.6419 59.6476Z" fill="#A3ACFF"/>
<path d="M38.6419 87.9479C39.6879 87.9479 40.5358 87.1 40.5358 86.054C40.5358 85.0081 39.6879 84.1602 38.6419 84.1602C37.596 84.1602 36.748 85.0081 36.748 86.054C36.748 87.1 37.596 87.9479 38.6419 87.9479Z" fill="#A3ACFF"/>
<path d="M31.5667 61.5436C32.6127 61.5436 33.4606 60.6957 33.4606 59.6497C33.4606 58.6038 32.6127 57.7559 31.5667 57.7559C30.5208 57.7559 29.6729 58.6038 29.6729 59.6497C29.6729 60.6957 30.5208 61.5436 31.5667 61.5436Z" fill="#A3ACFF"/>
<path d="M45.7171 86.0524C46.7631 86.0524 47.611 85.2045 47.611 84.1585C47.611 83.1126 46.7631 82.2646 45.7171 82.2646C44.6712 82.2646 43.8232 83.1126 43.8232 84.1585C43.8232 85.2045 44.6712 86.0524 45.7171 86.0524Z" fill="#A3ACFF"/>
<path d="M26.3875 66.7223C27.4335 66.7223 28.2814 65.8744 28.2814 64.8285C28.2814 63.7825 27.4335 62.9346 26.3875 62.9346C25.3416 62.9346 24.4937 63.7825 24.4937 64.8285C24.4937 65.8744 25.3416 66.7223 26.3875 66.7223Z" fill="#A3ACFF"/>
<path d="M50.8963 80.8723C51.9423 80.8723 52.7902 80.0243 52.7902 78.9784C52.7902 77.9324 51.9423 77.0845 50.8963 77.0845C49.8504 77.0845 49.0024 77.9324 49.0024 78.9784C49.0024 80.0243 49.8504 80.8723 50.8963 80.8723Z" fill="#A3ACFF"/>
<path d="M24.4915 73.7975C25.5375 73.7975 26.3854 72.9496 26.3854 71.9037C26.3854 70.8577 25.5375 70.0098 24.4915 70.0098C23.4456 70.0098 22.5977 70.8577 22.5977 71.9037C22.5977 72.9496 23.4456 73.7975 24.4915 73.7975Z" fill="#A3ACFF"/>
<path d="M52.7918 73.7975C53.8378 73.7975 54.6857 72.9496 54.6857 71.9037C54.6857 70.8577 53.8378 70.0098 52.7918 70.0098C51.7459 70.0098 50.8979 70.8577 50.8979 71.9037C50.8979 72.9496 51.7459 73.7975 52.7918 73.7975Z" fill="#A3ACFF"/>
<path d="M26.3875 80.8723C27.4335 80.8723 28.2814 80.0243 28.2814 78.9784C28.2814 77.9324 27.4335 77.0845 26.3875 77.0845C25.3416 77.0845 24.4937 77.9324 24.4937 78.9784C24.4937 80.0243 25.3416 80.8723 26.3875 80.8723Z" fill="#A3ACFF"/>
<path d="M50.8963 66.7223C51.9423 66.7223 52.7902 65.8744 52.7902 64.8285C52.7902 63.7825 51.9423 62.9346 50.8963 62.9346C49.8504 62.9346 49.0024 63.7825 49.0024 64.8285C49.0024 65.8744 49.8504 66.7223 50.8963 66.7223Z" fill="#A3ACFF"/>
<path d="M31.5667 86.0524C32.6127 86.0524 33.4606 85.2045 33.4606 84.1585C33.4606 83.1126 32.6127 82.2646 31.5667 82.2646C30.5208 82.2646 29.6729 83.1126 29.6729 84.1585C29.6729 85.2045 30.5208 86.0524 31.5667 86.0524Z" fill="#A3ACFF"/>
<path d="M45.7171 61.5436C46.7631 61.5436 47.611 60.6957 47.611 59.6497C47.611 58.6038 46.7631 57.7559 45.7171 57.7559C44.6712 57.7559 43.8232 58.6038 43.8232 59.6497C43.8232 60.6957 44.6712 61.5436 45.7171 61.5436Z" fill="#A3ACFF"/>
<path d="M45.9814 39.634C45.6564 39.634 45.3316 39.5101 45.0836 39.2623L43.6962 37.875L42.3089 39.2623C41.813 39.7579 41.0094 39.7579 40.5135 39.2623C40.0176 38.7664 40.0176 37.9626 40.5135 37.4669L42.7987 35.1818C43.2945 34.6862 44.0982 34.6862 44.594 35.1818L46.8792 37.4669C47.3751 37.9628 47.3751 38.7667 46.8792 39.2623C46.6311 39.5099 46.3064 39.634 45.9814 39.634Z" fill="#A3ACFF"/>
<path d="M114.107 80.6672C113.782 80.6672 113.457 80.5433 113.209 80.2955L111.822 78.9082L110.434 80.2955C109.938 80.7911 109.135 80.7911 108.639 80.2955C108.143 79.7996 108.143 78.9958 108.639 78.5001L110.924 76.215C111.42 75.7194 112.224 75.7194 112.72 76.215L115.005 78.5001C115.501 78.996 115.501 79.7999 115.005 80.2955C114.757 80.5431 114.432 80.6672 114.107 80.6672Z" fill="#A3ACFF"/>
<path d="M11.2314 90.3879C10.9064 90.3879 10.5816 90.264 10.3336 90.0162L8.94623 88.6289L7.55888 90.0162C7.063 90.5118 6.25939 90.5118 5.76351 90.0162C5.26763 89.5203 5.26763 88.7165 5.76351 88.2208L8.04867 85.9357C8.54455 85.4401 9.34816 85.4401 9.84404 85.9357L12.1292 88.2208C12.6251 88.7167 12.6251 89.5206 12.1292 90.0162C11.8811 90.264 11.5564 90.3879 11.2314 90.3879Z" fill="#A3ACFF"/>
<path d="M71.1149 18.8376C70.7899 18.8376 70.4652 18.7137 70.2171 18.4659C69.7212 17.97 69.7212 17.1662 70.2171 16.6705L72.7562 14.1315C73.2521 13.6359 74.0557 13.6359 74.5516 14.1315C75.0474 14.6274 75.0474 15.4312 74.5516 15.9269L72.0125 18.4659C71.7647 18.7137 71.4397 18.8376 71.1149 18.8376Z" fill="#A3ACFF"/>
<path d="M29.2604 42.1731C28.9354 42.1731 28.6107 42.0492 28.3626 41.8014C27.8668 41.3055 27.8668 40.5016 28.3626 40.006L30.9017 37.4669C31.3976 36.9713 32.2012 36.9713 32.6971 37.4669C33.1929 37.9628 33.1929 38.7667 32.6971 39.2623L30.158 41.8014C29.9102 42.0489 29.5854 42.1731 29.2604 42.1731Z" fill="#A3ACFF"/>
</g>
<defs>
<clipPath id="clip0_84:1760">
<rect width="130" height="130" fill="white"/>
</clipPath>
</defs>
</svg>
