<svg width="130" height="130" viewBox="0 0 130 130" fill="none" xmlns="http://www.w3.org/2000/svg">
<g clip-path="url(#clip0_84:1703)">
<path d="M117.095 6.94473C100.906 -2.7004 79.9588 -2.16491 64.0605 7.71686C55.128 13.2688 48.2233 21.2762 40.3934 28.1695C33.5323 34.2097 25.5538 38.5182 18.4678 44.2174C-7.23006 64.8861 -4.77809 120.633 31.4074 128.038C47.0929 131.248 68.531 132.277 77.7501 116.957C86.5403 102.35 89.4887 87.4069 106.664 79.6477C112.649 76.9436 122.654 77.08 126.708 71.1546C131.825 63.6768 125.476 55.9093 122.089 49.393C117.725 40.9953 116.809 32.716 119.88 23.7079C122.495 16.0371 124.336 12.5914 117.095 6.94473Z" fill="#F7F8FC"/>
<path opacity="0.1" d="M111.185 111.775L101.853 98.4709V81.9827H108.136C108.798 81.9827 109.145 81.1964 108.699 80.7076L93.9798 64.5838C93.6776 64.253 93.1566 64.253 92.8547 64.5838L84.5012 73.7346L84.0363 73.0717C81.9395 70.0827 78.5176 68.303 74.8667 68.303H66.2695V42.3713H74.4859V45.9347C74.4859 47.3362 75.6208 48.4737 77.0249 48.4737H89.3546C90.7587 48.4737 91.8937 47.3362 91.8937 45.9347V34.6866C91.8937 33.2851 90.7587 32.1476 89.3546 32.1476H82.4098V28.5858C82.4098 27.1834 81.273 26.0467 79.8707 26.0467H66.2695V23.0298C66.2695 22.3285 65.7012 21.7603 64.9999 21.7603C64.2986 21.7603 63.7304 22.3285 63.7304 23.0298V68.303H60.0404C58.0005 64.0199 53.6331 61.0591 48.5732 61.0591C47.3387 61.0591 46.1469 61.2386 45.0185 61.5672V45.4203H51.3019C51.9639 45.4203 52.311 44.6339 51.8646 44.1449L37.1454 28.0211C36.8433 27.6902 36.3222 27.6902 36.0203 28.0211L21.3011 44.1449C20.8548 44.6339 21.2016 45.4203 21.8638 45.4203H28.1472V98.4709L18.8144 111.775C17.6342 113.458 18.8377 115.772 20.8931 115.772H109.107C111.162 115.772 112.366 113.458 111.185 111.775Z" fill="#434DA0"/>
<path d="M51.8642 38.0516L37.145 21.9278C36.8429 21.597 36.3219 21.597 36.02 21.9278L21.3008 38.0516C20.8544 38.5407 21.2012 39.327 21.8634 39.327H28.1469V109.679H45.0184V39.3267H51.3018C51.9638 39.3267 52.3106 38.5404 51.8642 38.0516Z" fill="#A3ACFF"/>
<path d="M111.185 105.681L84.0357 66.9778C81.9389 63.9888 78.517 62.2095 74.8661 62.2095H55.1333C51.4821 62.2095 48.0602 63.9888 45.9637 66.9778L18.814 105.681C17.6336 107.364 18.8374 109.678 20.8927 109.678H109.106C111.162 109.678 112.365 107.364 111.185 105.681Z" fill="white"/>
<path d="M88.3388 73.1122L84.0358 66.9781C81.939 63.9891 78.5172 62.2095 74.8662 62.2095H55.1334C51.4825 62.2095 48.0603 63.9891 45.9638 66.9781L41.6606 73.1122H88.3388Z" fill="#A3ACFF"/>
<path d="M91.8937 28.5933V39.8413C91.8937 41.2429 90.7587 42.3804 89.3546 42.3804H77.0249C75.6208 42.3804 74.4858 41.2429 74.4858 39.8413V28.5933C74.4858 27.1917 75.6208 26.0542 77.0249 26.0542H89.3546C90.7587 26.0542 91.8937 27.1917 91.8937 28.5933Z" fill="white"/>
<path d="M79.8705 36.2778H65V19.9531H79.8705C81.2728 19.9531 82.4096 21.0899 82.4096 22.4922V33.7387C82.4096 35.141 81.2728 36.2778 79.8705 36.2778Z" fill="white"/>
<path d="M108.699 74.6141L93.9795 58.4903C93.6774 58.1595 93.1563 58.1595 92.8544 58.4903L78.1352 74.6141C77.6889 75.1031 78.0357 75.8895 78.6979 75.8895H84.9813V109.679H101.853V75.8895H108.136C108.798 75.8895 109.145 75.1031 108.699 74.6141Z" fill="white"/>
<path d="M48.5732 80.3565C55.5847 80.3565 61.2686 74.6726 61.2686 67.6611C61.2686 60.6497 55.5847 54.9658 48.5732 54.9658C41.5618 54.9658 35.8779 60.6497 35.8779 67.6611C35.8779 74.6726 41.5618 80.3565 48.5732 80.3565Z" fill="white"/>
<path d="M112.225 104.953L103.122 91.9767V77.1588H108.136C108.94 77.1588 109.67 76.6832 109.994 75.9476C110.319 75.2118 110.178 74.3523 109.636 73.7582L104.166 67.766C103.693 67.2483 102.89 67.2117 102.373 67.6845C101.855 68.157 101.818 68.9599 102.291 69.4778L106.985 74.6197H101.853C101.151 74.6197 100.583 75.188 100.583 75.8892V108.409H86.2502V75.8892C86.2502 75.188 85.682 74.6197 84.9807 74.6197H79.8487L93.4165 59.7571L96.6375 63.2851C97.1103 63.8033 97.9134 63.8399 98.4309 63.3666C98.9486 62.8941 98.9854 62.091 98.5124 61.573L94.9168 57.6344C94.5329 57.2139 93.9865 56.9725 93.417 56.9725C93.4167 56.9725 93.4167 56.9725 93.4167 56.9725C92.8472 56.9725 92.3006 57.2134 91.9164 57.6341L84.6135 65.6337C82.2578 62.6813 78.6688 60.94 74.8656 60.94H66.2693V37.5474H73.2152V39.8409C73.2152 41.941 74.9237 43.6495 77.0238 43.6495H89.3552C91.4556 43.6495 93.1638 41.941 93.1638 39.8409V28.5944C93.1638 26.4943 91.4556 24.7858 89.3552 24.7858H83.6789V22.4922C83.6789 20.3922 81.9704 18.6837 79.8703 18.6837H66.2693V16.9365C66.2693 16.2352 65.7011 15.667 64.9998 15.667C64.2985 15.667 63.7303 16.2352 63.7303 16.9365V60.94H60.8098C58.4307 56.6259 53.8383 53.6961 48.5731 53.6961C40.8728 53.6961 34.6082 59.9607 34.6082 67.6609C34.6082 71.0008 35.7881 74.0695 37.7511 76.4753L29.4161 88.3573V39.3267C29.4161 38.6254 28.8478 38.0572 28.1466 38.0572H23.0149L36.5828 23.1946L50.1506 38.0572H45.0186C44.3173 38.0572 43.7491 38.6254 43.7491 39.3267V47.2608C43.7491 47.9621 44.3173 48.5303 45.0186 48.5303C45.7199 48.5303 46.2882 47.9621 46.2882 47.2608V40.5963H51.3018C52.1062 40.5963 52.8356 40.1207 53.1601 39.3849C53.4846 38.6491 53.3442 37.7896 52.8019 37.1954L38.0824 21.0711C37.6983 20.6509 37.1516 20.41 36.5826 20.41C36.5823 20.41 36.5823 20.41 36.5821 20.41C36.0128 20.41 35.4662 20.6512 35.0825 21.0714L20.3631 37.1954C19.821 37.7896 19.6806 38.6491 20.0051 39.3849C20.3295 40.1207 21.059 40.5963 21.8634 40.5963H26.877V91.9767L17.775 104.952C16.9556 106.12 16.8556 107.632 17.5137 108.897C18.1719 110.162 19.4665 110.948 20.893 110.948H109.107C110.533 110.948 111.828 110.162 112.486 108.897C113.144 107.631 113.044 106.12 112.225 104.953ZM89.3555 27.3248C90.0555 27.3248 90.625 27.8944 90.625 28.5944V39.8409C90.625 40.5409 90.0555 41.1104 89.3555 41.1104H77.024C76.324 41.1104 75.7545 40.5409 75.7545 39.8409V37.5474H79.8706C81.9706 37.5474 83.6792 35.8388 83.6792 33.7388V27.3248H89.3555ZM79.8703 21.2227C80.5703 21.2227 81.1398 21.7922 81.1398 22.4922V33.7388C81.1398 34.4388 80.5703 35.0083 79.8703 35.0083H66.2693V21.2227H79.8703ZM48.5731 56.2351C54.8732 56.2351 59.9988 61.3605 59.9988 67.6609C59.9988 73.9613 54.8732 79.0867 48.5731 79.0867C42.2729 79.0867 37.1473 73.9613 37.1473 67.6609C37.1473 61.3605 42.2726 56.2351 48.5731 56.2351ZM19.7666 107.726C19.544 107.297 19.5767 106.806 19.854 106.411L39.5612 78.3166C41.9954 80.3786 45.1405 81.6257 48.5731 81.6257C56.2733 81.6257 62.5379 75.3611 62.5379 67.6609C62.5379 66.2045 62.3132 64.8001 61.8976 63.4791H74.8661C78.0308 63.4791 81.006 64.9956 82.8725 67.5416L77.1974 73.758C76.6553 74.3521 76.5149 75.2116 76.8394 75.9474C77.1639 76.6829 77.8934 77.1585 78.6978 77.1585H83.7114V108.409H20.893C20.4103 108.409 19.9893 108.154 19.7666 107.726ZM110.233 107.726C110.01 108.154 109.589 108.409 109.106 108.409H103.122V96.3983L110.146 106.411C110.146 106.411 110.146 106.411 110.146 106.411C110.423 106.806 110.456 107.297 110.233 107.726Z" fill="#434DA0"/>
<path d="M46.4552 72.7474H45.1013C43.4489 72.7474 42.1045 71.4033 42.1045 69.7508V65.5723C42.1045 63.9199 43.4489 62.5757 45.1013 62.5757H46.4552C48.1076 62.5757 49.4518 63.9199 49.4518 65.5723V69.7508C49.4518 71.403 48.1076 72.7474 46.4552 72.7474ZM45.1013 65.1145C44.849 65.1145 44.6436 65.3199 44.6436 65.572V69.7506C44.6436 70.003 44.849 70.2081 45.1013 70.2081H46.4552C46.7073 70.2081 46.9127 70.0027 46.9127 69.7506V65.572C46.9127 65.3197 46.7073 65.1145 46.4552 65.1145H45.1013Z" fill="#434DA0"/>
<path d="M53.7719 72.7467C53.0706 72.7467 52.5024 72.1782 52.5024 71.4772V65.1138H52.3896C51.6884 65.1138 51.1201 64.5453 51.1201 63.8442C51.1201 63.1432 51.6884 62.5747 52.3896 62.5747H53.7719C54.4732 62.5747 55.0414 63.1432 55.0414 63.8442V71.4772C55.0414 72.1782 54.4732 72.7467 53.7719 72.7467Z" fill="#434DA0"/>
<path d="M89.5854 76.7019C89.5854 75.9164 90.2225 75.2793 91.0081 75.2793H91.0408C91.8264 75.2793 92.4635 75.9164 92.4635 76.7019C92.4635 77.4875 91.8264 78.1246 91.0408 78.1246H91.0081C90.2225 78.1246 89.5854 77.4875 89.5854 76.7019Z" fill="#434DA0"/>
<path d="M95.8255 75.2793C96.6111 75.2793 97.2482 75.9164 97.2482 76.7019C97.2482 77.4875 96.6111 78.1246 95.8255 78.1246H95.7928C95.0072 78.1246 94.3701 77.4875 94.3701 76.7019C94.3701 75.9164 95.0072 75.2793 95.7928 75.2793" fill="#434DA0"/>
<path d="M89.5854 81.7786C89.5854 80.993 90.2225 80.356 91.0081 80.356H91.0408C91.8264 80.356 92.4635 80.993 92.4635 81.7786C92.4635 82.5642 91.8264 83.2012 91.0408 83.2012H91.0081C90.2225 83.201 89.5854 82.5642 89.5854 81.7786Z" fill="#434DA0"/>
<path d="M89.5854 86.8557C89.5854 86.0702 90.2225 85.4331 91.0081 85.4331H91.0408C91.8264 85.4331 92.4635 86.0702 92.4635 86.8557C92.4635 87.6413 91.8264 88.2784 91.0408 88.2784H91.0081C90.2225 88.2784 89.5854 87.6413 89.5854 86.8557Z" fill="#434DA0"/>
<path d="M33.3945 39.6438C33.3945 38.8582 34.0316 38.2212 34.8172 38.2212H34.8499C35.6355 38.2212 36.2726 38.8582 36.2726 39.6438C36.2726 40.4294 35.6355 41.0665 34.8499 41.0665H34.8172C34.0316 41.0665 33.3945 40.4294 33.3945 39.6438Z" fill="#434DA0"/>
<path d="M39.6346 38.2212C40.4202 38.2212 41.0572 38.8582 41.0572 39.6438C41.0572 40.4294 40.4202 41.0665 39.6346 41.0665H39.6018C38.8162 41.0665 38.1792 40.4294 38.1792 39.6438C38.1792 38.8582 38.8162 38.2212 39.6018 38.2212" fill="#434DA0"/>
<path d="M33.3945 44.7205C33.3945 43.9349 34.0316 43.2979 34.8172 43.2979H34.8499C35.6355 43.2979 36.2726 43.9349 36.2726 44.7205C36.2726 45.5061 35.6355 46.1431 34.8499 46.1431H34.8172C34.0316 46.1431 33.3945 45.5061 33.3945 44.7205Z" fill="#434DA0"/>
<path d="M33.3945 49.7972C33.3945 49.0116 34.0316 48.3745 34.8172 48.3745H34.8499C35.6355 48.3745 36.2726 49.0116 36.2726 49.7972C36.2726 50.5827 35.6355 51.2198 34.8499 51.2198H34.8172C34.0316 51.2195 33.3945 50.5827 33.3945 49.7972Z" fill="#434DA0"/>
<path d="M64.9243 106.235C71.6135 106.235 77.0362 100.813 77.0362 94.1236C77.0362 87.4344 71.6135 82.0117 64.9243 82.0117C58.2352 82.0117 52.8125 87.4344 52.8125 94.1236C52.8125 100.813 58.2352 106.235 64.9243 106.235Z" fill="#A3ACFF"/>
<path d="M66.5544 92.852H66.1695V90.2672H68.5699C69.271 90.2672 69.8395 89.6987 69.8395 88.9977C69.8395 88.2967 69.271 87.7282 68.5699 87.7282H66.1695V87.0898C66.1695 86.3888 65.601 85.8203 64.9 85.8203C64.1989 85.8203 63.6304 86.3888 63.6304 87.0898V87.7282H63.2455C61.1328 87.7282 59.4141 89.4469 59.4141 91.5596C59.4141 93.6724 61.1328 95.3911 63.2455 95.3911H63.6304V97.9758H61.2303C60.5292 97.9758 59.9607 98.5443 59.9607 99.2454C59.9607 99.9464 60.5292 100.515 61.2303 100.515H63.6304V101.153C63.6304 101.854 64.1989 102.423 64.9 102.423C65.601 102.423 66.1695 101.854 66.1695 101.153V100.515H66.5544C68.6669 100.515 70.3856 98.7962 70.3856 96.6834C70.3856 94.5707 68.6669 92.852 66.5544 92.852ZM63.2455 92.852C62.5328 92.852 61.9531 92.2723 61.9531 91.5596C61.9531 90.8469 62.5328 90.2672 63.2455 90.2672H63.6304V92.852H63.2455ZM66.5544 97.9758H66.1695V95.3911H66.5544C67.2669 95.3911 67.8466 95.9707 67.8466 96.6834C67.8466 97.3962 67.2669 97.9758 66.5544 97.9758Z" fill="#434DA0"/>
<path d="M36.103 101.979H45.6296C46.3309 101.979 46.8991 101.41 46.8991 100.709C46.8991 100.008 46.3309 99.4395 45.6296 99.4395H36.103C35.4017 99.4395 34.8335 100.008 34.8335 100.709C34.8335 101.41 35.402 101.979 36.103 101.979Z" fill="#434DA0"/>
<path d="M44.4819 97.4741H45.6296C46.3309 97.4741 46.8991 96.9056 46.8991 96.2046C46.8991 95.5036 46.3309 94.9351 45.6296 94.9351H44.4819C43.7806 94.9351 43.2124 95.5036 43.2124 96.2046C43.2124 96.9059 43.7809 97.4741 44.4819 97.4741Z" fill="#434DA0"/>
<path d="M103.856 50.6601C103.532 50.6601 103.206 50.5362 102.959 50.2881L101.825 49.1547L100.691 50.2881C100.196 50.784 99.3917 50.784 98.8963 50.2881C98.4004 49.7925 98.4004 48.9886 98.8963 48.493L100.928 46.4618C101.423 45.9659 102.227 45.9659 102.723 46.4618L104.754 48.493C105.25 48.9886 105.25 49.7925 104.754 50.2881C104.506 50.5359 104.181 50.6601 103.856 50.6601Z" fill="#A3ACFF"/>
<path d="M55.1123 15.667H54.3506V14.9053C54.3506 14.204 53.7823 13.6357 53.0811 13.6357C52.3798 13.6357 51.8115 14.204 51.8115 14.9053V15.667H51.0498C50.3485 15.667 49.7803 16.2352 49.7803 16.9365C49.7803 17.6378 50.3485 18.2061 51.0498 18.2061H51.8115V18.9678C51.8115 19.6691 52.3798 20.2373 53.0811 20.2373C53.7823 20.2373 54.3506 19.6691 54.3506 18.9678V18.2061H55.1123C55.8136 18.2061 56.3818 17.6378 56.3818 16.9365C56.3818 16.2352 55.8133 15.667 55.1123 15.667Z" fill="#A3ACFF"/>
<path d="M107.919 36.9517H107.157V36.1899C107.157 35.4887 106.589 34.9204 105.888 34.9204C105.186 34.9204 104.618 35.4887 104.618 36.1899V36.9517H103.856C103.155 36.9517 102.587 37.5199 102.587 38.2212C102.587 38.9225 103.155 39.4907 103.856 39.4907H104.618V40.2524C104.618 40.9537 105.186 41.522 105.888 41.522C106.589 41.522 107.157 40.9537 107.157 40.2524V39.4907H107.919C108.62 39.4907 109.188 38.9225 109.188 38.2212C109.188 37.5199 108.62 36.9517 107.919 36.9517Z" fill="#A3ACFF"/>
<path d="M20.7846 90.5131C20.4599 90.5131 20.1346 90.3892 19.887 90.1411L18.7534 89.0077L17.6197 90.1411C17.1243 90.637 16.3199 90.637 15.8245 90.1411C15.3287 89.6455 15.3287 88.8417 15.8245 88.346L17.8558 86.3148C18.3512 85.8189 19.1555 85.8189 19.6509 86.3148L21.6822 88.346C22.178 88.8417 22.178 89.6455 21.6822 90.1411C21.4346 90.3892 21.1096 90.5131 20.7846 90.5131Z" fill="#A3ACFF"/>
<path d="M20.7846 81.2153C20.4599 81.2153 20.1346 81.0914 19.887 80.8433L18.7534 79.7099L17.6197 80.8433C17.1243 81.3392 16.3199 81.3392 15.8245 80.8433C15.3287 80.3477 15.3287 79.5438 15.8245 79.0482L17.8558 77.0169C18.3512 76.521 19.1555 76.521 19.6509 77.0169L21.6822 79.0482C22.178 79.5438 22.178 80.3477 21.6822 80.8433C21.4346 81.0914 21.1096 81.2153 20.7846 81.2153Z" fill="#A3ACFF"/>
</g>
<defs>
<clipPath id="clip0_84:1703">
<rect width="130" height="130" fill="white"/>
</clipPath>
</defs>
</svg>
