<svg width="130" height="130" viewBox="0 0 130 130" fill="none" xmlns="http://www.w3.org/2000/svg">
<path d="M112.103 94.2369C105.417 71.6619 82.084 48.8956 98.1631 24.3152C101.239 19.6131 100.904 11.7453 98.3467 8.42017C82.2767 -12.4743 46.7845 9.07017 47.0356 34.341C47.2009 50.9578 34.9174 61.3599 24.0918 72.1159C-33.5002 121.538 131.081 161.884 112.103 94.2369Z" fill="#F7F8FC"/>
<path opacity="0.1" d="M33.7939 19.0181H98.7536C101.558 19.0181 103.832 21.2915 103.832 24.0962V120.389C103.832 123.194 103.082 125.467 100.277 125.467H33.7939C30.9893 125.467 28.7158 123.194 28.7158 120.389V90.3863V46.3371V24.0962C28.7158 21.2915 30.9893 19.0181 33.7939 19.0181Z" fill="#434DA0"/>
<g opacity="0.1">
<path fill-rule="evenodd" clip-rule="evenodd" d="M36.7877 64.1852V39.8633C36.7877 37.7632 35.0791 36.0547 32.9791 36.0547H20.6816C18.5816 36.0547 16.873 37.7632 16.873 39.8633V64.1852V66.7243V69.5561H12.1946C10.6775 69.5561 9.34725 70.4151 8.72315 71.7978C8.09904 73.1806 8.33492 74.7464 9.33836 75.8842L23.9743 92.4749C24.6969 93.2943 25.7379 93.7643 26.8305 93.764C27.9228 93.764 28.964 93.294 29.6867 92.4749L41.4189 79.1758L43.6589 76.6368L44.3226 75.8845C45.326 74.7467 45.5619 73.1811 44.9378 71.7981C44.3137 70.4153 42.9837 69.5564 41.4664 69.5564H36.7879V66.7243L36.7877 64.1852ZM19.4121 70.8256C19.4121 71.5267 18.8436 72.0952 18.1426 72.0952H12.1943C11.4336 72.0952 11.1165 72.6672 11.0373 72.8424C10.9583 73.0179 10.7392 73.6341 11.2424 74.2046L25.8783 90.7954C26.1228 91.0724 26.4608 91.225 26.8305 91.225C27.1999 91.225 27.5381 91.0724 27.7824 90.7954L42.4183 74.2046C42.9218 73.6341 42.7029 73.0179 42.6237 72.8424C42.5445 72.667 42.2271 72.0952 41.4664 72.0952H35.5184C34.8171 72.0952 34.2489 71.5267 34.2489 70.8256V39.8633C34.2489 39.1633 33.6793 38.5938 32.9793 38.5938H20.6816C19.9816 38.5938 19.4121 39.1633 19.4121 39.8633V70.8256Z" fill="#434DA0"/>
<path d="M18.1426 72.0952C18.8436 72.0952 19.4121 71.5267 19.4121 70.8256V39.8633C19.4121 39.1633 19.9816 38.5938 20.6816 38.5938H32.9793C33.6793 38.5938 34.2489 39.1633 34.2489 39.8633V70.8256C34.2489 71.5267 34.8171 72.0952 35.5184 72.0952H41.4664C42.2271 72.0952 42.5445 72.667 42.6237 72.8424C42.7029 73.0179 42.9218 73.6341 42.4183 74.2046L27.7824 90.7954C27.5381 91.0724 27.1999 91.225 26.8305 91.225C26.4608 91.225 26.1228 91.0724 25.8783 90.7954L11.2424 74.2046C10.7392 73.6341 10.9583 73.0179 11.0373 72.8424C11.1165 72.6672 11.4336 72.0952 12.1943 72.0952H18.1426Z" fill="#434DA0"/>
</g>
<path d="M103.832 18.002V114.296C103.832 117.102 103.083 119.374 100.277 119.374H33.7944C30.9888 119.374 28.7163 117.102 28.7163 114.296V18.002C28.7163 15.1988 30.9888 12.9238 33.7944 12.9238H98.7538C101.559 12.9238 103.832 15.1988 103.832 18.002Z" fill="#A3ACFF"/>
<path d="M97.2304 20.7949V111.503C97.2304 112.204 96.6619 112.772 95.9608 112.772H36.5874C35.8864 112.772 35.3179 112.204 35.3179 111.503V20.7949C35.3179 20.0939 35.8864 19.5254 36.5874 19.5254H95.9608C96.6619 19.5254 97.2304 20.0939 97.2304 20.7949Z" fill="white"/>
<path d="M78.9917 23.0844H53.5566C52.8556 23.0844 52.2871 22.5159 52.2871 21.8149V11.8955C52.2871 11.1945 52.8556 10.626 53.5566 10.626H78.9914C79.6925 10.626 80.261 11.1945 80.261 11.8955V21.8149C80.2612 22.5159 79.6927 23.0844 78.9917 23.0844Z" fill="white"/>
<path d="M58.3809 18.1245C59.082 18.1245 59.6504 17.5561 59.6504 16.855C59.6504 16.1538 59.082 15.5854 58.3809 15.5854C57.6797 15.5854 57.1113 16.1538 57.1113 16.855C57.1113 17.5561 57.6797 18.1245 58.3809 18.1245Z" fill="#434DA0"/>
<path d="M74.1675 18.1245C74.8686 18.1245 75.437 17.5561 75.437 16.855C75.437 16.1538 74.8686 15.5854 74.1675 15.5854C73.4663 15.5854 72.8979 16.1538 72.8979 16.855C72.8979 17.5561 73.4663 18.1245 74.1675 18.1245Z" fill="#434DA0"/>
<path d="M41.2563 69.7035V107.054H83.6092C84.0774 107.054 84.296 106.475 83.9448 106.165L42.0998 69.3224C41.7718 69.0337 41.2563 69.2666 41.2563 69.7035Z" fill="#A3ACFF"/>
<path d="M91.2916 78.9396V88.6338L82.1637 98.3076L63.1689 107.055H41.2568L54.3406 91.15C54.5437 90.9037 54.9221 90.9037 55.1252 91.15L61.7014 99.1429L75.8719 81.923C76.075 81.6767 76.4533 81.6767 76.6564 81.923L82.1637 88.6135L90.3928 78.6172C90.6949 78.249 91.2916 78.4623 91.2916 78.9396Z" fill="white"/>
<path d="M55.1251 100.844L60.2337 107.054H49.2319L54.3405 100.844C54.5437 100.598 54.922 100.598 55.1251 100.844Z" fill="#A3ACFF"/>
<path d="M91.2916 88.6335V106.547C91.2916 106.826 91.0656 107.054 90.7838 107.054H63.1689L75.8719 91.6169C76.075 91.3706 76.4533 91.3706 76.6564 91.6169L82.1637 98.3073L90.3928 88.311C90.6949 87.9428 91.2916 88.1561 91.2916 88.6335Z" fill="#A3ACFF"/>
<path d="M98.7536 11.6548H87.4936C86.7923 11.6548 86.2241 12.2233 86.2241 12.9243C86.2241 13.6254 86.7923 14.1938 87.4936 14.1938H98.7536C100.854 14.1938 102.562 15.9024 102.562 18.0024V114.296C102.562 118.104 101.076 118.104 100.277 118.104H33.7939C31.6939 118.104 29.9854 116.396 29.9854 114.296V99.6681C29.9854 98.9671 29.4171 98.3986 28.7158 98.3986C28.0145 98.3986 27.4463 98.9671 27.4463 99.6681V114.296C27.4463 117.796 30.2938 120.643 33.7939 120.643H100.277C102.478 120.643 105.101 119.542 105.101 114.296V18.0024C105.101 14.5023 102.254 11.6548 98.7536 11.6548Z" fill="#434DA0"/>
<path fill-rule="evenodd" clip-rule="evenodd" d="M29.9848 38.9741V18.0027C29.9848 15.9027 31.6934 14.1941 33.7934 14.1941H51.0169V21.8149C51.0169 23.2149 52.1559 24.3539 53.556 24.3539H78.9908C80.3908 24.3539 81.5298 23.2149 81.5298 21.8149V11.8955C81.5298 10.4955 80.3908 9.35645 78.9908 9.35645H53.5565C52.2377 9.35645 51.1512 10.3675 51.0296 11.6551H33.7939C30.2938 11.6551 27.4463 14.5026 27.4463 18.0027V38.9741H29.9848ZM78.9913 11.8955H53.5565V21.8146H78.9931L78.9913 11.8955Z" fill="#434DA0"/>
<path d="M91.2913 105.785H43.9446L54.7323 92.6712L60.7204 99.9492C60.9617 100.242 61.3212 100.412 61.7008 100.412C62.0804 100.412 62.4399 100.242 62.6811 99.9492L76.2636 83.4435L81.1828 89.4199C81.4237 89.713 81.7835 89.8826 82.1628 89.8826C82.5422 89.8826 82.9017 89.713 83.1429 89.4199L90.805 80.1125C90.9546 80.1744 91.1186 80.2087 91.2908 80.2087C91.9921 80.2087 92.5603 79.6402 92.5603 78.9392C92.5603 78.1785 92.0977 77.5214 91.3817 77.2654C90.6661 77.01 89.8925 77.2235 89.4116 77.8101L82.1626 86.6158L77.6347 81.1147C77.2957 80.7038 76.7958 80.4685 76.2631 80.4685H76.2626C75.7296 80.4685 75.2299 80.7044 74.8905 81.1159L61.7005 97.1445L56.1039 90.3421C55.765 89.9311 55.265 89.6954 54.7321 89.6954C54.1991 89.6954 53.6992 89.9311 53.3595 90.3431L42.5255 103.512V99.8791H43.5183C44.2191 99.8791 44.7878 99.3103 44.7878 98.6096C44.7878 97.9088 44.2191 97.34 43.5183 97.34H42.5255V92.9297H43.5183C44.2191 92.9297 44.7878 92.3609 44.7878 91.6602C44.7878 90.9594 44.2191 90.3906 43.5183 90.3906H42.5255V85.5623V75.2832H39.9867V85.5623V107.054C39.9867 107.755 40.5555 108.324 41.2563 108.324H91.291C91.9918 108.324 92.5605 107.755 92.5605 107.054C92.5605 106.354 91.9921 105.785 91.2913 105.785Z" fill="#434DA0"/>
<path d="M30.3507 50.5254H25.6323C24.9313 50.5254 24.3628 49.9569 24.3628 49.2559C24.3628 48.5548 24.9313 47.9863 25.6323 47.9863H30.3507C31.0517 47.9863 31.6202 48.5548 31.6202 49.2559C31.6202 49.9569 31.052 50.5254 30.3507 50.5254Z" fill="white"/>
<path d="M40.5069 55.7002H25.6323C24.9313 55.7002 24.3628 55.1317 24.3628 54.4307C24.3628 53.7296 24.9313 53.1611 25.6323 53.1611H40.5069C41.2079 53.1611 41.7764 53.7296 41.7764 54.4307C41.7764 55.1317 41.2082 55.7002 40.5069 55.7002Z" fill="white"/>
<path d="M40.5069 60.875H25.6323C24.9313 60.875 24.3628 60.3065 24.3628 59.6055C24.3628 58.9044 24.9313 58.3359 25.6323 58.3359H40.5069C41.2079 58.3359 41.7764 58.9044 41.7764 59.6055C41.7764 60.3065 41.2082 60.875 40.5069 60.875Z" fill="white"/>
<path d="M40.5069 71.3281H30.2026C29.5016 71.3281 28.9331 70.7596 28.9331 70.0586C28.9331 69.3576 29.5016 68.7891 30.2026 68.7891H40.5069C41.2079 68.7891 41.7764 69.3576 41.7764 70.0586C41.7764 70.7596 41.2082 71.3281 40.5069 71.3281Z" fill="white"/>
<path d="M25.6323 71.3281C26.3335 71.3281 26.9019 70.7597 26.9019 70.0586C26.9019 69.3575 26.3335 68.7891 25.6323 68.7891C24.9312 68.7891 24.3628 69.3575 24.3628 70.0586C24.3628 70.7597 24.9312 71.3281 25.6323 71.3281Z" fill="white"/>
<path d="M25.6323 76.5034C26.3335 76.5034 26.9019 75.935 26.9019 75.2339C26.9019 74.5327 26.3335 73.9644 25.6323 73.9644C24.9312 73.9644 24.3628 74.5327 24.3628 75.2339C24.3628 75.935 24.9312 76.5034 25.6323 76.5034Z" fill="white"/>
<path d="M40.5069 76.5034H30.2026C29.5016 76.5034 28.9331 75.9349 28.9331 75.2339C28.9331 74.5329 29.5016 73.9644 30.2026 73.9644H40.5069C41.2079 73.9644 41.7764 74.5329 41.7764 75.2339C41.7764 75.9349 41.2082 76.5034 40.5069 76.5034Z" fill="white"/>
<path d="M85.1685 34.3447H89.8868C90.5878 34.3447 91.1563 33.7762 91.1563 33.0752C91.1563 32.3742 90.5878 31.8057 89.8868 31.8057H85.1685C84.4674 31.8057 83.8989 32.3742 83.8989 33.0752C83.8989 33.7762 84.4674 34.3447 85.1685 34.3447Z" fill="#434DA0"/>
<path d="M72.4731 39.5195H89.8868C90.5878 39.5195 91.1563 38.951 91.1563 38.25C91.1563 37.549 90.5878 36.9805 89.8868 36.9805H72.4731C71.7721 36.9805 71.2036 37.549 71.2036 38.25C71.2036 38.951 71.7721 39.5195 72.4731 39.5195Z" fill="#434DA0"/>
<path d="M72.4731 44.6948H89.8868C90.5878 44.6948 91.1563 44.1263 91.1563 43.4253C91.1563 42.7243 90.5878 42.1558 89.8868 42.1558H72.4731C71.7721 42.1558 71.2036 42.7243 71.2036 43.4253C71.2036 44.1263 71.7721 44.6948 72.4731 44.6948Z" fill="#434DA0"/>
<path d="M58.2993 52.1011H89.8868C90.5878 52.1011 91.1563 51.5326 91.1563 50.8315C91.1563 50.1305 90.5878 49.562 89.8868 49.562H58.2993C57.5983 49.562 57.0298 50.1305 57.0298 50.8315C57.0298 51.5326 57.5983 52.1011 58.2993 52.1011Z" fill="#434DA0"/>
<path d="M58.2993 57.2759H89.8868C90.5878 57.2759 91.1563 56.7074 91.1563 56.0063C91.1563 55.3053 90.5878 54.7368 89.8868 54.7368H58.2993C57.5983 54.7368 57.0298 55.3053 57.0298 56.0063C57.0298 56.7074 57.5983 57.2759 58.2993 57.2759Z" fill="#434DA0"/>
<path d="M79.4028 71.3993H89.8871C90.5882 71.3993 91.1567 70.8309 91.1567 70.1298V64.5137C91.1567 63.8126 90.5882 63.2441 89.8871 63.2441H79.4028C78.7018 63.2441 78.1333 63.8126 78.1333 64.5137V70.1298C78.1333 70.8309 78.7018 71.3993 79.4028 71.3993Z" fill="#A3ACFF"/>
<path d="M66.73 71.3993H73.6596C74.3606 71.3993 74.9291 70.8309 74.9291 70.1298V64.5137C74.9291 63.8126 74.3606 63.2441 73.6596 63.2441H66.73C66.0289 63.2441 65.4604 63.8126 65.4604 64.5137V70.1298C65.4604 70.8309 66.0289 71.3993 66.73 71.3993Z" fill="#A3ACFF"/>
<path d="M14.0189 99.9538C13.3176 99.9538 12.7494 99.3853 12.7494 98.6842C12.7494 97.7976 12.0278 97.0763 11.1411 97.0763C10.4398 97.0763 9.87158 96.5078 9.87158 95.8067C9.87158 95.1057 10.4398 94.5372 11.1411 94.5372C12.0278 94.5372 12.7494 93.8158 12.7494 92.9292C12.7494 92.2282 13.3176 91.6597 14.0189 91.6597C14.7202 91.6597 15.2884 92.2282 15.2884 92.9292C15.2884 93.8158 16.0098 94.5372 16.8964 94.5372C17.5977 94.5372 18.1659 95.1057 18.1659 95.8067C18.1659 96.5078 17.5977 97.0763 16.8964 97.0763C16.0098 97.0763 15.2884 97.7976 15.2884 98.6842C15.2884 99.3853 14.7202 99.9538 14.0189 99.9538Z" fill="#A3ACFF"/>
<path d="M115.982 19.2248C115.28 19.2248 114.712 18.6563 114.712 17.9552C114.712 17.0686 113.991 16.3472 113.104 16.3472C112.403 16.3472 111.834 15.7788 111.834 15.0777C111.834 14.3767 112.403 13.8082 113.104 13.8082C113.991 13.8082 114.712 13.0868 114.712 12.2002C114.712 11.4992 115.28 10.9307 115.982 10.9307C116.683 10.9307 117.251 11.4992 117.251 12.2002C117.251 13.0868 117.972 13.8082 118.859 13.8082C119.56 13.8082 120.129 14.3767 120.129 15.0777C120.129 15.7788 119.56 16.3472 118.859 16.3472C117.972 16.3472 117.251 17.0686 117.251 17.9552C117.251 18.6563 116.683 19.2248 115.982 19.2248Z" fill="#A3ACFF"/>
<path d="M20.2012 112.575C19.5 112.575 18.9317 112.007 18.9317 111.306C18.9317 110.419 18.2104 109.698 17.3237 109.698C16.6224 109.698 16.0542 109.129 16.0542 108.428C16.0542 107.727 16.6224 107.159 17.3237 107.159C18.2104 107.159 18.9317 106.437 18.9317 105.551C18.9317 104.85 19.5 104.281 20.2012 104.281C20.9025 104.281 21.4708 104.85 21.4708 105.551C21.4708 106.437 22.1924 107.159 23.079 107.159C23.7803 107.159 24.3486 107.727 24.3486 108.428C24.3486 109.129 23.7803 109.698 23.079 109.698C22.1924 109.698 21.4708 110.419 21.4708 111.306C21.4708 112.007 20.9023 112.575 20.2012 112.575Z" fill="#A3ACFF"/>
<path d="M113.777 31.5911C113.452 31.5911 113.127 31.4671 112.879 31.2193L111.492 29.832L110.104 31.2193C109.609 31.715 108.804 31.715 108.309 31.2193C107.813 30.7235 107.813 29.9196 108.309 29.424L110.594 27.1388C111.089 26.6432 111.894 26.6432 112.389 27.1388L114.674 29.424C115.17 29.9198 115.17 30.7237 114.674 31.2193C114.427 31.4671 114.102 31.5911 113.777 31.5911Z" fill="#A3ACFF"/>
<path d="M20.2011 32.7336C19.8764 32.7336 19.5511 32.6097 19.3036 32.3619L17.916 30.9746L16.5284 32.3619C16.033 32.8575 15.2286 32.8575 14.7332 32.3619C14.2374 31.866 14.2374 31.0622 14.7332 30.5665L17.0184 28.2814C17.5138 27.7858 18.3181 27.7858 18.8135 28.2814L21.0987 30.5665C21.5945 31.0624 21.5945 31.8663 21.0987 32.3619C20.8509 32.6097 20.5259 32.7336 20.2011 32.7336Z" fill="#A3ACFF"/>
<path d="M14.8606 75.0445L29.4965 91.6353C30.5073 92.7812 32.2938 92.7812 33.3046 91.6353L47.9405 75.0445C49.3868 73.4051 48.2229 70.8259 46.0365 70.8259H40.0885V39.8633C40.0885 38.461 38.9517 37.3242 37.5494 37.3242H25.2517C23.8494 37.3242 22.7126 38.461 22.7126 39.8633V70.8256H16.7646C14.5785 70.8259 13.4143 73.4051 14.8606 75.0445Z" fill="#A3ACFF"/>
<path fill-rule="evenodd" clip-rule="evenodd" d="M41.358 64.1852V39.8633C41.358 37.7632 39.6494 36.0547 37.5494 36.0547H25.2519C23.1519 36.0547 21.4433 37.7632 21.4433 39.8633V64.1852V66.7243V69.5561H16.7649C15.2478 69.5561 13.9176 70.4151 13.2935 71.7978C12.6694 73.1806 12.9052 74.7464 13.9087 75.8842L28.5446 92.4749C29.2672 93.2943 30.3082 93.7643 31.4008 93.764C32.4931 93.764 33.5344 93.294 34.257 92.4749L45.9892 79.1758L48.2292 76.6368L48.8929 75.8845C49.8963 74.7467 50.1322 73.1811 49.5081 71.7981C48.884 70.4153 47.554 69.5564 46.0367 69.5564H41.3582V66.7243L41.358 64.1852ZM23.9824 70.8256C23.9824 71.5267 23.4139 72.0952 22.7129 72.0952H16.7646C16.0039 72.0952 15.6868 72.6672 15.6076 72.8424C15.5286 73.0179 15.3095 73.6341 15.8127 74.2046L30.4486 90.7954C30.6931 91.0724 31.0311 91.225 31.4008 91.225C31.7702 91.225 32.1084 91.0724 32.3527 90.7954L46.9886 74.2046C47.4921 73.6341 47.2732 73.0179 47.194 72.8424C47.1148 72.667 46.7974 72.0952 46.0367 72.0952H40.0887C39.3874 72.0952 38.8192 71.5267 38.8192 70.8256V39.8633C38.8192 39.1633 38.2497 38.5938 37.5496 38.5938H25.2519C24.5519 38.5938 23.9824 39.1633 23.9824 39.8633V70.8256Z" fill="#434DA0"/>
</svg>
