<svg width="40" height="40" viewBox="0 0 40 40" fill="none" xmlns="http://www.w3.org/2000/svg">
<g clip-path="url(#clip0)">
<path d="M35.0725 26.9314C34.4992 26.6309 33.791 26.8523 33.4907 27.4257C30.8978 32.3757 25.8186 35.4508 20.2356 35.4508C12.0003 35.4508 5.29887 28.7589 5.28277 20.5273L6.22316 21.4677C6.45199 21.6965 6.75191 21.811 7.05176 21.811C7.3516 21.811 7.6516 21.6966 7.88035 21.4677C8.33801 21.01 8.33801 20.2681 7.88035 19.8104L4.94043 16.8706C4.48285 16.4129 3.74082 16.4129 3.28316 16.8706L0.343242 19.8104C-0.114414 20.268 -0.114414 21.01 0.343242 21.4677C0.80082 21.9254 1.54285 21.9253 2.00051 21.4677L2.93895 20.5293C2.94715 25.1376 4.74527 29.4689 8.00473 32.7284C11.2717 35.9954 15.6154 37.7946 20.2356 37.7946C26.6934 37.7946 32.5679 34.2382 35.5668 28.5132C35.8672 27.9399 35.6459 27.2317 35.0725 26.9314Z" fill="#A3ACFF"/>
<path d="M39.657 18.5329C39.1994 18.0753 38.4574 18.0753 37.9998 18.5329L37.0612 19.4714C37.053 14.863 35.255 10.5318 31.9955 7.27223C28.7286 4.00527 24.3849 2.20605 19.7647 2.20605C13.3068 2.20605 7.43231 5.76246 4.4334 11.4874C4.13301 12.0607 4.35433 12.7689 4.92769 13.0693C5.50082 13.3696 6.2091 13.1482 6.50949 12.575C9.10246 7.62488 14.1816 4.5498 19.7647 4.5498C27.9998 4.5498 34.7012 11.2417 34.7175 19.4732L33.7772 18.5329C33.3196 18.0752 32.5776 18.0752 32.1199 18.5329C31.6622 18.9905 31.6622 19.7325 32.1199 20.1901L35.0598 23.13C35.2887 23.3589 35.5886 23.4733 35.8884 23.4733C36.1883 23.4733 36.4883 23.3589 36.717 23.13L39.6569 20.1901C40.1147 19.7325 40.1147 18.9905 39.657 18.5329Z" fill="#A3ACFF"/>
<path d="M21.602 18.6547C20.5418 18.2799 19.3694 17.8273 18.7119 17.3116C18.5052 17.1496 18.4159 16.7785 18.4894 16.3883C18.526 16.1936 18.6974 15.5429 19.3631 15.3423C20.4558 15.0133 21.2053 15.4498 21.4768 15.6527C21.9953 16.0402 22.7295 15.9341 23.1171 15.4158C23.5046 14.8974 23.3985 14.163 22.8802 13.7755C22.6342 13.5916 22.0181 13.1884 21.1348 12.9927V12.5156C21.1348 11.8684 20.6101 11.3438 19.9629 11.3438C19.3157 11.3438 18.791 11.8684 18.791 12.5156V13.069C18.7564 13.0787 18.722 13.0876 18.6871 13.0981C17.4036 13.4848 16.4453 14.5791 16.1862 15.9541C15.9477 17.2198 16.3612 18.4466 17.2654 19.1558C18.0104 19.7401 19.0405 20.2351 20.8209 20.8645C22.0062 21.2834 21.9805 22.2428 21.9144 22.6358C21.7805 23.4326 21.1102 24.2937 19.9551 24.3014C18.8224 24.3094 18.4694 24.2529 17.5992 23.6837C17.0577 23.3293 16.3314 23.4811 15.977 24.0227C15.6227 24.5644 15.7745 25.2906 16.3161 25.6449C17.2546 26.2589 17.9471 26.508 18.791 26.5988V27.1345C18.791 27.7816 19.3157 28.3063 19.9629 28.3063C20.6101 28.3063 21.1348 27.7816 21.1348 27.1345V26.4862C21.7804 26.3085 22.3688 25.9838 22.8716 25.5218C23.5842 24.8671 24.065 23.9802 24.2257 23.0243C24.5525 21.081 23.4981 19.3249 21.602 18.6547Z" fill="#A3ACFF"/>
</g>
<defs>
<clipPath id="clip0">
<rect width="40" height="40" fill="white"/>
</clipPath>
</defs>
</svg>
