<svg width="40" height="40" viewBox="0 0 40 40" fill="none" xmlns="http://www.w3.org/2000/svg">
<path d="M17.7344 0H1.17188C0.524687 0 0 0.524687 0 1.17188V17.6562C0 18.3034 0.524687 18.8281 1.17188 18.8281H17.7344C18.3816 18.8281 18.9062 18.3034 18.9062 17.6562V1.17188C18.9062 0.524687 18.3816 0 17.7344 0ZM16.5625 16.4844H2.34375V2.34375H16.5625V16.4844Z" fill="#A3ACFF"/>
<path d="M22.4219 7.10938H27.1094C29.0479 7.10938 30.625 8.68648 30.625 10.625V14.1406L29.2187 12.2656C28.8304 11.7479 28.0959 11.643 27.5781 12.0312C27.0604 12.4196 26.9554 13.1541 27.3437 13.6719L30.8594 18.3594C31.3281 18.9838 32.2679 18.9806 32.7344 18.3594L36.25 13.6719C36.6384 13.1541 36.5334 12.4196 36.0156 12.0312C35.498 11.6429 34.7633 11.748 34.375 12.2656L32.9687 14.1406V10.625C32.9687 7.39414 30.3402 4.76562 27.1094 4.76562H22.4219C21.7747 4.76562 21.25 5.29031 21.25 5.9375C21.25 6.58469 21.7747 7.10938 22.4219 7.10938Z" fill="#A3ACFF"/>
<path d="M30.625 21.1719C25.4556 21.1719 21.25 25.3775 21.25 30.5469C21.25 35.7594 25.4556 40 30.625 40C35.7944 40 40 35.7594 40 30.5469C40 25.3775 35.7944 21.1719 30.625 21.1719ZM30.625 37.6562C26.748 37.6562 23.5938 34.467 23.5938 30.5469C23.5938 26.6698 26.748 23.5156 30.625 23.5156C34.502 23.5156 37.6562 26.6698 37.6562 30.5469C37.6562 34.467 34.502 37.6562 30.625 37.6562Z" fill="#A3ACFF"/>
<path d="M17.7344 32.8909H13.0469C11.1084 32.8909 9.53132 31.3138 9.53132 29.3753V25.8596L10.9376 27.7346C11.3241 28.2499 12.058 28.3592 12.5782 27.969C13.0959 27.5807 13.2009 26.8461 12.8126 26.3284L9.29695 21.6409C9.29265 21.6352 9.28757 21.6302 9.28312 21.6246C9.26531 21.6018 9.24648 21.5797 9.22703 21.5582C8.73961 21.0193 7.88359 21.0494 7.4357 21.6246C7.43132 21.6302 7.42625 21.6352 7.42195 21.6409L3.90632 26.3284C3.51796 26.8461 3.62296 27.5807 4.1407 27.969C4.65851 28.3575 5.39312 28.2524 5.78132 27.7346L7.18757 25.8596V29.3753C7.18757 32.6061 9.81609 35.2346 13.0469 35.2346H17.7344C18.3816 35.2346 18.9063 34.71 18.9063 34.0628C18.9063 33.4156 18.3816 32.8909 17.7344 32.8909Z" fill="#A3ACFF"/>
</svg>
