<svg width="40" height="40" viewBox="0 0 40 40" fill="none" xmlns="http://www.w3.org/2000/svg">
<g clip-path="url(#clip0)">
<path d="M23.0756 16.1733C23.6838 16.3947 24.3562 16.0811 24.5776 15.4729C24.799 14.8648 24.4854 14.1923 23.8772 13.9709C23.269 13.7495 22.5966 14.0632 22.3752 14.6713C22.1538 15.2795 22.4674 15.952 23.0756 16.1733Z" fill="#A3ACFF"/>
<path d="M10.6624 9.16132C10.0542 8.93999 9.38178 9.2535 9.16037 9.86171C8.93896 10.4699 9.25256 11.1424 9.86076 11.3637C10.469 11.5851 11.1414 11.2715 11.3628 10.6633C11.5842 10.0551 11.2706 9.38264 10.6624 9.16132Z" fill="#A3ACFF"/>
<path d="M33.2173 9.95143C29.3287 6.86551 24.4703 5.02934 19.3064 4.88825C14.8464 4.76638 10.4008 3.1206 6.78853 0.253972C6.49393 0.0201452 6.10518 -0.0579795 5.74323 0.0436607C5.3812 0.145379 5.09002 0.414597 4.96026 0.767486L0.0725449 14.06C-0.101986 14.5348 0.0477013 15.0679 0.44395 15.3823C4.38323 18.5085 9.35126 20.3066 14.433 20.4455C14.5735 20.4494 14.7138 20.4548 14.854 20.4614C11.9692 21.2933 9.23055 22.6758 6.78361 24.6176C6.38908 24.9307 6.23877 25.4607 6.4101 25.9343L11.2197 39.2268C11.348 39.5814 11.6391 39.8526 12.0019 39.9555C12.3632 40.058 12.7537 39.9813 13.0501 39.746C16.6623 36.8795 21.108 35.2336 25.5681 35.1117C30.6497 34.9729 35.6177 33.1748 39.557 30.0485C39.9539 29.7336 40.1034 29.1992 39.9276 28.7241L35.0399 15.5097C34.9096 15.1574 34.6183 14.8889 34.2566 14.7877C33.8949 14.6865 33.5065 14.7649 33.2124 14.9983C32.7808 15.3408 32.3357 15.6652 31.879 15.9717L33.5902 11.2701C33.7626 10.7961 33.6124 10.2649 33.2173 9.95143ZM14.4969 18.1027C10.2027 17.9853 6.00096 16.5546 2.57105 14.0561L6.62033 3.04404C10.3736 5.63356 14.7987 7.10973 19.2424 7.23113C23.4885 7.34715 27.664 8.77863 31.0926 11.2792L28.7546 17.7027C26.5672 18.6839 24.2155 19.2951 21.8216 19.4917C19.4659 18.6391 17.0033 18.1711 14.4969 18.1027ZM33.3827 17.7856L37.4283 28.7233C33.9989 31.2209 29.7973 32.6515 25.504 32.7688C21.0629 32.8901 16.6405 34.3645 12.8887 36.9511L8.90681 25.9463C14.2502 22.0485 19.1286 22.0301 21.7361 21.8498C21.7462 21.8492 21.7563 21.8483 21.7664 21.8475C25.9532 21.5529 29.964 20.1379 33.3827 17.7856Z" fill="#A3ACFF"/>
<path d="M18.0714 9.36324C16.2455 8.69871 14.2299 9.63824 13.5652 11.4645C12.9023 13.2861 13.8449 15.3075 15.6664 15.9704C17.4993 16.6374 19.5102 15.6887 20.1725 13.8693C20.8371 12.0435 19.8974 10.0279 18.0714 9.36324ZM17.97 13.0676C17.749 13.6747 17.0755 13.9892 16.468 13.768C15.8609 13.547 15.5466 12.8732 15.7676 12.2661C15.9887 11.6587 16.6625 11.3447 17.2697 11.5657C17.8782 11.7872 18.1917 12.459 17.97 13.0676Z" fill="#A3ACFF"/>
<path d="M16.1225 28.6364C15.5143 28.8577 15.2007 29.5302 15.4221 30.1384C15.6435 30.7467 16.3159 31.0602 16.9241 30.8388C17.5323 30.6175 17.8459 29.945 17.6245 29.3368C17.4031 28.7287 16.7306 28.4151 16.1225 28.6364Z" fill="#A3ACFF"/>
<path d="M30.1385 26.0293C30.7467 25.808 31.0603 25.1355 30.8389 24.5273C30.6175 23.9191 29.945 23.6055 29.3368 23.8269C28.7286 24.0483 28.415 24.7207 28.6364 25.3289C28.8578 25.937 29.5303 26.2506 30.1385 26.0293Z" fill="#A3ACFF"/>
<path d="M21.9279 24.0296C20.102 24.6941 19.162 26.7096 19.8266 28.5356C20.4912 30.3614 22.5065 31.3015 24.3326 30.6369C26.1542 29.9739 27.0968 27.9525 26.4339 26.1308C25.7709 24.3091 23.7493 23.3666 21.9279 24.0296ZM23.5311 28.4344C22.9241 28.6554 22.2501 28.3412 22.0291 27.734C21.8075 27.1255 22.1207 26.4536 22.7295 26.2319C23.3366 26.0109 24.0104 26.3251 24.2315 26.9323C24.4525 27.5396 24.1383 28.2133 23.5311 28.4344Z" fill="#A3ACFF"/>
</g>
<defs>
<clipPath id="clip0">
<rect width="40" height="40" fill="white"/>
</clipPath>
</defs>
</svg>
