<svg width="40" height="40" viewBox="0 0 40 40" fill="none" xmlns="http://www.w3.org/2000/svg">
<path d="M34.7895 4.73587C34.4567 3.97368 34.0028 3.26133 33.4374 2.62977C31.9409 0.958517 29.7962 0 27.5529 0H12.4467C10.2035 0 8.05864 0.958517 6.56231 2.62977C5.99691 3.26126 5.54309 3.9736 5.21019 4.73579C3.11035 5.03149 1.60706 6.95119 1.84206 9.07299L3.78621 26.6274C3.91605 27.8 4.54918 28.8029 5.4559 29.4328L4.68215 37.2214C4.59808 38.0674 4.94129 38.8933 5.6002 39.4305C6.05817 39.804 6.62207 40 7.1959 40C7.4477 40 7.70137 39.9623 7.94887 39.8852C8.69372 39.6536 9.29966 39.0784 9.56973 38.3464L12.5993 30.1362H27.4002L30.4298 38.3465C30.6999 39.0784 31.3058 39.6536 32.0505 39.8852C32.2981 39.9622 32.5518 40 32.8036 40C33.3774 40 33.9413 39.804 34.3993 39.4305C35.0582 38.8933 35.4014 38.0674 35.3174 37.2213L34.5436 29.4328C35.4503 28.803 36.0835 27.8001 36.2133 26.6274L38.1574 9.07299C38.3925 6.95126 36.8893 5.03157 34.7895 4.73587ZM8.3084 4.19321C9.36075 3.0179 10.869 2.34375 12.4467 2.34375H27.5529C29.1305 2.34375 30.6388 3.01782 31.6912 4.19313C31.9584 4.49149 32.1898 4.81571 32.3842 5.15884C32.1713 5.27282 31.9671 5.40642 31.7746 5.56056C30.9523 6.21892 30.4356 7.1579 30.3196 8.2047L30.2716 8.63885L29.5236 15.3927H10.4761L9.72809 8.63885L9.68005 8.20478C9.56411 7.15798 9.04747 6.21884 8.2252 5.56032C8.0327 5.4061 7.8284 5.27251 7.61567 5.15853C7.80997 4.81563 8.04137 4.49149 8.3084 4.19321ZM29.2639 17.7365L28.764 22.2504H11.2355L10.7356 17.7365H29.2639ZM7.37098 37.5351C7.35129 37.5885 7.30715 37.6305 7.25278 37.6473C7.19004 37.667 7.13231 37.6557 7.08145 37.6142C7.03051 37.5727 7.00801 37.5185 7.01457 37.4531L7.74145 30.1364H10.1011L7.37098 37.5351ZM32.9181 37.6142C32.8673 37.6557 32.8096 37.667 32.7467 37.6473C32.6924 37.6305 32.6483 37.5885 32.6286 37.5352L29.8984 30.1364H32.2581L32.9849 37.4531C32.9916 37.5186 32.9691 37.5727 32.9181 37.6142ZM35.828 8.81486L33.8838 26.3694C33.794 27.1808 33.1107 27.7926 32.2944 27.7926H7.7052C6.88895 27.7926 6.20567 27.1808 6.11574 26.3694L4.17152 8.81494C4.07449 7.93853 4.70855 7.14658 5.58598 7.04931C5.64613 7.04259 5.70613 7.03923 5.76582 7.03923C6.12645 7.03923 6.47403 7.16087 6.76004 7.38986C7.09371 7.65705 7.30332 8.03806 7.35036 8.46283L9.02137 23.5513C9.08708 24.145 9.5888 24.5942 10.1861 24.5942H29.8131C30.4105 24.5942 30.9121 24.145 30.9779 23.5513L32.6489 8.46275C32.6959 8.03814 32.9056 7.65728 33.2392 7.39025C33.5727 7.1233 33.99 7.00251 34.4141 7.04931C34.4142 7.04931 34.4142 7.04939 34.4144 7.04939C35.291 7.14634 35.925 7.93845 35.828 8.81486Z" fill="#A3ACFF"/>
</svg>
