<svg width="24" height="24" viewBox="0 0 24 24" fill="none" xmlns="http://www.w3.org/2000/svg">
<g clip-path="url(#clip0_119:1660)">
<path d="M12 24.0002C18.6274 24.0002 24 18.6276 24 12.0002C24 5.3728 18.6274 0.000213623 12 0.000213623C5.37258 0.000213623 0 5.3728 0 12.0002C0 18.6276 5.37258 24.0002 12 24.0002Z" fill="#F0F0F0"/>
<path d="M2.48032 4.69437C1.53771 5.92076 0.826945 7.33428 0.413086 8.86986H6.6558L2.48032 4.69437Z" fill="#0052B4"/>
<path d="M23.5864 8.86986C23.1725 7.33433 22.4617 5.92081 21.5191 4.69442L17.3438 8.86986H23.5864Z" fill="#0052B4"/>
<path d="M0.413086 15.1307C0.826992 16.6662 1.53776 18.0798 2.48032 19.3061L6.65566 15.1307H0.413086Z" fill="#0052B4"/>
<path d="M19.3053 2.48089C18.0789 1.53828 16.6655 0.827511 15.1299 0.413605V6.65628L19.3053 2.48089Z" fill="#0052B4"/>
<path d="M4.69434 21.5195C5.92073 22.4622 7.33424 23.1729 8.86977 23.5868V17.3442L4.69434 21.5195Z" fill="#0052B4"/>
<path d="M8.86973 0.413605C7.33419 0.827511 5.92068 1.53828 4.69434 2.48084L8.86973 6.65623V0.413605Z" fill="#0052B4"/>
<path d="M15.1299 23.5868C16.6654 23.1729 18.0789 22.4622 19.3053 21.5196L15.1299 17.3442V23.5868Z" fill="#0052B4"/>
<path d="M17.3438 15.1307L21.5191 19.3062C22.4617 18.0798 23.1725 16.6662 23.5864 15.1307H17.3438Z" fill="#0052B4"/>
<path d="M23.8984 10.435H13.5653H13.5652V0.101792C13.0529 0.0350886 12.5305 0.000213623 12 0.000213623C11.4694 0.000213623 10.9471 0.0350886 10.4348 0.101792V10.4349V10.435H0.101578C0.034875 10.9474 0 11.4697 0 12.0002C0 12.5308 0.034875 13.0531 0.101578 13.5654H10.4347H10.4348V23.8986C10.9471 23.9653 11.4694 24.0002 12 24.0002C12.5305 24.0002 13.0529 23.9654 13.5652 23.8986V13.5655V13.5655H23.8984C23.9651 13.0531 24 12.5308 24 12.0002C24 11.4697 23.9651 10.9474 23.8984 10.435Z" fill="#D80027"/>
<path d="M15.1309 15.1307L20.4857 20.4855C20.732 20.2393 20.9669 19.9819 21.191 19.7151L16.6066 15.1307H15.1309V15.1307Z" fill="#D80027"/>
<path d="M8.8695 15.1307H8.86941L3.51465 20.4855C3.76084 20.7318 4.01823 20.9667 4.28504 21.1909L8.8695 16.6063V15.1307Z" fill="#D80027"/>
<path d="M8.86976 8.86985V8.86976L3.51495 3.51489C3.26866 3.76108 3.03373 4.01847 2.80957 4.28528L7.39408 8.8698H8.86976V8.86985Z" fill="#D80027"/>
<path d="M15.1309 8.86986L20.4857 3.51495C20.2395 3.26867 19.9821 3.03373 19.7153 2.80962L15.1309 7.39414V8.86986Z" fill="#D80027"/>
</g>
<defs>
<clipPath id="clip0_119:1660">
<rect width="24" height="24" fill="white" transform="translate(0 0.000213623)"/>
</clipPath>
</defs>
</svg>
