<svg width="91" height="90" viewBox="0 0 91 90" fill="none" xmlns="http://www.w3.org/2000/svg">
<g clip-path="url(#clip0)">
<path d="M84.1402 19.517C84.1402 15.7795 81.0823 12.7216 77.3448 12.7216H26.3765C22.639 12.7216 19.5811 15.7795 19.5811 19.517V82.9414C19.5811 86.6789 22.639 89.7369 26.3765 89.7369H64.8809L84.1347 71.6156L84.1402 19.517Z" fill="#E8E9EF"/>
<path d="M19.5814 19.517C19.5814 15.7795 22.6394 12.7215 26.3769 12.7215H71.6822V7.05865C71.6822 3.32115 68.6243 0.263184 64.8867 0.263184H13.9185C10.181 0.263184 7.12305 3.32115 7.12305 7.05865V70.483C7.12305 74.2206 10.181 77.2785 13.9185 77.2785H19.5814V19.517Z" fill="#A3ACFF"/>
<path d="M71.6773 71.6156H84.1357L64.8818 89.7369V78.4111C64.8818 74.6736 67.9398 71.6156 71.6773 71.6156Z" fill="#F7F8FC"/>
<path d="M36.57 42.7349H67.1496C68.0886 42.7349 68.8484 41.9737 68.8484 41.036C68.8484 40.0972 68.0884 39.3372 67.1496 39.3372H36.57C35.6312 39.3372 34.8711 40.0972 34.8711 41.036C34.8711 41.9737 35.6309 42.7349 36.57 42.7349Z" fill="#BFC4D6"/>
<path d="M36.57 31.4091H67.1496C68.0886 31.4091 68.8484 30.6479 68.8484 29.7102C68.8484 28.7714 68.0884 28.0114 67.1496 28.0114H36.57C35.6312 28.0114 34.8711 28.7714 34.8711 29.7102C34.8711 30.6479 35.6309 31.4091 36.57 31.4091Z" fill="#BFC4D6"/>
<path d="M36.57 54.0607H67.1496C68.0886 54.0607 68.8484 53.2995 68.8484 52.3618C68.8484 51.423 68.0884 50.663 67.1496 50.663H36.57C35.6312 50.663 34.8711 51.423 34.8711 52.3618C34.8711 53.2995 35.6309 54.0607 36.57 54.0607Z" fill="#BFC4D6"/>
<path d="M36.57 65.3865H53.5586C54.4974 65.3865 55.2575 64.6253 55.2575 63.6876C55.2575 62.7486 54.4974 61.9888 53.5586 61.9888H36.57C35.6312 61.9888 34.8711 62.7486 34.8711 63.6876C34.8711 64.6253 35.6309 65.3865 36.57 65.3865Z" fill="#BFC4D6"/>
</g>
<defs>
<clipPath id="clip0">
<rect width="89.4737" height="89.4737" fill="white" transform="translate(0.89502 0.263184)"/>
</clipPath>
</defs>
</svg>
