<svg width="24" height="24" viewBox="0 0 24 24" fill="none" xmlns="http://www.w3.org/2000/svg">
<g clip-path="url(#clip0)">
<path d="M11.2518 0.932594C11.6639 1.20583 12.3382 1.20583 12.7497 0.932594L13.8378 0.209594C14.2497 -0.0640149 14.8031 0.0540632 15.068 0.471673L15.7679 1.57553C16.0327 1.99291 16.6483 2.26698 17.1358 2.18453L18.4241 1.96623C18.9116 1.88369 19.3698 2.21617 19.4415 2.70531L19.6326 3.99592C19.7051 4.48516 20.1555 4.98677 20.6346 5.11014L21.8988 5.4362C22.378 5.56005 22.6608 6.05106 22.5277 6.52727L22.1776 7.78197C22.0446 8.25813 22.2526 8.89952 22.6401 9.20697L23.6663 10.021C24.0537 10.3285 24.1124 10.8914 23.7972 11.2727L22.9641 12.2784C22.6489 12.6592 22.5785 13.3296 22.8074 13.7678L23.4124 14.9245C23.6413 15.363 23.4668 15.9016 23.0239 16.1214L21.8535 16.7023C21.4106 16.9222 21.0739 17.5061 21.1047 17.9996L21.1856 19.3024C21.2169 19.7957 20.8376 20.217 20.3433 20.2381L19.0386 20.2933C18.5447 20.3144 17.9996 20.7109 17.8269 21.1746L17.373 22.3973C17.2004 22.861 16.6832 23.0917 16.2234 22.9098L15.008 22.4293C14.5485 22.2473 13.8891 22.3873 13.543 22.7407L12.6302 23.6731C12.284 24.0263 11.7179 24.0263 11.3715 23.6736L10.4572 22.7406C10.1109 22.3875 9.45149 22.2475 8.99174 22.4294L7.77688 22.9099C7.31718 23.092 6.79996 22.8613 6.62765 22.3974L6.17273 21.1747C6.00027 20.7111 5.45512 20.3145 4.96096 20.2934L3.6568 20.2382C3.16251 20.217 2.78366 19.7957 2.81451 19.3025L2.89612 17.9997C2.92682 17.5064 2.58965 16.9223 2.14682 16.7024L0.97682 16.1215C0.534038 15.9016 0.35896 15.3632 0.588038 14.9246L1.1931 13.7679C1.42204 13.3297 1.35163 12.6594 1.03602 12.2788L0.202819 11.2718C-0.112556 10.8912 -0.053493 10.3283 0.333741 10.0208L1.36021 9.20674C1.74744 8.89928 1.95566 8.25827 1.82282 7.78188L1.47182 6.52666C1.33888 6.0505 1.62182 5.55981 2.10051 5.43672L3.36566 5.10995C3.84435 4.98672 4.29543 4.48511 4.36766 3.99588L4.55859 2.70527C4.63096 2.21613 5.08888 1.88364 5.57629 1.96619L6.86474 2.18448C7.35229 2.26694 7.9678 1.99286 8.23227 1.57548L8.93188 0.471626C9.19635 0.0540163 9.75018 -0.0640618 10.1624 0.209548L11.2518 0.932594Z" fill="#A3ACFF"/>
<path opacity="0.4" d="M19.7648 12.013C19.7648 16.3015 16.288 19.7779 12 19.7779C7.71212 19.7779 4.23535 16.3015 4.23535 12.013C4.23535 7.72587 7.71198 4.24939 12 4.24939C16.288 4.24939 19.7648 7.72587 19.7648 12.013Z" fill="#434DA0"/>
<path d="M10.7057 15.6403L7.59766 12.5322L8.63312 11.4962L10.7057 13.5684L15.3674 8.90601L16.4029 9.94232L10.7057 15.6403Z" fill="white"/>
</g>
<defs>
<clipPath id="clip0">
<rect width="24" height="24" fill="white"/>
</clipPath>
</defs>
</svg>
