<svg width="178" height="178" viewBox="0 0 178 178" fill="none" xmlns="http://www.w3.org/2000/svg">
<g clip-path="url(#clip0_84:1559)">
<path d="M110.538 0.147689C77.2259 3.15561 74.0024 67.0465 59.6352 99.7814C52.5159 116.002 35.7262 132.737 38.6861 151.854C42.0253 173.421 64.0292 179.693 80.99 177.629C122.96 172.524 141.099 128.591 143.845 86.9602C145.538 61.2931 150.903 -3.49714 110.538 0.147689Z" fill="#F7F8FC"/>
<path opacity="0.11" d="M151.604 48.4384H60.7075V39.8481C60.7075 37.928 59.1511 36.3716 57.231 36.3716H30.1332C28.2131 36.3716 26.6567 37.928 26.6567 39.8481V48.4384H17.5342C13.5014 48.4384 10.2334 51.7064 10.2334 55.7392V137.237C10.2334 141.27 13.5014 144.538 17.5342 144.538H107.984V152.119C107.984 154.039 109.541 155.595 111.461 155.595H138.559C140.479 155.595 142.035 154.039 142.035 152.119V144.538H151.605C155.637 144.538 158.905 141.27 158.905 137.237V55.7392C158.905 51.7064 155.637 48.4384 151.604 48.4384Z" fill="#434DA0"/>
<path d="M166.029 48.251V129.749C166.029 133.781 162.761 137.049 158.728 137.049H24.6582C20.6254 137.049 17.3574 133.781 17.3574 129.749V48.251C17.3574 44.2182 20.6254 40.9502 24.6582 40.9502H158.728C162.761 40.9502 166.029 44.2182 166.029 48.251Z" fill="white"/>
<path d="M139.84 103.265H166.03V90.269H139.84C138.88 90.269 138.102 91.0474 138.102 92.0073V101.527C138.102 102.487 138.88 103.265 139.84 103.265Z" fill="#A3ACFF"/>
<path d="M17.3574 59.1016H166.029V82.5857H17.3574V59.1016Z" fill="#A3ACFF"/>
<path d="M64.3555 62.9341H37.2578C35.3377 62.9341 33.7812 61.3777 33.7812 59.4576V32.3599C33.7812 30.4398 35.3377 28.8833 37.2578 28.8833H64.3555C66.2756 28.8833 67.8321 30.4398 67.8321 32.3599V59.4576C67.8321 61.3777 66.2753 62.9341 64.3555 62.9341Z" fill="#A3ACFF"/>
<path d="M145.683 148.107H118.585C116.665 148.107 115.108 146.551 115.108 144.631V117.533C115.108 115.613 116.665 114.057 118.585 114.057H145.683C147.603 114.057 149.159 115.613 149.159 117.533V144.631C149.159 146.551 147.603 148.107 145.683 148.107Z" fill="#A3ACFF"/>
<path d="M34.6193 112.883H28.876C27.9158 112.883 27.1377 112.104 27.1377 111.145C27.1377 110.185 27.9158 109.406 28.876 109.406H34.6193C35.5795 109.406 36.3575 110.185 36.3575 111.145C36.3575 112.104 35.5791 112.883 34.6193 112.883Z" fill="#434DA0"/>
<path d="M76.6036 121.922H28.876C27.9157 121.922 27.1377 121.143 27.1377 120.184C27.1377 119.224 27.9157 118.445 28.876 118.445H76.6036C77.5638 118.445 78.3419 119.224 78.3419 120.184C78.3419 121.143 77.5638 121.922 76.6036 121.922Z" fill="#434DA0"/>
<path d="M76.6036 128.555H28.876C27.9157 128.555 27.1377 127.777 27.1377 126.817C27.1377 125.857 27.9157 125.079 28.876 125.079H76.6036C77.5638 125.079 78.3419 125.857 78.3419 126.817C78.3419 127.777 77.5638 128.555 76.6036 128.555Z" fill="#434DA0"/>
<path d="M115.648 72.7877C116.721 72.7877 117.591 71.9176 117.591 70.8443C117.591 69.771 116.721 68.9009 115.648 68.9009C114.575 68.9009 113.705 69.771 113.705 70.8443C113.705 71.9176 114.575 72.7877 115.648 72.7877Z" fill="#434DA0"/>
<path d="M121.527 72.7877C122.6 72.7877 123.47 71.9176 123.47 70.8443C123.47 69.771 122.6 68.9009 121.527 68.9009C120.454 68.9009 119.583 69.771 119.583 70.8443C119.583 71.9176 120.454 72.7877 121.527 72.7877Z" fill="#434DA0"/>
<path d="M127.405 72.7877C128.479 72.7877 129.349 71.9176 129.349 70.8443C129.349 69.771 128.479 68.9009 127.405 68.9009C126.332 68.9009 125.462 69.771 125.462 70.8443C125.462 71.9176 126.332 72.7877 127.405 72.7877Z" fill="#434DA0"/>
<path d="M53.083 44.1701H52.5449V40.5959H54.8084C55.7683 40.5959 56.5467 39.8175 56.5467 38.8576C56.5467 37.8977 55.7683 37.1193 54.8084 37.1193H52.5449V36.2324C52.5449 35.2725 51.7665 34.4941 50.8066 34.4941C49.8467 34.4941 49.0683 35.2725 49.0683 36.2324V37.1193H48.5301C45.6279 37.1193 43.2666 39.4806 43.2666 42.3832C43.2666 45.2854 45.6279 47.6467 48.5301 47.6467H49.0683V51.2209H46.8047C45.8448 51.2209 45.0664 51.9993 45.0664 52.9592C45.0664 53.9191 45.8448 54.6975 46.8047 54.6975H49.0683V55.5844C49.0683 56.5442 49.8467 57.3226 50.8066 57.3226C51.7665 57.3226 52.5449 56.5442 52.5449 55.5844V54.6975H53.083C55.9856 54.6975 58.3469 52.3362 58.3469 49.4336C58.3469 46.5314 55.9856 44.1701 53.083 44.1701ZM48.5298 44.1701C47.5445 44.1701 46.7428 43.3684 46.7428 42.3832C46.7428 41.3979 47.5445 40.5959 48.5298 40.5959H49.0679V44.1701H48.5298ZM53.083 51.2206H52.5449V47.6463H53.083C54.0683 47.6463 54.8703 48.448 54.8703 49.4333C54.8703 50.4185 54.0683 51.2206 53.083 51.2206Z" fill="#434DA0"/>
<path d="M158.728 39.2108H69.5705V32.3599C69.5705 29.4844 67.2311 27.145 64.3556 27.145H37.2579C34.3824 27.145 32.0431 29.4844 32.0431 32.3599V39.2111H24.6592C19.6752 39.2111 15.6201 43.2662 15.6201 48.2502V112.275C15.6201 113.235 16.3985 114.014 17.3584 114.014C18.3183 114.014 19.0967 113.235 19.0967 112.275V84.3251H164.291V129.75C164.291 132.817 161.795 135.312 158.728 135.312H150.898V117.533C150.898 114.657 148.559 112.318 145.683 112.318H118.585C115.71 112.318 113.371 114.657 113.371 117.533V135.312H24.6592C21.5922 135.312 19.0967 132.817 19.0967 129.75V122.044C19.0967 121.085 18.3183 120.306 17.3584 120.306C16.3985 120.306 15.6201 121.085 15.6201 122.044V129.75C15.6201 134.734 19.6752 138.789 24.6592 138.789H113.37V144.631C113.37 147.506 115.71 149.846 118.585 149.846H145.683C148.558 149.846 150.898 147.506 150.898 144.631V138.789H158.728C163.712 138.789 167.767 134.734 167.767 129.75V48.2498C167.767 43.2658 163.712 39.2108 158.728 39.2108ZM147.421 144.631C147.421 145.589 146.641 146.369 145.683 146.369H118.585C117.627 146.369 116.847 145.589 116.847 144.631V117.533C116.847 116.574 117.627 115.795 118.585 115.795H145.683C146.641 115.795 147.421 116.574 147.421 117.533V144.631ZM35.5196 32.3599C35.5196 31.4014 36.2994 30.6216 37.2579 30.6216H64.3556C65.3141 30.6216 66.0939 31.4014 66.0939 32.3599V59.4576C66.0939 60.4161 65.3141 61.1959 64.3556 61.1959H37.2579C36.2994 61.1959 35.5196 60.4161 35.5196 59.4576V32.3599ZM24.6592 42.6873H32.0431V57.363H19.0967V48.2498C19.0967 45.1828 21.5918 42.6873 24.6592 42.6873ZM19.0967 80.8489V60.8395H32.235C32.843 63.0454 34.8615 64.6724 37.2579 64.6724H64.3556C67.2311 64.6724 69.5705 62.333 69.5705 59.4576V42.6873H158.728C161.795 42.6873 164.291 45.1828 164.291 48.2498V57.363H78.3418C77.3819 57.363 76.6035 58.1414 76.6035 59.1012C76.6035 60.0611 77.3819 60.8395 78.3418 60.8395H164.29V80.8489H19.0967Z" fill="#434DA0"/>
<path d="M126.166 129.638C123.672 129.638 121.643 127.609 121.643 125.114C121.643 122.62 123.672 120.591 126.166 120.591C128.66 120.591 130.69 122.62 130.69 125.114C130.69 127.609 128.66 129.638 126.166 129.638ZM126.166 124.068C125.589 124.068 125.12 124.537 125.12 125.115C125.12 125.692 125.589 126.161 126.166 126.161C126.744 126.161 127.213 125.692 127.213 125.115C127.213 124.537 126.744 124.068 126.166 124.068Z" fill="#434DA0"/>
<path d="M138.101 141.573C135.607 141.573 133.578 139.544 133.578 137.049C133.578 134.555 135.607 132.526 138.101 132.526C140.595 132.526 142.624 134.555 142.624 137.049C142.624 139.544 140.595 141.573 138.101 141.573ZM138.101 136.002C137.524 136.002 137.054 136.472 137.054 137.049C137.054 137.626 137.524 138.096 138.101 138.096C138.678 138.096 139.148 137.626 139.148 137.049C139.148 136.472 138.678 136.002 138.101 136.002Z" fill="#434DA0"/>
<path d="M127.2 137.754C126.755 137.754 126.31 137.585 125.971 137.245C125.292 136.567 125.292 135.466 125.971 134.787L135.839 124.919C136.517 124.24 137.619 124.24 138.297 124.919C138.976 125.598 138.976 126.698 138.297 127.377L128.429 137.245C128.089 137.585 127.644 137.754 127.2 137.754Z" fill="#434DA0"/>
<path d="M79.3496 18.4258H78.2197V17.2959C78.2197 16.336 77.4413 15.5576 76.4814 15.5576C75.5216 15.5576 74.7432 16.336 74.7432 17.2959V18.4258H73.6133C72.6534 18.4258 71.875 19.2042 71.875 20.1641C71.875 21.1239 72.6534 21.9023 73.6133 21.9023H74.7432V23.0322C74.7432 23.9921 75.5216 24.7705 76.4814 24.7705C77.4413 24.7705 78.2197 23.9921 78.2197 23.0322V21.9023H79.3496C80.3095 21.9023 81.0879 21.1239 81.0879 20.1641C81.0879 19.2042 80.3095 18.4258 79.3496 18.4258Z" fill="#A3ACFF"/>
<path d="M158.197 156.098H157.067V154.968C157.067 154.008 156.289 153.229 155.329 153.229C154.369 153.229 153.591 154.008 153.591 154.968V156.098H152.461C151.501 156.098 150.723 156.876 150.723 157.836C150.723 158.796 151.501 159.574 152.461 159.574H153.591V160.704C153.591 161.664 154.369 162.442 155.329 162.442C156.289 162.442 157.067 161.664 157.067 160.704V159.574H158.197C159.157 159.574 159.936 158.796 159.936 157.836C159.936 156.876 159.157 156.098 158.197 156.098Z" fill="#A3ACFF"/>
<path d="M74.0054 152.531H72.8755V151.401C72.8755 150.441 72.0971 149.663 71.1372 149.663C70.1773 149.663 69.3989 150.441 69.3989 151.401V152.531H68.269C67.3092 152.531 66.5308 153.309 66.5308 154.269C66.5308 155.229 67.3092 156.007 68.269 156.007H69.3989V157.137C69.3989 158.097 70.1773 158.875 71.1372 158.875C72.0971 158.875 72.8755 158.097 72.8755 157.137V156.007H74.0054C74.9653 156.007 75.7437 155.229 75.7437 154.269C75.7437 153.309 74.9653 152.531 74.0054 152.531Z" fill="#A3ACFF"/>
<path d="M86.2049 166.119C85.7067 166.119 85.2005 166.045 84.7006 165.889C82.0278 165.058 80.5291 162.207 81.3603 159.534C81.7629 158.239 82.6456 157.179 83.8461 156.548C85.0465 155.917 86.4208 155.791 87.7155 156.194C89.0101 156.596 90.0708 157.479 90.7018 158.68C91.3325 159.88 91.4583 161.254 91.0558 162.549C90.3799 164.722 88.3694 166.119 86.2049 166.119ZM86.206 159.441C85.9501 159.441 85.6963 159.503 85.4634 159.625C85.0851 159.824 84.8066 160.159 84.6797 160.567C84.418 161.409 84.8901 162.308 85.7328 162.57C86.5748 162.832 87.4735 162.36 87.736 161.517C87.8629 161.109 87.8232 160.676 87.6244 160.298C87.4255 159.919 87.0911 159.641 86.6829 159.514C86.5265 159.465 86.3659 159.441 86.206 159.441Z" fill="#A3ACFF"/>
<path d="M155.326 33.962C154.828 33.962 154.321 33.8879 153.822 33.7325C151.149 32.9013 149.65 30.0505 150.481 27.3774C151.313 24.7043 154.162 23.2059 156.837 24.0371C159.51 24.8683 161.008 27.7191 160.177 30.3923C159.501 32.5651 157.49 33.962 155.326 33.962ZM155.33 27.2842C154.648 27.2842 154.014 27.7243 153.801 28.4096C153.539 29.2519 154.011 30.1506 154.854 30.4128C155.698 30.6752 156.595 30.2021 156.857 29.3597C157.119 28.517 156.647 27.6187 155.805 27.3565C155.647 27.3075 155.487 27.2842 155.33 27.2842ZM158.517 29.876H158.52H158.517Z" fill="#A3ACFF"/>
</g>
<defs>
<clipPath id="clip0_84:1559">
<rect width="178" height="178" fill="white"/>
</clipPath>
</defs>
</svg>
