<svg width="178" height="178" viewBox="0 0 178 178" fill="none" xmlns="http://www.w3.org/2000/svg">
<g clip-path="url(#clip0_84:1600)">
<path d="M158.466 4.6015C154.585 -0.121408 140.45 -1.77034 133.489 2.34243C95.5739 24.744 103.408 107.286 62.5483 99.5895C49.3016 97.0944 51.6973 80.2703 30.5688 76.4554C20.2086 74.5851 3.42692 86.0282 1.37366 106.803C-0.672294 127.506 6.83986 167.731 34.9486 175.651C74.0721 186.674 80.4293 156.08 115.331 142.336C130.614 136.318 137.964 160.819 161.084 154.692C167.937 152.876 173.076 136.496 170.265 127.861C164.971 111.592 139.636 110.704 156.408 88.9314C170.854 70.1785 181.796 45.2164 174.747 36.2914C171.49 32.1689 161.831 37.0128 156.112 26.0738C153.611 21.288 166.305 14.1405 158.466 4.6015Z" fill="#F7F8FC"/>
<path opacity="0.1" d="M89 115.605C100.622 115.605 110.043 106.184 110.043 94.5625C110.043 82.9408 100.622 73.5195 89 73.5195C77.3783 73.5195 67.957 82.9408 67.957 94.5625C67.957 106.184 77.3783 115.605 89 115.605Z" fill="#434DA0"/>
<path opacity="0.1" d="M169.365 74.7247C170.852 72.288 168.931 69.1963 166.088 69.4508L153.408 70.5855V57.2567C153.408 42.2279 141.225 30.045 126.196 30.045H108.125C106.205 30.045 104.649 31.6014 104.649 33.5215V35.8561L69.1626 14.1981C66.7255 12.7101 63.6348 14.6327 63.8886 17.473L65.022 30.1555H51.6928C36.6637 30.1555 24.4818 42.3374 24.4818 57.3666V75.4378C24.4818 77.3568 26.0393 78.9143 27.9583 78.9143H30.2911L8.63561 114.4C7.14764 116.837 9.07018 119.927 11.9105 119.674L24.593 118.54V131.869C24.593 146.899 36.7749 159.08 51.8041 159.08H69.8753C71.7943 159.08 73.3518 157.523 73.3518 155.604V153.271L108.837 174.927C111.274 176.415 114.365 174.492 114.111 171.652L112.978 158.969H126.307C141.336 158.969 153.518 146.787 153.518 131.758V113.687C153.518 111.768 151.96 110.21 150.041 110.21H147.709L169.365 74.7247ZM138.249 110.21H136.135C134.216 110.21 132.659 111.768 132.659 113.687V131.758C132.659 135.266 129.815 138.11 126.307 138.11H112.978L114.111 125.431C114.365 122.587 111.274 120.668 108.837 122.152L73.3518 143.811V141.698C73.3518 139.779 71.7943 138.221 69.8753 138.221H51.8041C48.2962 138.221 45.4524 135.377 45.4524 131.869V118.54L58.1314 119.674C60.9753 119.927 62.8943 116.837 61.4098 114.4L39.7508 78.9143H41.8646C43.7837 78.9143 45.3412 77.3568 45.3412 75.4378V57.3666C45.3412 53.8587 48.185 51.0149 51.6928 51.0149H65.022L63.8886 63.6939C63.6348 66.5378 66.7255 68.4568 69.1626 66.9723L104.649 45.3116V47.4274C104.649 49.3476 106.205 50.904 108.125 50.904H126.196C129.705 50.904 132.549 53.7482 132.549 57.2564V70.5852L119.869 69.4504C117.025 69.1959 115.104 72.2877 116.592 74.7244L138.249 110.21Z" fill="#434DA0"/>
<path d="M153.518 105.343V123.414C153.518 138.444 141.336 150.625 126.307 150.625H112.978L114.111 163.308C114.365 166.148 111.274 168.071 108.837 166.583L70.4664 143.165C68.2449 141.809 68.2449 138.586 70.4664 137.23L108.837 113.809C111.274 112.324 114.365 114.243 114.111 117.087L112.978 129.766H126.307C129.815 129.766 132.659 126.922 132.659 123.414V105.343C132.659 103.424 134.216 101.867 136.135 101.867H138.249L140.012 104.752C141.367 106.974 144.59 106.974 145.946 104.752L147.709 101.867H150.041C151.961 101.867 153.518 103.424 153.518 105.343Z" fill="white"/>
<path d="M166.088 61.107L153.408 62.2417V48.9129C153.408 33.8841 141.225 21.7012 126.196 21.7012H108.125C106.205 21.7012 104.649 23.2576 104.649 25.1777V39.084C104.649 41.0041 106.205 42.5605 108.125 42.5605H126.196C129.705 42.5605 132.549 45.4047 132.549 48.9129V62.2417L119.869 61.107C117.025 60.8525 115.104 63.9442 116.592 66.3809L140.011 104.751C141.366 106.972 144.591 106.972 145.946 104.751L169.366 66.3809C170.852 63.9442 168.931 60.8525 166.088 61.107Z" fill="#A3ACFF"/>
<path d="M107.534 35.207L69.1627 58.6286C66.7256 60.1131 63.635 58.194 63.8888 55.3502L65.0221 42.6712H51.693C48.1851 42.6712 45.3413 45.515 45.3413 49.0228V67.094C45.3413 69.0131 43.7838 70.5706 41.8647 70.5706H39.751L37.9884 67.685C36.6325 65.4635 33.4097 65.4635 32.0539 67.685L30.2913 70.5706H27.9585C26.0394 70.5706 24.4819 69.0131 24.4819 67.094V49.0228C24.4819 33.9937 36.6638 21.8118 51.693 21.8118H65.0221L63.8888 9.12928C63.635 6.28893 66.7256 4.36639 69.1627 5.85436L107.534 29.2725C109.755 30.6283 109.755 33.8511 107.534 35.207Z" fill="white"/>
<path d="M70.4663 143.165L73.3518 144.927V147.26C73.3518 149.179 71.7943 150.737 69.8753 150.737H51.8041C36.7749 150.737 24.593 138.555 24.593 123.526V110.197L11.9105 111.33C9.07018 111.584 7.14764 108.493 8.63561 106.056L32.0537 67.6852C33.4096 65.4637 36.6324 65.4637 37.9882 67.6852L61.4098 106.056C62.8943 108.493 60.9753 111.584 58.1314 111.33L45.4524 110.197V123.526C45.4524 127.034 48.2962 129.877 51.8041 129.877H69.8753C71.7943 129.877 73.3518 131.435 73.3518 133.354V135.468L70.4663 137.23C68.2448 138.586 68.2448 141.809 70.4663 143.165Z" fill="#A3ACFF"/>
<path d="M89 107.262C100.622 107.262 110.043 97.8404 110.043 86.2187C110.043 74.597 100.622 65.1758 89 65.1758C77.3783 65.1758 67.957 74.597 67.957 86.2187C67.957 97.8404 77.3783 107.262 89 107.262Z" fill="#A3ACFF"/>
<path d="M170.827 61.8191C169.782 60.1361 167.905 59.1977 165.931 59.3761L155.145 60.3401V48.9116C155.145 32.949 142.159 19.9623 126.196 19.9623H108.125C105.497 19.9623 103.323 21.9179 102.967 24.4492L94.061 19.0139C93.2416 18.514 92.1712 18.773 91.6719 19.5921C91.172 20.4115 91.4307 21.4816 92.2501 21.9815L106.628 30.7563C107.38 31.2156 107.461 31.9467 107.461 32.2401C107.461 32.5332 107.38 33.2643 106.627 33.7236L68.2587 57.1441C67.6857 57.4935 67.0026 57.4901 66.4335 57.1358C65.8644 56.7819 65.5605 56.1724 65.6203 55.5053L66.7537 42.8263C66.7971 42.3402 66.6341 41.8584 66.3048 41.4982C65.9756 41.138 65.5101 40.9333 65.0223 40.9333H51.6932C47.2324 40.9333 43.6029 44.5625 43.6029 49.0232V67.0944C43.6029 68.0529 42.8231 68.8327 41.8646 68.8327H40.725L39.472 66.7801C38.517 65.2153 36.8531 64.2812 35.021 64.2812C33.1885 64.2812 31.5246 65.2153 30.57 66.7801L29.317 68.833H27.958C26.9995 68.833 26.2197 68.0533 26.2197 67.0948V49.0236C26.2197 34.9779 37.6469 23.5508 51.6929 23.5508H65.022C65.5098 23.5508 65.9753 23.3457 66.3045 22.9859C66.6337 22.626 66.7968 22.1439 66.7533 21.6582L65.62 8.97567C65.5602 8.30922 65.8644 7.70012 66.4338 7.34621C67.0029 6.99264 67.6847 6.98986 68.2569 7.33925L84.3569 17.1654C85.1756 17.6653 86.2461 17.4063 86.746 16.5873C87.2459 15.7678 86.9873 14.6981 86.1678 14.1978L70.0682 4.37201C68.3772 3.33947 66.2812 3.34816 64.5993 4.39356C62.9166 5.43896 61.9811 7.31353 62.1573 9.28543L63.1214 20.0749H51.6929C35.7302 20.0749 22.7432 33.0616 22.7432 49.0243V67.0955C22.7432 69.7234 24.6987 71.8973 27.23 72.2533L7.15183 105.152C6.11964 106.842 6.12764 108.938 7.17304 110.62C8.21844 112.303 10.0909 113.239 12.0653 113.063L22.8548 112.099V123.527C22.8548 139.49 35.8411 152.477 51.8041 152.477H69.8753C72.5032 152.477 74.6771 150.521 75.0331 147.99L107.931 168.068C108.771 168.581 109.709 168.837 110.648 168.836C111.601 168.836 112.553 168.573 113.4 168.047C115.083 167.001 116.018 165.127 115.842 163.155L114.878 152.365H126.307C142.269 152.365 155.256 139.379 155.256 123.416V117.962C155.256 117.002 154.478 116.224 153.518 116.224C152.558 116.224 151.78 117.002 151.78 117.962V123.416C151.78 137.462 140.353 148.889 126.307 148.889H112.977C112.49 148.889 112.024 149.094 111.695 149.454C111.366 149.814 111.203 150.296 111.246 150.782L112.379 163.464C112.439 164.13 112.135 164.74 111.566 165.094C110.996 165.447 110.314 165.449 109.742 165.1L71.3719 141.682C70.6196 141.223 70.5386 140.492 70.5386 140.199C70.5386 139.906 70.6196 139.174 71.3723 138.715L109.741 115.295C110.314 114.945 110.996 114.948 111.566 115.303C112.135 115.657 112.439 116.266 112.379 116.933L111.246 129.612C111.203 130.098 111.366 130.58 111.695 130.94C112.024 131.301 112.49 131.505 112.977 131.505H126.307C130.767 131.505 134.397 127.876 134.397 123.415V105.344C134.397 104.386 135.177 103.606 136.135 103.606H137.275L138.527 105.657C139.48 107.222 141.142 108.157 142.975 108.158H142.978C144.811 108.158 146.475 107.224 147.43 105.659L148.683 103.606H150.042C151 103.606 151.78 104.386 151.78 105.344V108.671C151.78 109.631 152.558 110.41 153.518 110.41C154.478 110.41 155.257 109.631 155.257 108.671V105.344C155.257 102.717 153.301 100.543 150.77 100.186L170.848 67.2881C171.88 65.5967 171.872 63.5014 170.827 61.8191ZM69.561 135.746C67.9962 136.701 67.062 138.365 67.062 140.197C67.062 142.03 67.9965 143.694 69.561 144.649L71.6136 145.901V147.26C71.6136 148.219 70.8338 148.999 69.8753 148.999H51.8041C37.7584 148.999 26.3313 137.572 26.3313 123.526V110.197C26.3313 109.709 26.1262 109.244 25.7664 108.914C25.4062 108.585 24.9244 108.42 24.4383 108.466L11.7558 109.599C11.0918 109.657 10.4799 109.354 10.1264 108.785C9.77247 108.215 9.77003 107.534 10.1191 106.962L33.5376 68.5907C33.9961 67.8384 34.7276 67.7574 35.021 67.7574C35.3141 67.7574 36.0452 67.8384 36.5044 68.5907L59.9254 106.961C60.2744 107.533 60.2709 108.216 59.917 108.785C59.5631 109.354 58.9547 109.658 58.2865 109.599L45.6075 108.466C45.1218 108.42 44.6393 108.585 44.2798 108.914C43.9196 109.244 43.7145 109.709 43.7145 110.197V123.526C43.7145 127.987 47.3433 131.616 51.8045 131.616H69.8756C70.8341 131.616 71.6139 132.396 71.6139 133.354V134.494L69.561 135.746ZM130.92 105.343V123.414C130.92 125.958 128.851 128.028 126.307 128.028H114.878L115.842 117.242C116.018 115.269 115.083 113.395 113.402 112.35C111.72 111.303 109.624 111.293 107.931 112.325L75.0022 132.425C74.562 129.992 72.433 128.139 69.8749 128.139H51.8038C49.2603 128.139 47.1904 126.069 47.1904 123.526V112.097L57.9764 113.061C59.9445 113.239 61.8232 112.302 62.8686 110.62C63.9147 108.938 63.9241 106.843 62.8926 105.15L42.7929 72.2206C45.2261 71.7805 47.0788 69.6514 47.0788 67.0934V49.0222C47.0788 46.4784 49.1484 44.4088 51.6925 44.4088H63.121L62.157 55.1948C61.981 57.1667 62.9159 59.0413 64.5968 60.0871C66.2791 61.1332 68.3745 61.1436 70.0682 60.1117L102.997 40.0116C103.437 42.4449 105.566 44.2976 108.124 44.2976H126.196C128.739 44.2976 130.809 46.3671 130.809 48.9109V60.3398L120.023 59.3758C118.049 59.1981 116.173 60.1357 115.128 61.8191C114.083 63.5014 114.075 65.5964 115.106 67.2867L135.206 100.216C132.773 100.656 130.92 102.785 130.92 105.343ZM167.881 65.4757L144.462 103.847C144.004 104.6 143.28 104.676 142.977 104.68C142.684 104.68 141.954 104.599 141.496 103.847L118.074 65.4757C117.725 64.9038 117.728 64.2228 118.081 63.654C118.436 63.0842 119.045 62.78 119.714 62.8388L132.393 63.9721C132.88 64.0166 133.361 63.8529 133.721 63.5233C134.081 63.1941 134.286 62.7285 134.286 62.2408V48.9116C134.286 44.4509 130.657 40.8217 126.196 40.8217H108.125C107.167 40.8217 106.387 40.0419 106.387 39.0834V37.9438L108.439 36.6908C110.004 35.7358 110.938 34.0719 110.938 32.2398C110.938 30.4076 110.004 28.7438 108.439 27.7884L106.387 26.5358V25.1772C106.387 24.2187 107.167 23.4389 108.125 23.4389H126.196C140.242 23.4389 151.669 34.866 151.669 48.9116V62.2408C151.669 62.7285 151.874 63.1941 152.234 63.5233C152.594 63.8525 153.075 64.0159 153.562 63.9721L166.241 62.8388C166.906 62.779 167.52 63.0839 167.874 63.6537C168.227 64.2228 168.23 64.9038 167.881 65.4757Z" fill="#434DA0"/>
<path d="M89 63.4375C76.4381 63.4375 66.2188 73.6572 66.2188 86.2187C66.2188 98.7802 76.4385 109 89 109C101.561 109 111.781 98.7802 111.781 86.2187C111.781 73.6572 101.562 63.4375 89 63.4375ZM89 105.523C78.3554 105.523 69.6953 96.8633 69.6953 86.2187C69.6953 75.5742 78.3554 66.9141 89 66.9141C99.6445 66.9141 108.305 75.5742 108.305 86.2187C108.305 96.8633 99.6445 105.523 89 105.523Z" fill="#434DA0"/>
<path d="M89.0002 102.121C97.7829 102.121 104.903 95.0011 104.903 86.2184C104.903 77.4357 97.7829 70.3159 89.0002 70.3159C80.2174 70.3159 73.0977 77.4357 73.0977 86.2184C73.0977 95.0011 80.2174 102.121 89.0002 102.121Z" fill="white"/>
<path d="M91.2656 84.4805H90.7385V80.9414H94.0253C94.9851 80.9414 95.7636 80.163 95.7636 79.2031C95.7636 78.2432 94.9851 77.4648 94.0253 77.4648H90.7385V76.5908C90.7385 75.6309 89.9601 74.8525 89.0002 74.8525C88.0404 74.8525 87.262 75.6309 87.262 76.5908V77.4648H86.7349C83.8421 77.4648 81.4888 79.8181 81.4888 82.711C81.4888 85.6038 83.8421 87.9571 86.7349 87.9571H87.262V91.4962H83.9756C83.0157 91.4962 82.2373 92.2746 82.2373 93.2345C82.2373 94.1944 83.0157 94.9728 83.9756 94.9728H87.262V95.8468C87.262 96.8067 88.0404 97.5851 89.0002 97.5851C89.9601 97.5851 90.7385 96.8067 90.7385 95.8468V94.9728H91.2656C94.1581 94.9728 96.5114 92.6195 96.5114 89.7267C96.5114 86.8338 94.1581 84.4805 91.2656 84.4805ZM86.7349 84.4805C85.759 84.4805 84.9653 83.6868 84.9653 82.711C84.9653 81.7351 85.759 80.9414 86.7349 80.9414H87.262V84.4805H86.7349ZM91.2656 91.4962H90.7385V87.9571H91.2656C92.2411 87.9571 93.0348 88.7508 93.0348 89.7267C93.0348 90.7025 92.2411 91.4962 91.2656 91.4962Z" fill="#A3ACFF"/>
<path d="M82.2871 140.197L104.232 126.802L104.233 153.591L82.2871 140.197Z" fill="#A3ACFF"/>
<path d="M129.585 70.9873H156.371L142.978 92.931L129.585 70.9873Z" fill="white"/>
<path d="M73.7671 18.8467L95.7122 32.2401L73.7674 45.6353L73.7671 18.8467Z" fill="#A3ACFF"/>
<path d="M35.0214 79.5063L48.4169 101.451H21.6279L35.0214 79.5063Z" fill="white"/>
<path d="M21.2802 143.499C20.8355 143.499 20.3902 143.329 20.0512 142.99L18.1513 141.09L16.2513 142.99C15.5731 143.668 14.4717 143.668 13.7934 142.99C13.1144 142.311 13.1144 141.21 13.7934 140.531L16.9223 137.403C17.6006 136.724 18.702 136.724 19.3802 137.403L22.5092 140.531C23.1881 141.21 23.1881 142.311 22.5092 142.99C22.1702 143.329 21.7248 143.499 21.2802 143.499Z" fill="#A3ACFF"/>
<path d="M21.2802 159.744C20.8355 159.744 20.3902 159.574 20.0512 159.235C19.3722 158.556 19.3722 157.455 20.0512 156.777L23.5278 153.3C24.2061 152.621 25.3074 152.621 25.9857 153.3C26.6647 153.979 26.6647 155.08 25.9857 155.758L22.5092 159.235C22.1702 159.574 21.7248 159.744 21.2802 159.744Z" fill="#A3ACFF"/>
<path d="M108.305 13.112C107.86 13.112 107.415 12.9423 107.076 12.603C106.397 11.924 106.397 10.8233 107.076 10.1447L110.552 6.66815C111.23 5.98952 112.332 5.98952 113.01 6.66815C113.689 7.34712 113.689 8.4478 113.01 9.12643L109.534 12.603C109.195 12.9423 108.75 13.112 108.305 13.112Z" fill="#A3ACFF"/>
<path d="M106.071 60.6422C105.626 60.6422 105.181 60.4726 104.842 60.1333L102.942 58.2337L101.042 60.1333C100.364 60.8119 99.2622 60.8119 98.5839 60.1333C97.905 59.4543 97.905 58.3536 98.5839 57.675L101.713 54.5461C102.391 53.8675 103.492 53.8675 104.171 54.5461L107.3 57.675C107.979 58.354 107.979 59.4546 107.3 60.1333C106.96 60.4722 106.515 60.6422 106.071 60.6422Z" fill="#A3ACFF"/>
<path d="M167.844 120.391C167.399 120.391 166.954 120.221 166.615 119.882L164.715 117.982L162.815 119.882C162.137 120.56 161.035 120.56 160.357 119.882C159.678 119.203 159.678 118.102 160.357 117.424L163.486 114.295C164.164 113.616 165.265 113.616 165.944 114.295L169.073 117.424C169.752 118.102 169.752 119.203 169.073 119.882C168.734 120.221 168.288 120.391 167.844 120.391Z" fill="#A3ACFF"/>
</g>
<defs>
<clipPath id="clip0_84:1600">
<rect width="178" height="178" fill="white"/>
</clipPath>
</defs>
</svg>
