<svg width="178" height="178" viewBox="0 0 178 178" fill="none" xmlns="http://www.w3.org/2000/svg">
<g clip-path="url(#clip0_84:1528)">
<path d="M126.833 19.1956C102.811 9.79668 69.5448 13.3675 51.1614 30.1502C38.1813 42.0001 48.2276 45.3776 57.0772 67.0609C63.482 82.7541 0 80.5941 0 108.952C0 141.735 45.9779 135.521 63.0402 139.274C89.1269 145.011 111.884 166.475 139.757 163.645C164.021 161.182 173.272 142.141 176.646 120.313C182.933 79.6454 167.493 35.1043 126.833 19.1956Z" fill="#F7F8FC"/>
<path opacity="0.11" d="M143.898 45.1606H19.6182C15.778 45.1606 12.665 48.2736 12.665 52.1138V119.368C12.665 122.606 14.8827 125.32 17.8799 126.093V129.844C17.8799 133.083 20.0976 135.796 23.0947 136.569V140.177C23.0947 140.4 23.1052 140.619 23.126 140.838C23.4563 144.37 26.4288 147.13 30.0479 147.13H133.469C137.088 147.13 140.06 144.37 140.39 140.838C140.411 140.619 140.422 140.4 140.422 140.177V136.569C143.419 135.796 145.637 133.082 145.637 129.844V126.093C148.634 125.32 150.851 122.606 150.851 119.368V52.1138C150.851 48.2736 147.738 45.1606 143.898 45.1606Z" fill="#434DA0"/>
<path d="M147.663 107.496V133.031C147.663 133.254 147.653 133.473 147.632 133.692C147.302 137.224 144.329 139.985 140.71 139.985H37.2895C33.6704 139.985 30.698 137.224 30.3677 133.692C30.3469 133.473 30.3364 133.254 30.3364 133.031V107.496C30.3364 103.658 33.4479 100.543 37.2895 100.543H140.71C144.552 100.543 147.663 103.658 147.663 107.496Z" fill="white"/>
<path d="M145.925 129.651H32.0747C28.2345 129.651 25.1216 126.538 25.1216 122.698V76.3032C25.1216 72.463 28.2345 69.3501 32.0747 69.3501H145.925C149.765 69.3501 152.878 72.463 152.878 76.3032V122.698C152.878 126.538 149.765 129.651 145.925 129.651Z" fill="white"/>
<path d="M151.14 119.175H26.8599C23.0197 119.175 19.9067 116.062 19.9067 112.222V44.9678C19.9067 41.1276 23.0197 38.0146 26.8599 38.0146H151.14C154.98 38.0146 158.093 41.1276 158.093 44.9678V112.222C158.093 116.062 154.98 119.175 151.14 119.175Z" fill="white"/>
<path d="M145.553 69.717V87.4711C145.553 88.2443 145.039 88.9139 144.299 89.1395C137.289 91.2776 131.912 97.1541 130.487 104.448C130.329 105.254 129.605 105.826 128.782 105.826H49.2177C48.3955 105.826 47.6713 105.254 47.5135 104.448C46.0881 97.1541 40.7109 91.2776 33.7008 89.1395C32.961 88.9139 32.4468 88.2447 32.4468 87.4711V69.717C32.4468 68.9438 32.961 68.2743 33.7008 68.0486C40.7109 65.9105 46.0881 60.0341 47.5135 52.7406C47.6713 51.9337 48.3955 51.3618 49.2177 51.3618H128.782C129.605 51.3618 130.329 51.9337 130.487 52.7406C131.912 60.0341 137.289 65.9105 144.299 68.0486C145.039 68.2746 145.553 68.9438 145.553 69.717Z" fill="#A3ACFF"/>
<path d="M89 100.91C98.6963 100.91 106.557 90.9191 106.557 78.5947C106.557 66.2702 98.6963 56.2793 89 56.2793C79.3037 56.2793 71.4434 66.2702 71.4434 78.5947C71.4434 90.9191 79.3037 100.91 89 100.91Z" fill="white"/>
<path d="M63.0604 99.4248H55.478C54.5178 99.4248 53.7397 98.6464 53.7397 97.6865C53.7397 96.7266 54.5178 95.9482 55.478 95.9482H63.0604C64.0206 95.9482 64.7987 96.7266 64.7987 97.6865C64.7987 98.6464 64.0206 99.4248 63.0604 99.4248Z" fill="#434DA0"/>
<path d="M122.521 61.2407H114.939C113.979 61.2407 113.201 60.4623 113.201 59.5024C113.201 58.5426 113.979 57.7642 114.939 57.7642H122.521C123.482 57.7642 124.26 58.5426 124.26 59.5024C124.26 60.4623 123.482 61.2407 122.521 61.2407Z" fill="#434DA0"/>
<path d="M51.6543 80.5382C52.7276 80.5382 53.5977 79.6681 53.5977 78.5948C53.5977 77.5215 52.7276 76.6514 51.6543 76.6514C50.581 76.6514 49.7109 77.5215 49.7109 78.5948C49.7109 79.6681 50.581 80.5382 51.6543 80.5382Z" fill="#434DA0"/>
<path d="M57.5332 80.5382C58.6065 80.5382 59.4766 79.6681 59.4766 78.5948C59.4766 77.5215 58.6065 76.6514 57.5332 76.6514C56.4599 76.6514 55.5898 77.5215 55.5898 78.5948C55.5898 79.6681 56.4599 80.5382 57.5332 80.5382Z" fill="#434DA0"/>
<path d="M63.4121 80.5382C64.4855 80.5382 65.3555 79.6681 65.3555 78.5948C65.3555 77.5215 64.4855 76.6514 63.4121 76.6514C62.3388 76.6514 61.4688 77.5215 61.4688 78.5948C61.4688 79.6681 62.3388 80.5382 63.4121 80.5382Z" fill="#434DA0"/>
<path d="M114.588 80.5382C115.661 80.5382 116.531 79.6681 116.531 78.5948C116.531 77.5215 115.661 76.6514 114.588 76.6514C113.515 76.6514 112.645 77.5215 112.645 78.5948C112.645 79.6681 113.515 80.5382 114.588 80.5382Z" fill="#434DA0"/>
<path d="M120.467 80.5382C121.54 80.5382 122.41 79.6681 122.41 78.5948C122.41 77.5215 121.54 76.6514 120.467 76.6514C119.394 76.6514 118.523 77.5215 118.523 78.5948C118.523 79.6681 119.394 80.5382 120.467 80.5382Z" fill="#434DA0"/>
<path d="M126.345 80.5382C127.419 80.5382 128.289 79.6681 128.289 78.5948C128.289 77.5215 127.419 76.6514 126.345 76.6514C125.272 76.6514 124.402 77.5215 124.402 78.5948C124.402 79.6681 125.272 80.5382 126.345 80.5382Z" fill="#434DA0"/>
<path d="M142.855 60.775C142.41 60.775 141.966 60.6053 141.626 60.266C140.947 59.587 140.947 58.4864 141.626 57.8077L147.768 51.6657C148.447 50.9871 149.547 50.9871 150.226 51.6657C150.905 52.3447 150.905 53.4454 150.226 54.124L144.084 60.266C143.745 60.6053 143.3 60.775 142.855 60.775Z" fill="#434DA0"/>
<path d="M138.514 55.9659C138.069 55.9659 137.625 55.7962 137.285 55.4569C136.606 54.778 136.606 53.6773 137.285 52.9987L143.427 46.8566C144.106 46.178 145.206 46.178 145.885 46.8566C146.564 47.5356 146.564 48.6363 145.885 49.3149L139.743 55.4569C139.404 55.7962 138.959 55.9659 138.514 55.9659Z" fill="#434DA0"/>
<path d="M33.3435 110.842C32.8985 110.842 32.4539 110.672 32.1142 110.333C31.4352 109.654 31.4352 108.553 32.1142 107.875L38.2563 101.733C38.9352 101.054 40.0356 101.054 40.7145 101.733C41.3935 102.412 41.3935 103.512 40.7145 104.191L34.5725 110.333C34.2332 110.672 33.7882 110.842 33.3435 110.842Z" fill="#434DA0"/>
<path d="M29.0027 106.033C28.5577 106.033 28.1131 105.863 27.7734 105.524C27.0944 104.845 27.0944 103.744 27.7734 103.066L33.9154 96.9235C34.5944 96.2449 35.6947 96.2449 36.3737 96.9235C37.0527 97.6025 37.0527 98.7032 36.3737 99.3818L30.232 105.524C29.8924 105.863 29.4477 106.033 29.0027 106.033Z" fill="#434DA0"/>
<path d="M91.2766 76.8563H90.7381V73.2824H93.0017C93.9619 73.2824 94.7399 72.504 94.7399 71.5441C94.7399 70.5842 93.9619 69.8058 93.0017 69.8058H90.7381V68.9189C90.7381 67.9591 89.96 67.1807 88.9998 67.1807C88.0396 67.1807 87.2615 67.9591 87.2615 68.9189V69.8058H86.723C83.8208 69.8058 81.4595 72.1671 81.4595 75.0697C81.4595 77.9719 83.8208 80.3332 86.723 80.3332H87.2615V83.9075H84.9979C84.0377 83.9075 83.2596 84.6859 83.2596 85.6458C83.2596 86.6056 84.0377 87.384 84.9979 87.384H87.2615V88.2709C87.2615 89.2308 88.0396 90.0092 88.9998 90.0092C89.96 90.0092 90.7381 89.2308 90.7381 88.2709V87.384H91.2766C94.1788 87.384 96.5401 85.0227 96.5401 82.1202C96.5398 79.2176 94.1785 76.8563 91.2766 76.8563ZM86.723 76.8563C85.7377 76.8563 84.936 76.0546 84.936 75.0693C84.936 74.0841 85.7377 73.282 86.723 73.282H87.2615V76.8563H86.723ZM91.2766 83.9071H90.7381V80.3329H91.2766C92.2619 80.3329 93.0635 81.1346 93.0635 82.1198C93.0635 83.1051 92.2619 83.9071 91.2766 83.9071Z" fill="#434DA0"/>
<path d="M158.093 95.4141C159.053 95.4141 159.831 94.6357 159.831 93.6758V44.9678C159.831 40.1753 155.932 36.2764 151.14 36.2764H26.8599C22.0674 36.2764 18.1685 40.1753 18.1685 44.9678V112.222C18.1685 115.778 20.317 118.841 23.3833 120.185V122.698C23.3833 126.199 25.4703 129.305 28.5981 130.667V133.032C28.5981 137.824 32.4971 141.723 37.2895 141.723H140.71C145.503 141.723 149.402 137.824 149.402 133.032V130.664C152.529 129.302 154.617 126.199 154.617 122.698V120.185C157.683 118.841 159.831 115.778 159.831 112.222V103.445C159.831 102.485 159.053 101.707 158.093 101.707C157.133 101.707 156.355 102.485 156.355 103.445V112.222C156.355 115.097 154.015 117.436 151.14 117.436H26.8599C23.9844 117.436 21.645 115.097 21.645 112.222V44.9678C21.645 42.0923 23.9844 39.7529 26.8599 39.7529H151.14C154.015 39.7529 156.355 42.0923 156.355 44.9678V93.6758C156.355 94.6357 157.133 95.4141 158.093 95.4141ZM151.14 120.913V122.698C151.14 125.08 149.532 127.156 147.232 127.748C146.805 127.857 146.366 127.913 145.925 127.913H40.35C39.3897 127.913 38.6117 128.691 38.6117 129.651C38.6117 130.611 39.3897 131.39 40.35 131.39H145.925V133.032C145.925 135.907 143.586 138.247 140.71 138.247H37.2895C34.4141 138.247 32.0747 135.907 32.0747 133.032V129.432C32.0747 128.639 31.5379 127.947 30.77 127.749C28.4678 127.156 26.8599 125.079 26.8599 122.698V120.913H151.14Z" fill="#434DA0"/>
<path d="M132.192 52.4081C131.878 50.7949 130.443 49.624 128.782 49.624H49.2174C47.5566 49.624 46.1225 50.7949 45.8072 52.4077C44.5087 59.0532 39.6752 64.4092 33.1939 66.3863C31.7073 66.8396 30.7085 68.1781 30.7085 69.7172V87.4713C30.7085 89.0104 31.7073 90.3488 33.1935 90.8022C39.6756 92.7793 44.5087 98.1353 45.8072 104.78C46.1218 106.394 47.5563 107.564 49.2174 107.564H128.782C130.443 107.564 131.878 106.394 132.192 104.781C133.491 98.1353 138.324 92.7793 144.806 90.8022C146.292 90.3488 147.291 89.0104 147.291 87.4713V69.7172C147.291 68.1781 146.292 66.8396 144.806 66.3863C138.324 64.4095 133.491 59.0532 132.192 52.4081ZM143.792 87.4772C136.078 89.8298 130.327 96.2048 128.783 104.088L49.2198 104.114C47.6741 96.2051 41.9221 89.8298 34.1854 87.4716L34.2084 69.712C41.9221 67.3594 47.6738 60.9844 49.2177 53.1009L128.781 53.0749C130.326 60.9833 136.077 67.3576 143.815 69.7266L143.792 87.4772Z" fill="#434DA0"/>
<path d="M20.5986 132.526H19.4688V131.396C19.4688 130.436 18.6907 129.658 17.7305 129.658C16.7702 129.658 15.9922 130.436 15.9922 131.396V132.526H14.8623C13.9021 132.526 13.124 133.304 13.124 134.264C13.124 135.224 13.9021 136.002 14.8623 136.002H15.9922V137.132C15.9922 138.092 16.7702 138.871 17.7305 138.871C18.6907 138.871 19.4688 138.092 19.4688 137.132V136.002H20.5986C21.5589 136.002 22.3369 135.224 22.3369 134.264C22.3369 133.304 21.5589 132.526 20.5986 132.526Z" fill="#A3ACFF"/>
<path d="M53.6118 27.146H52.4819V26.0161C52.4819 25.0562 51.7039 24.2778 50.7437 24.2778C49.7834 24.2778 49.0054 25.0562 49.0054 26.0161V27.146H47.8755C46.9153 27.146 46.1372 27.9244 46.1372 28.8843C46.1372 29.8442 46.9153 30.6226 47.8755 30.6226H49.0054V31.7524C49.0054 32.7123 49.7834 33.4907 50.7437 33.4907C51.7039 33.4907 52.4819 32.7123 52.4819 31.7524V30.6226H53.6118C54.572 30.6226 55.3501 29.8442 55.3501 28.8843C55.3501 27.9244 54.572 27.146 53.6118 27.146Z" fill="#A3ACFF"/>
<path d="M162.044 135.311H160.914V134.181C160.914 133.221 160.136 132.443 159.176 132.443C158.216 132.443 157.438 133.221 157.438 134.181V135.311H156.308C155.347 135.311 154.569 136.089 154.569 137.049C154.569 138.009 155.347 138.788 156.308 138.788H157.438V139.917C157.438 140.877 158.216 141.656 159.176 141.656C160.136 141.656 160.914 140.877 160.914 139.917V138.788H162.044C163.004 138.788 163.782 138.009 163.782 137.049C163.782 136.089 163.004 135.311 162.044 135.311Z" fill="#A3ACFF"/>
<path d="M156.314 25.5266C155.807 25.5266 155.298 25.4498 154.801 25.2951C153.505 24.8925 152.445 24.0098 151.814 22.8093C151.183 21.6089 151.057 20.2346 151.46 18.9395C151.862 17.6449 152.745 16.5845 153.946 15.9535C155.146 15.3225 156.521 15.197 157.815 15.5996C159.11 16.0022 160.17 16.8849 160.801 18.0854C161.432 19.2858 161.558 20.6598 161.155 21.9548C160.753 23.2498 159.87 24.3101 158.67 24.9411C157.931 25.3295 157.126 25.5266 156.314 25.5266ZM156.306 18.8464C156.05 18.8464 155.797 18.9086 155.564 19.031C155.185 19.2298 154.907 19.5643 154.78 19.9724C154.653 20.3806 154.693 20.8138 154.891 21.192C155.09 21.5703 155.425 21.8487 155.833 21.9756C156.241 22.1029 156.674 22.0629 157.052 21.864C157.431 21.6652 157.709 21.3307 157.836 20.9226C157.963 20.5144 157.923 20.0816 157.725 19.703C157.526 19.3248 157.191 19.0463 156.783 18.9194C156.626 18.8707 156.466 18.8464 156.306 18.8464Z" fill="#A3ACFF"/>
<path d="M26.2184 152.142C25.7203 152.142 25.2141 152.068 24.7141 151.912C22.0414 151.081 20.543 148.23 21.3739 145.557C22.2058 142.884 25.0541 141.386 27.7294 142.217C30.4021 143.048 31.9005 145.899 31.0693 148.572C30.3935 150.745 28.383 152.142 26.2184 152.142ZM26.2226 145.464C25.5402 145.464 24.9067 145.904 24.6936 146.589C24.4318 147.432 24.904 148.33 25.7467 148.592C26.5894 148.855 27.4874 148.382 27.7499 147.539C28.0117 146.697 27.5395 145.798 26.6972 145.536C26.5393 145.487 26.3794 145.464 26.2226 145.464ZM29.4096 148.056H29.4131H29.4096Z" fill="#A3ACFF"/>
</g>
<defs>
<clipPath id="clip0_84:1528">
<rect width="178" height="178" fill="white"/>
</clipPath>
</defs>
</svg>
