<svg width="24" height="24" viewBox="0 0 24 24" fill="none" xmlns="http://www.w3.org/2000/svg">
<path d="M21.5 22C21.5 20.2636 20.8102 18.5984 19.5824 17.3706C18.3546 16.1428 16.6894 15.453 14.953 15.453H9.047C8.18724 15.453 7.33589 15.6223 6.54157 15.9514C5.74725 16.2804 5.02552 16.7626 4.41757 17.3706C3.18977 18.5984 2.5 20.2636 2.5 22V22" stroke="white" stroke-width="1.5"/>
<path d="M12 12.25C14.6234 12.25 16.75 10.1234 16.75 7.5C16.75 4.87665 14.6234 2.75 12 2.75C9.37665 2.75 7.25 4.87665 7.25 7.5C7.25 10.1234 9.37665 12.25 12 12.25Z" stroke="white" stroke-width="1.5"/>
</svg>
