<svg width="40" height="40" viewBox="0 0 40 40" fill="none" xmlns="http://www.w3.org/2000/svg">
<path d="M33.0435 0H6.95656C3.1207 0 0 3.1207 0 6.95656V33.0435C0 36.8793 3.1207 40 6.95656 40H33.0435C36.8793 40 40 36.8793 40 33.0435V6.95656C40 3.1207 36.8793 0 33.0435 0ZM9.60172 37.3913C10.0452 32.0429 14.5391 27.8261 20 27.8261C25.4609 27.8261 29.9548 32.0429 30.3983 37.3913H9.60172ZM14.7826 20C14.7826 17.1231 17.1231 14.7826 20 14.7826C22.8769 14.7826 25.2174 17.1231 25.2174 20C25.2174 22.8769 22.8769 25.2174 20 25.2174C17.1231 25.2174 14.7826 22.8769 14.7826 20ZM37.3913 33.0435C37.3913 35.4409 35.4409 37.3913 33.0435 37.3913H33.0138C32.6759 32.2838 29.3855 27.9707 24.8374 26.148C26.6562 24.7136 27.8261 22.4909 27.8261 20.0001C27.8261 15.6848 24.3153 12.174 20 12.174C15.6847 12.174 12.1739 15.6847 12.1739 20C12.1739 22.4909 13.3438 24.7136 15.1627 26.1479C10.6145 27.9707 7.32406 32.2837 6.98617 37.3913H6.95648C4.55906 37.3913 2.60867 35.4408 2.60867 33.0434V6.95656C2.60867 4.55914 4.55914 2.60875 6.95648 2.60875H33.0434C35.4409 2.60875 37.3913 4.55922 37.3913 6.95656V33.0435H37.3913Z" fill="#A3ACFF"/>
<path d="M33.0434 8.26053H31.739V6.95623C31.739 6.23592 31.155 5.65186 30.4346 5.65186C29.7143 5.65186 29.1302 6.23584 29.1302 6.95623V8.26061H27.8259C27.1055 8.26061 26.5215 8.84459 26.5215 9.56498C26.5215 10.2853 27.1055 10.8694 27.8259 10.8694H29.1302V12.1737C29.1302 12.8941 29.7142 13.4781 30.4346 13.4781C31.1549 13.4781 31.739 12.8941 31.739 12.1737V10.8692H33.0434C33.7637 10.8692 34.3477 10.2852 34.3477 9.56483C34.3477 8.84451 33.7637 8.26053 33.0434 8.26053Z" fill="#A3ACFF"/>
</svg>
