<svg width="40" height="40" viewBox="0 0 40 40" fill="none" xmlns="http://www.w3.org/2000/svg">
<path d="M20.0469 23.0469H19.9531C19.3059 23.0469 18.7812 22.5222 18.7812 21.875C18.7812 21.2278 19.3059 20.7031 19.9531 20.7031H20.0469C20.6941 20.7031 21.2188 21.2278 21.2188 21.875C21.2188 22.5222 20.6941 23.0469 20.0469 23.0469Z" fill="#A3ACFF"/>
<path d="M33.75 23.0469C33.1028 23.0469 32.5781 22.5222 32.5781 21.875V8.59375C32.5781 7.94758 32.0524 7.42188 31.4062 7.42188H8.59375C7.94758 7.42188 7.42188 7.94758 7.42188 8.59375V21.875C7.42188 22.5222 6.89719 23.0469 6.25 23.0469C5.60281 23.0469 5.07812 22.5222 5.07812 21.875V8.59375C5.07812 6.65523 6.65523 5.07812 8.59375 5.07812H31.4062C33.3448 5.07812 34.9219 6.65523 34.9219 8.59375V21.875C34.9219 22.5222 34.3972 23.0469 33.75 23.0469Z" fill="#A3ACFF"/>
<path d="M36.4983 32.4219H3.51562C1.57711 32.4219 0 30.8448 0 28.9063V16.8751C0 15.8751 0.394766 14.9404 1.11156 14.2431C1.82812 13.546 2.77453 13.1761 3.7743 13.2047C5.78555 13.2598 7.42188 14.9297 7.42188 16.9271V25.0782H32.5781V16.9271C32.5781 14.9297 34.2144 13.2597 36.2257 13.2046C37.2245 13.1768 38.172 13.5459 38.8885 14.2432C39.6052 14.9404 40 15.8752 40 16.8751V28.9063C40 30.8338 38.4407 32.404 36.5173 32.4218C36.511 32.4218 36.5046 32.4219 36.4983 32.4219ZM3.67211 15.547C3.32359 15.547 2.99594 15.6797 2.74594 15.923C2.48656 16.1752 2.34375 16.5134 2.34375 16.8751V28.9063C2.34375 29.5525 2.86945 30.0782 3.51562 30.0782H36.4844C37.1305 30.0782 37.6562 29.5525 37.6562 28.9063V16.8751C37.6562 16.5134 37.5134 16.1753 37.2541 15.9229C36.995 15.6708 36.6528 15.5361 36.29 15.5474C35.5612 15.5673 34.9219 16.2121 34.9219 16.927V26.25C34.9219 26.8972 34.3972 27.4219 33.75 27.4219H6.25C5.60281 27.4219 5.07812 26.8972 5.07812 26.25V16.9271C5.07812 16.2122 4.43883 15.5675 3.71 15.5475C3.69734 15.5472 3.68469 15.547 3.67211 15.547ZM36.2579 14.376H36.2587H36.2579Z" fill="#A3ACFF"/>
<path d="M20 27.4219H6.25C5.60281 27.4219 5.07812 26.8972 5.07812 26.25V20C5.07812 19.3528 5.60281 18.8281 6.25 18.8281H17.6562C19.5948 18.8281 21.1719 20.4052 21.1719 22.3438V26.25C21.1719 26.8972 20.6472 27.4219 20 27.4219ZM7.42188 25.0781H18.8281V22.3438C18.8281 21.6976 18.3024 21.1719 17.6562 21.1719H7.42188V25.0781Z" fill="#A3ACFF"/>
<path d="M33.75 27.4219H20C19.3528 27.4219 18.8281 26.8972 18.8281 26.25V22.3438C18.8281 20.4052 20.4052 18.8281 22.3438 18.8281H33.75C34.3972 18.8281 34.9219 19.3528 34.9219 20V26.25C34.9219 26.8972 34.3972 27.4219 33.75 27.4219ZM21.1719 25.0781H32.5781V21.1719H22.3438C21.6976 21.1719 21.1719 21.6976 21.1719 22.3438V25.0781Z" fill="#A3ACFF"/>
<path d="M6.25 34.9219C5.60281 34.9219 5.07812 34.3972 5.07812 33.75V31.25C5.07812 30.6028 5.60281 30.0781 6.25 30.0781C6.89719 30.0781 7.42188 30.6028 7.42188 31.25V33.75C7.42188 34.3972 6.89719 34.9219 6.25 34.9219Z" fill="#A3ACFF"/>
<path d="M33.75 34.9219C33.1028 34.9219 32.5781 34.3972 32.5781 33.75V31.25C32.5781 30.6028 33.1028 30.0781 33.75 30.0781C34.3972 30.0781 34.9219 30.6028 34.9219 31.25V33.75C34.9219 34.3972 34.3972 34.9219 33.75 34.9219Z" fill="#A3ACFF"/>
</svg>
