<svg width="40" height="40" viewBox="0 0 40 40" fill="none" xmlns="http://www.w3.org/2000/svg">
<path d="M24.0754 8.12063L21.9909 7.80672L21.0482 5.92125C20.8497 5.52422 20.444 5.27344 20.0001 5.27344C19.5561 5.27344 19.1504 5.52422 18.9519 5.92125L18.0091 7.80672L15.9247 8.12063C15.4858 8.18672 15.1219 8.49516 14.9847 8.91734C14.8472 9.34031 14.9613 9.80359 15.2769 10.1144L16.7787 11.5936L16.4332 13.673C16.3604 14.1109 16.5413 14.5523 16.9004 14.8132C17.2588 15.0737 17.7344 15.1101 18.1291 14.9052L20.0001 13.934L21.8709 14.9052C22.265 15.1098 22.7406 15.0741 23.0997 14.8132C23.4588 14.5523 23.6397 14.1109 23.5669 13.673L23.2213 11.5936L24.7232 10.1144C25.0394 9.80289 25.1526 9.33945 25.0154 8.91734C24.8782 8.49523 24.5144 8.18672 24.0754 8.12063ZM21.1433 10.3506C20.5854 10.9 20.8708 11.5881 20.8707 11.7452L20.54 11.5735C20.2015 11.3978 19.7986 11.3978 19.4601 11.5735L19.1294 11.7452C19.1597 11.4698 19.2741 11.2057 19.149 10.8226C19.0243 10.4385 18.7759 10.2929 18.5913 10.0891C18.7827 10.0603 18.9744 10.0314 18.9665 10.0326C19.7379 9.91188 19.8965 9.21172 20 9.06563L20.1666 9.39891C20.5168 10.0991 21.259 10.0403 21.4086 10.0891L21.1433 10.3506Z" fill="#A3ACFF"/>
<path d="M38.8281 2.34375H32.8758C32.8853 1.95609 32.8906 1.56562 32.8906 1.17188C32.8906 0.524687 32.3659 0 31.7188 0H8.28125C7.63406 0 7.10938 0.524687 7.10938 1.17188C7.10938 1.56562 7.11469 1.95609 7.12422 2.34375H1.17188C0.524687 2.34375 0 2.86844 0 3.51562V6.48391C0 13.0407 5.20422 18.4122 11.7237 18.7345C13.0823 20.5873 14.683 21.9284 16.4642 22.6943C16.3053 25.8636 15.2366 28.4304 14.3287 30.0727C13.2484 32.0268 12.1491 33.1466 12.1401 33.1557V33.1558C11.9255 33.3702 11.7969 33.6717 11.7969 33.9844V37.6562H10.625C9.97781 37.6562 9.45312 38.1809 9.45312 38.8281C9.45312 39.4753 9.97781 40 10.625 40H29.375C30.0222 40 30.5469 39.4753 30.5469 38.8281C30.5469 38.1809 30.0222 37.6562 29.375 37.6562H28.2031V33.9844C28.2031 33.687 28.0841 33.38 27.8599 33.1558C27.8599 33.1558 27.8599 33.1558 27.8599 33.1557C27.8182 33.114 23.8508 29.0735 23.5355 22.6944C25.3169 21.9285 26.9177 20.5874 28.2763 18.7345C34.7958 18.4122 40 13.0407 40 6.48391V3.51562C40 2.86844 39.4753 2.34375 38.8281 2.34375ZM2.34375 6.48391V4.6875H7.24227C7.54437 8.60289 8.40359 12.6911 10.1619 16.1676C5.69367 15.177 2.34375 11.2116 2.34375 6.48391ZM14.1406 37.6562V35.1562H25.8594V37.6562H14.1406ZM21.9864 20.7746C21.5012 20.93 21.1719 21.3812 21.1719 21.8907C21.1719 26.8587 23.1284 30.6562 24.6029 32.8125H15.3971C16.8716 30.6562 18.8281 26.8587 18.8281 21.8907C18.8281 21.3812 18.4989 20.93 18.0136 20.7746C15.2348 19.8849 13.2802 17.3019 12.0244 14.643C10.4684 11.3488 9.59102 7.11641 9.46813 2.34375H30.532C30.4091 7.11641 29.5316 11.3488 27.9755 14.643C26.7322 17.2754 24.7816 19.8796 21.9864 20.7746ZM37.6562 6.48391C37.6562 11.2116 34.3063 15.177 29.838 16.1676C31.5963 12.6911 32.4556 8.60297 32.7577 4.68742H37.6562V6.48391Z" fill="#A3ACFF"/>
</svg>
