<svg width="40" height="40" viewBox="0 0 40 40" fill="none" xmlns="http://www.w3.org/2000/svg">
<g clip-path="url(#clip0)">
<path d="M31.7188 18.8271H15.8266L29.7085 10.8124C30.2691 10.4888 30.4611 9.77204 30.1374 9.21157L26.6218 3.12235C26.2984 2.56235 25.5827 2.37009 25.0224 2.69267L21.4343 4.75759C21.4449 3.9136 21.232 3.08384 20.8045 2.34337C19.5121 0.10501 16.6399 -0.664834 14.4013 0.627588C12.8981 1.4954 12.0009 3.11282 12.0597 4.84821L12.1841 8.58313C12.1841 8.58313 9.07774 6.64704 9.07735 6.64673C7.60368 5.72884 5.75524 5.69751 4.25251 6.56509C3.16813 7.1911 2.39251 8.20196 2.06845 9.41142C1.74446 10.6208 1.91071 11.8841 2.53681 12.9683C2.94845 13.6813 3.52727 14.2597 4.21876 14.6652L0.587275 16.7551C0.315947 16.9112 0.118447 17.1694 0.0386814 17.4721C-0.0410842 17.7748 0.00360327 18.0968 0.162666 18.3664L3.75642 24.4556C4.08306 25.0092 4.79485 25.1963 5.35157 24.8749L7.10938 23.86V38.8271C7.10938 39.4743 7.63407 39.999 8.28126 39.999H31.7188C32.3659 39.999 32.8906 39.4743 32.8906 38.8271V19.999C32.8906 19.3518 32.3659 18.8271 31.7188 18.8271ZM18.8281 21.1709H21.1719V28.8886L20.8286 28.5454C20.371 28.0877 19.629 28.0877 19.1713 28.5454L18.8281 28.8886V21.1709ZM15.5732 2.65735C16.6924 2.01126 18.1285 2.3961 18.7748 3.51524C19.391 4.58267 19.0766 5.9786 18.101 6.67595L14.534 8.72876L14.4021 4.76915C14.3727 3.90056 14.8214 3.09134 15.5732 2.65735ZM5.9897 12.8885C5.38501 12.7265 4.87962 12.3387 4.56657 11.7965C4.25352 11.2543 4.1704 10.6227 4.33243 10.018C4.49438 9.41329 4.88227 8.9079 5.42446 8.59485C6.17563 8.16118 7.09985 8.17681 7.8372 8.63556C7.83782 8.63587 7.83845 8.63626 7.83899 8.63665L11.13 10.6877L7.43985 12.8114C6.97931 12.9902 6.47571 13.0188 5.9897 12.8885ZM5.18485 22.2648L2.78329 18.1955C5.18845 16.8113 22.8552 6.64392 25.1773 5.30767L27.5219 9.3686L5.18485 22.2648ZM30.5469 37.6552H9.45313V22.5068L11.7671 21.1709H16.4844V31.7177C16.4844 32.1917 16.7699 32.6191 17.2078 32.8004C17.6456 32.9818 18.1499 32.8816 18.4849 32.5463L20 31.0313L21.5152 32.5464C21.8509 32.8822 22.3552 32.9815 22.7923 32.8005C23.2302 32.6191 23.5157 32.1917 23.5157 31.7178V21.1709H30.547V37.6552H30.5469Z" fill="#A3ACFF"/>
<path d="M38.8281 14.1396H37.6562V12.9678C37.6562 12.3206 37.1316 11.7959 36.4844 11.7959C35.8372 11.7959 35.3125 12.3206 35.3125 12.9678V14.1396H34.1406C33.4934 14.1396 32.9688 14.6643 32.9688 15.3115C32.9688 15.9587 33.4934 16.4834 34.1406 16.4834H35.3125V17.6553C35.3125 18.3025 35.8372 18.8271 36.4844 18.8271C37.1316 18.8271 37.6562 18.3025 37.6562 17.6553V16.4834H38.8281C39.4753 16.4834 40 15.9587 40 15.3115C40 14.6643 39.4753 14.1396 38.8281 14.1396Z" fill="#A3ACFF"/>
<path d="M34.0625 9.45215C34.7097 9.45215 35.2344 8.92748 35.2344 8.28027C35.2344 7.63306 34.7097 7.1084 34.0625 7.1084C33.4153 7.1084 32.8906 7.63306 32.8906 8.28027C32.8906 8.92748 33.4153 9.45215 34.0625 9.45215Z" fill="#A3ACFF"/>
<path d="M29.375 16.4834C30.0222 16.4834 30.5469 15.9587 30.5469 15.3115C30.5469 14.6643 30.0222 14.1396 29.375 14.1396C28.7278 14.1396 28.2031 14.6643 28.2031 15.3115C28.2031 15.9587 28.7278 16.4834 29.375 16.4834Z" fill="#A3ACFF"/>
</g>
<defs>
<clipPath id="clip0">
<rect width="40" height="40" fill="white"/>
</clipPath>
</defs>
</svg>
